<svg xmlns="http://www.w3.org/2000/svg" viewBox="0 0 600 463.34"><defs><style>.a{fill:#f3e4e2;}.b{fill:#fff;}.c{fill:#d76c62;}.d{fill:#b45950;}.e{fill:#d8695f;}.f{fill:#de7b6b;}.g{fill:#de9479;}.h{fill:#df9579;}.i,.j,.k{fill:none;stroke:#fff;stroke-miterlimit:10;}.i{stroke-width:0.75px;}.j{stroke-width:0.5px;}.l{fill:#d76960;}.m{fill:#d46a5d;}.n{fill:#d46c5f;}</style></defs><title>rsl-color-full</title><polygon class="a" points="302.42 463.34 4.84 239.53 291.22 0 600 239.53 302.42 463.34"/><path class="b" d="M448.05,175.14s51.15-10.28,55.32-8.55L492.85,174l-7.8,1.27,1.05-2.9L473,176.32l-25-1.18"/><path class="b" d="M443,164.08s51.15-10.27,55.32-8.55L487.75,163l-7.8,1.27,1.05-2.9-13.06,3.91-25-1.18"/><path class="c" d="M425.91,185.52c-4.92-.27-12.56-2.6-17.51-2.83l-.47,0c-11.65-.55-23.31-1.14-35-1.18-22.73-.09-45.88,1.89-67.92,10.29-9.94,3.79-19.68,8.93-27.87,16.51-8.86,8.2-18.72,22.5-18,35.86.31,5.4,3.39,10,7,13.42C277,268,292.28,270.25,305.91,275.5c2.63,1,5.68,2.95,5.39,6.12-.18,2-1.69,3.56-3.16,4.77-4.94,4.08-10.68,6.64-16.41,8.93A308.37,308.37,0,0,1,234,312.16a2.14,2.14,0,0,0-1.63.9,2.57,2.57,0,0,0-.21,1.17c-.24,6.27-3,11.88-5.7,17.34a126.23,126.23,0,0,1-7.1,12.4c-1,1.57-4,5.64-.06,3.65,10-5.13,21.15-7.48,31.63-10.95q16.65-5.52,33.15-11.75c12.53-4.73,25.58-8.55,37.94-13.88,9.23-4,25.66-7.06,31.25-17.14,2.75-5,1.66-13.34-1.16-17.93s-7.35-7.47-12-9.49c-10.11-4.37-21.17-5.15-31.63-8.23-5-1.48-13.58-3.72-16.06-9.77-7.93-19.35,39.38-34.18,49.73-36.68,21.55-5.21,42.16-8.19,62.56-.61"/><path class="d" d="M255.53,239.16s-6.59,36.73,37.66,38.14C293.19,277.3,241.68,288.71,255.53,239.16Z"/><path class="b" d="M271.48,223.73s-3,18.93,13.24,20.84c0,0,0,18.59,17.7,19.15C302.42,263.72,251.09,264.74,271.48,223.73Z"/><path class="e" d="M221,193S340.19,37.15,509.42,122.89c0,0-180.06-125.3-367.16,62.76"/><path class="f" d="M465.72,107.83S339.45,71,227,193.36c0,0,14.72,2.32,23,10.51,2.67,2.66,4.94-1.89,5.18-2.24C265.32,187,331.32,96.92,465.72,107.83Z"/><path class="g" d="M264,204.61S364.56,90.89,449.19,117.4c0,0-81-1.44-138.29,66.45A154.48,154.48,0,0,0,264,204.61Z"/><path class="h" d="M335.21,177.57c.69-.14,1.93-1.85,2.43-2.32,2.29-2.12,4.67-4.16,7.09-6.14A195.06,195.06,0,0,1,371.2,150.9a172.89,172.89,0,0,1,40-16.9,145.3,145.3,0,0,1,19.59-4q5-.66,10.1-1a62.52,62.52,0,0,1,10-.18c0,1.07-.89,2.07-1.36,3L446.77,137l-7.65,14.35L427.06,174l-.17.33S387.39,166.42,335.21,177.57Z"/><path class="i" d="M291.22,191.48s73.22-89.18,158-74.08"/><path class="b" d="M306.33,157.71a32,32,0,0,1,2.75,2.59,22.82,22.82,0,0,1,2.4,3,10.59,10.59,0,0,1,1.63,3.5,4.45,4.45,0,0,1,0,2,3.61,3.61,0,0,1-1,1.76l-.36-.57c1.91-.72,3.83-1.41,5.79-2s3.93-1.09,5.92-1.52a41.21,41.21,0,0,1,6.07-.83,12.67,12.67,0,0,1,6,.83,13.9,13.9,0,0,0-6-.42,46.47,46.47,0,0,0-6,1q-3,.69-5.85,1.59c-1.93.61-3.86,1.22-5.75,1.92l-1.74.65L311.6,170a3.22,3.22,0,0,0,.89-3.15,10.15,10.15,0,0,0-1.42-3.37A33.73,33.73,0,0,0,306.33,157.71Z"/><path class="b" d="M337.56,136.48a28.3,28.3,0,0,1,1.88,2.34,19.33,19.33,0,0,1,1.61,2.56,10.41,10.41,0,0,1,1.1,2.86,3.85,3.85,0,0,1,0,1.62,2.46,2.46,0,0,1-.95,1.41l-.24-.62a88.49,88.49,0,0,1,10.42-.82,48.11,48.11,0,0,1,5.23.18l1.3.15,1.29.24c.43.08.85.22,1.27.33a12.75,12.75,0,0,1,1.21.49,17,17,0,0,0-5.1-.78c-1.73-.08-3.46,0-5.18,0s-3.46.18-5.19.34-3.45.29-5.16.5l-1.48.19,1.24-.8a2.29,2.29,0,0,0,.75-2.37,10.4,10.4,0,0,0-.91-2.76A35.45,35.45,0,0,0,337.56,136.48Z"/><path class="b" d="M366.92,124.12a7.81,7.81,0,0,1,1.09,4,6.41,6.41,0,0,1-.32,2.08,6.91,6.91,0,0,1-.95,1.9l-.28-.51a43.56,43.56,0,0,1,9.27.4,23.66,23.66,0,0,1,4.52,1.1,12.9,12.9,0,0,1,4.06,2.2,15.5,15.5,0,0,0-4.2-1.77,32.23,32.23,0,0,0-4.48-.87c-1.51-.21-3-.3-4.56-.37s-3.05-.11-4.57-.05l-.64,0,.36-.54a7.47,7.47,0,0,0,.95-1.7,6,6,0,0,0,.43-1.92A8.69,8.69,0,0,0,366.92,124.12Z"/><path class="b" d="M197.33,126.43c.56,3.24.95,6.51,1.22,9.79s.44,6.58.44,9.89a85,85,0,0,1-.52,9.94,44.25,44.25,0,0,1-2.22,9.89l-2.06-1.7a63.49,63.49,0,0,1,7.64-3.93c1.31-.55,2.62-1.1,3.95-1.61s2.67-1,4-1.38,2.71-.83,4.09-1.18l4.13-1c1.4-.27,2.8-.49,4.2-.73s2.81-.34,4.22-.52a72.16,72.16,0,0,1,16.94.16A73.1,73.1,0,0,1,259.75,158l-4.12-.76a41.14,41.14,0,0,0-4.12-.68l-4.13-.49c-1.37-.18-2.76-.17-4.14-.26-2.76-.22-5.52-.07-8.27-.05-1.37.05-2.75.22-4.12.32l-2,.17-2,.29a89,89,0,0,0-16,3.64c-1.31.41-2.58.92-3.89,1.35s-2.55,1-3.82,1.51a71.75,71.75,0,0,0-7.3,3.6l-3.59,2.06,1.52-3.76a43.77,43.77,0,0,0,2.38-9.2,91.13,91.13,0,0,0,1-9.66c.24-3.25.31-6.52.36-9.79S197.43,129.71,197.33,126.43Z"/><path class="b" d="M177.83,184.66A200.74,200.74,0,0,1,193,167.47q8-8.19,16.69-15.71a281.61,281.61,0,0,1,37.06-27,258.48,258.48,0,0,1,41.09-20.31A240.35,240.35,0,0,1,332,92.1c7.54-1.31,15.13-2.3,22.77-2.88s15.28-.78,22.93-.65a255.31,255.31,0,0,1,45.55,5.12c30,6,58.8,17.27,85.77,31.58a354.87,354.87,0,0,0-41.9-18.45,288.7,288.7,0,0,0-44-12.48,255,255,0,0,0-45.43-4.94c-7.63-.1-15.25.16-22.85.73s-15.16,1.63-22.67,3a239.14,239.14,0,0,0-44,12.19,257,257,0,0,0-41.05,20.1A282.36,282.36,0,0,0,210,152.13q-8.72,7.43-16.84,15.51A202.42,202.42,0,0,0,177.83,184.66Z"/><path class="b" d="M228.1,111a30.64,30.64,0,0,1,3.28,6.07,28.62,28.62,0,0,1,1.9,6.71,21.33,21.33,0,0,1-.17,7.08,18.24,18.24,0,0,1-2.85,6.57l-.93-1.4A109.16,109.16,0,0,1,243,133.84a115.27,115.27,0,0,1,13.78-.52,85.28,85.28,0,0,1,13.71,1.56,55.77,55.77,0,0,1,6.63,1.89,47.59,47.59,0,0,1,6.32,2.69c-2.18-.7-4.28-1.56-6.51-2s-4.44-.91-6.65-1.35a107.42,107.42,0,0,0-13.53-.95c-4.52,0-9,.24-13.55.71a130.9,130.9,0,0,0-13.41,2l-2.19.43,1.26-1.84a18.09,18.09,0,0,0,2.79-5.86,22,22,0,0,0,.49-6.59,32.73,32.73,0,0,0-1.35-6.61A37.42,37.42,0,0,0,228.1,111Z"/><path class="b" d="M267.44,95.81a24.2,24.2,0,0,1,1.34,4.72,23.2,23.2,0,0,1,.42,4.92,17.51,17.51,0,0,1-.9,4.9,13.75,13.75,0,0,1-2.6,4.3l-.35-.7c4.21-.49,8.42-.72,12.64-.8a105,105,0,0,1,12.66.53c2.1.22,4.2.5,6.28.89a63,63,0,0,1,6.16,1.53,34.8,34.8,0,0,1,5.88,2.38,22.78,22.78,0,0,1,5.19,3.59,30.9,30.9,0,0,0-11.25-5.38,74.68,74.68,0,0,0-12.35-2.12c-4.17-.39-8.37-.47-12.56-.45s-8.39.23-12.55.65l-1.1.12.75-.82a12.84,12.84,0,0,0,2.56-4,17.24,17.24,0,0,0,1-4.68,26.25,26.25,0,0,0-.18-4.85A29.05,29.05,0,0,0,267.44,95.81Z"/><path class="b" d="M301.3,84.84a19.43,19.43,0,0,1,2,3.41,13.93,13.93,0,0,1,1.21,3.8,8.42,8.42,0,0,1-.31,4,7.77,7.77,0,0,1-2.47,3.23l-.2-.52a62.61,62.61,0,0,1,12-.24,58,58,0,0,1,11.84,2,44.12,44.12,0,0,1,11.08,4.62,35.92,35.92,0,0,1,9.18,7.64,39.6,39.6,0,0,0-9.42-7.23,42.48,42.48,0,0,0-5.38-2.52,48.28,48.28,0,0,0-5.64-1.85,65.32,65.32,0,0,0-11.72-1.94,67.33,67.33,0,0,0-11.88.1l-1,.1.78-.61a7.36,7.36,0,0,0,2.36-2.94,8.1,8.1,0,0,0,.39-3.79,14,14,0,0,0-1-3.78A21.1,21.1,0,0,0,301.3,84.84Z"/><path class="j" d="M337.62,78.4s2,7-1.49,10.43c0,0,34.28.08,42.89,7.85"/><path class="e" d="M181.73,175.33s6.61,1,7.75,1.22-12.11,10.55-12.11,10.55l-3.83-4Z"/><path class="k" d="M240.24,199s69.49-110.71,225.48-91.17"/><path class="b" d="M245.92,169a22.81,22.81,0,0,1,3.83,2.41,17.34,17.34,0,0,1,3.21,3.25,7.76,7.76,0,0,1,1.63,4.39,6.2,6.2,0,0,1-.45,2.37,8.69,8.69,0,0,1-1.24,2l-.59-.76a21.43,21.43,0,0,1,5.27-1.57,18,18,0,0,1,5.48-.07,13.12,13.12,0,0,1,5.11,1.93c.38.26.76.52,1.12.79l1,.95a5.43,5.43,0,0,1,.89,1l.81,1.07a14.71,14.71,0,0,0-4.06-3.38,12.53,12.53,0,0,0-5-1.57,18.59,18.59,0,0,0-5.21.22,22.21,22.21,0,0,0-5,1.49l-1.92.84,1.32-1.59a6.07,6.07,0,0,0,1.54-3.79,7.36,7.36,0,0,0-1.32-4,17.2,17.2,0,0,0-2.9-3.32A28.65,28.65,0,0,0,245.92,169Z"/><path class="b" d="M268.33,150.51a22.32,22.32,0,0,1,3.17,2.1,14.25,14.25,0,0,1,2.71,2.72,6,6,0,0,1,1.38,3.66,4.5,4.5,0,0,1-.54,2,6.54,6.54,0,0,1-1.26,1.56l-.32-.6a28.14,28.14,0,0,1,5.37-.89,26.84,26.84,0,0,1,5.45.09,18,18,0,0,1,5.23,1.51,12.08,12.08,0,0,1,4.16,3.44,13.12,13.12,0,0,0-4.33-3.07,17.81,17.81,0,0,0-5.14-1.24,25.47,25.47,0,0,0-5.31,0,38.54,38.54,0,0,0-5.25.85l-1.39.35,1.07-.95a4.32,4.32,0,0,0,1.61-3,5.71,5.71,0,0,0-1.14-3.35,16.42,16.42,0,0,0-2.5-2.78A28.22,28.22,0,0,0,268.33,150.51Z"/><path class="b" d="M300.61,129.48a14.37,14.37,0,0,1,2.27,2.34,9.67,9.67,0,0,1,1.62,2.87,6.14,6.14,0,0,1,.23,3.35,6.29,6.29,0,0,1-1.75,2.89l-.29-.57a33.9,33.9,0,0,1,11.63-.11,17.44,17.44,0,0,1,5.51,1.91,10.27,10.27,0,0,1,4.09,4.07,11.8,11.8,0,0,0-1.91-2.14,12.47,12.47,0,0,0-2.38-1.55,18.68,18.68,0,0,0-5.42-1.64,31,31,0,0,0-5.7-.36,40,40,0,0,0-5.69.48l-1,.17.7-.75a6,6,0,0,0,1.63-2.56,5.66,5.66,0,0,0-.09-3,10.49,10.49,0,0,0-1.4-2.85A17.47,17.47,0,0,0,300.61,129.48Z"/><path class="b" d="M327.52,116.66a23.57,23.57,0,0,1,2.66,1.33,15.89,15.89,0,0,1,2.45,1.72,6,6,0,0,1,1.87,2.45,2.36,2.36,0,0,1-.1,1.67,3.46,3.46,0,0,1-1.06,1.24l-.12-.61c1.57.38,3.13.8,4.66,1.32s3,1.08,4.52,1.73a23.86,23.86,0,0,1,4.24,2.38,8.81,8.81,0,0,1,1.79,1.66,3.51,3.51,0,0,1,.88,2.23,3.6,3.6,0,0,0-1.06-2.08,10.58,10.58,0,0,0-1.85-1.47,27.28,27.28,0,0,0-4.26-2.12c-1.46-.62-3-1.15-4.49-1.64s-3-1-4.59-1.35l-.73-.18.6-.43a1.93,1.93,0,0,0,1-2.17,5.45,5.45,0,0,0-1.58-2.28A26.4,26.4,0,0,0,327.52,116.66Z"/><path class="b" d="M358.9,105.52a25.42,25.42,0,0,1,1.36,2.31,18.1,18.1,0,0,1,1.08,2.47,9,9,0,0,1,.56,2.7,2.9,2.9,0,0,1-.34,1.44,2,2,0,0,1-1.22,1l0-.66a65,65,0,0,1,9.06,1.76,31.38,31.38,0,0,1,4.36,1.54,12.26,12.26,0,0,1,2,1.12,4.86,4.86,0,0,1,1.6,1.65,8.29,8.29,0,0,0-3.8-2.38,41.37,41.37,0,0,0-4.37-1.3c-1.47-.37-3-.68-4.47-1s-3-.56-4.5-.77l-1.81-.24,1.75-.42a1.66,1.66,0,0,0,1.13-1.76,8,8,0,0,0-.39-2.54A31.08,31.08,0,0,0,358.9,105.52Z"/><polygon class="b" points="392.51 138.44 400.51 145.96 398.08 133.94 392.51 138.44"/><polygon class="b" points="361.84 150.94 385.07 159.49 356.87 155.19 361.84 150.94"/><path class="h" d="M450.87,128.89s87.34,6.92,39.12,44.56c0,0-42.61,3.14-63.1.86"/><polygon class="b" points="431.87 176.34 357.76 52.88 455.27 178.94 431.87 176.34"/><polygon class="b" points="453.99 126.97 450.78 143.92 462.25 126.11 453.99 126.97"/><polygon class="b" points="503.44 142.66 483.06 152.61 509.26 148.33 503.44 142.66"/><path class="l" d="M100.06,381q30.15-10.1,60.71-18.1,11-2.9,22-5.5c7-1.64,13.5-2.89,21.14-6,1.56-.64,2.76-2.1,4.1-3.25a135.56,135.56,0,0,1-51-6.9c-7.22-2.44-15.21-6.72-16.6-15.23-1.66-10.22,7.19-19,15.29-24.33,29.57-19.45,64.27-29.07,89.51-55.52,7.17-7.5,13.83-18.38,11.06-28.61-2.55-9.47-11.88-13.63-20.27-16.13-28.61-8.51-58.5-11.06-87.91-15.85s-59-12.09-84.26-29.06c9.63,17.21,19.58,35.64,19.48,56.52-.08,16-6.08,31.36-11.6,46.34C52.09,312.78,35.54,369,0,410.79c17.78-6.36,36.07-11.49,53.84-17.85,4.33-1.55,8.82-3.2,12.23-6.72,6.84-7.05,7.16-18.48,10.56-27.54,4.14-11,7.3-22.55,10.8-33.84q11-35.29,21.92-70.59l7.46-24a5,5,0,0,1,1.55-2.78,3.66,3.66,0,0,1,2.68-.33l91.46,12.5L120,289.18c-2.86,1.54-5.82,3.15-7.91,5.9s-3,6.17-4,9.55"/><path class="b" d="M64.78,232.1s16.91,8.64,26.07,12.21l-6.58,24.38L57.42,253.06Z"/><path class="b" d="M105.22,281l-21-12.32-4.39,21,25,16.59S106.33,284.69,105.22,281Z"/><polygon class="b" points="79.88 289.67 74.43 314.72 49.72 298.05 58.09 274.2 79.88 289.67"/><polygon class="b" points="74.43 314.72 98.75 331.24 97.51 359.11 71.16 333.58 74.43 314.72"/><polygon class="b" points="71.16 333.58 71.44 386.81 39.7 343.79 47.38 314.5 71.16 333.58"/><path class="d" d="M179.44,293.23s-52.83,31.91-10.57,44.24c0,0,14.44,4.74,28.4,3.43C197.27,340.9,133.39,335.53,179.44,293.23Z"/><path class="b" d="M139.45,184.11S215.88,196,230.17,199.2l-5.75-9.8s-50.94-3-90.24-12.17Z"/><path class="b" d="M225.79,193.43s29.19,7.29,31.41,10.25-3,4.08-3,4.08-11.09-8-21.37-9.25l-5.34-2.94Z"/><polygon class="d" points="56.24 302.44 50.75 317.2 71.16 333.58 56.24 302.44"/><polygon class="d" points="79.88 289.67 87.77 323.78 74.43 314.72 79.88 289.67"/><polygon class="d" points="71.15 261.05 79.88 289.67 65.01 279.11 71.15 261.05"/><polygon class="d" points="71.16 334.17 77.4 356.59 71.54 376.75 71.16 334.17"/><path class="d" d="M63.88,156.53l54.52,70.91s-.84.36-2.79,6.67-.21.65-.21.65l-32.05-21S75.23,167.94,63.88,156.53Z"/><path class="d" d="M39.7,343.79l14.14,49.15a24.3,24.3,0,0,0,14.77-10Z"/><path class="d" d="M111,296.74l38.68,69.15s50.12-12.8,54.28-14.48l3.38-2.59s-24.26-.74-34.48-3.27c0,0-34.86-4.4-32.55-22.92,0,0-14.16-25.31-5-41.67C135.33,281,113.91,290.45,111,296.74Z"/><polygon class="d" points="110.98 296.74 143.22 367.69 137.74 369.26 110.19 298.31 110.98 296.74"/><polygon class="d" points="103.79 348.07 119.5 374.73 100.06 381.01 103.79 348.07"/><polygon class="d" points="90.85 244.31 101.69 278.93 83.49 268.23 90.85 244.31"/><polygon class="d" points="233.99 312.16 254.07 335.61 280.55 326.24 240.86 310.8 233.99 312.16"/><polygon class="d" points="247.1 309.41 285.87 324.24 292.14 321.82 249.48 308.85 247.1 309.41"/><path class="d" d="M224.6,335.14l7.51,7.29S220,346.6,218.36,348c0,0-2.8,1.33.5-3.32Z"/><path class="d" d="M279.65,206.27s-5.43,32.46,13.13,32.59c0,0-6.19,13,11.81,18.22,0,0-.64,15.43,5.43,21,0,0-1.36-2.41-17.87-6.94s-22.33-9.4-28.94-16.13-6.68-19.76,3.81-35.21C267,219.8,275.8,208,279.65,206.27Z"/><path class="m" d="M496.42,169.08s-51.7,15.3-57.61,18.45l-14.23,27.2-17.88,3.48L379,294.47l150.3-41.72,23.82-28.08L423.3,261.36,451,193.29l30-12.76-24.28,64.24L561.5,217.28l12.73-11.65-100.34,25.7Z"/><polygon class="d" points="557.91 222.51 533.23 253.07 543.11 249.37 565.93 220.51 557.91 222.51"/><polygon class="d" points="382.8 259.43 372.1 294.94 361.89 297.54 384.66 251.39 382.8 259.43"/><polygon class="b" points="526.19 235.72 520.32 244.9 534.12 240.99 543.08 230.16 526.19 235.72"/><polygon class="b" points="509.9 241.02 505.36 249.87 517.25 245.79 522.66 236.71 509.9 241.02"/><polygon class="b" points="499.69 243.84 494.26 253.02 502.67 250.35 507.74 241.56 499.69 243.84"/><polygon class="d" points="406.7 218.21 417.3 283.84 379 294.47 406.7 218.21"/><polygon class="d" points="470.94 207.17 474.65 229.24 473.89 231.33 475.28 230.97 477.56 239.3 467.65 241.9 456.73 244.77 470.94 207.17"/><polygon class="d" points="410.9 217.31 424.81 281.75 418.67 283.46 409.31 217.71 410.9 217.31"/><path class="b" d="M325.6,270s33,14.5,2.68,29.07C328.28,299.08,374.75,284,325.6,270Z"/><path class="n" d="M401.17,171.78s12.73.52,15.49,1.1c0,0,7,.82,7.82,1a30.25,30.25,0,0,0,4.41.61l2,.16-11.05-18.42s-17.12,4.06-22.39,15.42"/><path class="n" d="M437.06,155.4s35.94,1.83,29.28,19.33l-14,.37Z"/><path class="b" d="M418.32,153.76s-16.82,3.37-24.38,17.85l-6.83,0s7.51-14.41,30.59-18.91"/><path class="b" d="M434.35,151.89s18.76,0,30.09,7.59,5.67,15.1,5.67,15.1l4.37-.21s6.78-15.55-21.46-21.52c0,0-14.61-2.44-19.46-2"/><path class="c" d="M335.21,177.57s14.89-14,27.46-21.49l2.62.4s-24.69,16.88-22.78,19.64Z"/><path class="c" d="M367.55,153l.22-.12c2.31-1.28,22.39-12.43,26.21-13.1l.94.88-25.21,13.14"/><polygon class="c" points="398.89 137.94 406.96 135.24 408.3 137.06 399.1 139 398.89 137.94"/><path class="c" d="M420.1,133.47s25.67-5,33.39-3.87l.09-.45s-14.46-1.21-34.56,2.93Z"/><path class="c" d="M459.52,130.36s38.89,8,37.21,15.58l3.61-1.76A37.62,37.62,0,0,0,489,137.26c-7.51-3.13-20.52-6.29-29.22-7.32Z"/><path class="b" d="M413.89,176.12a20.71,20.71,0,0,1,10-9.19,23,23,0,0,1,6.69-1.81,16.57,16.57,0,0,1,1.73-.13c.58,0,1.16-.09,1.73-.07,1.16,0,2.31.05,3.46.13a40.59,40.59,0,0,1,13.33,3.42,15.75,15.75,0,0,1,5.56,4.12,4.65,4.65,0,0,1,1,3.32,5,5,0,0,1-1.75,2.92,5,5,0,0,0,1.48-3,4.24,4.24,0,0,0-1.13-3,15.11,15.11,0,0,0-5.49-3.72,41.82,41.82,0,0,0-13.1-3.12c-1.12-.09-2.25-.17-3.37-.18-.57,0-1.12,0-1.68,0a15.62,15.62,0,0,0-1.68.1,25.11,25.11,0,0,0-6.49,1.62,22.15,22.15,0,0,0-10.28,8.48Z"/><path class="d" d="M177.82,184.84s22.06-36.9,77.77-26.92L224.42,189.4S179.8,186.34,177.82,184.84Z"/><path class="d" d="M198.36,161.12l2.36-1s19.4-19.08,26.88-22.81c0,0,6.85-6.49,3.08-19.57l-22.94,13.84S208.4,151,198.36,161.12Z"/><path class="d" d="M232.63,134.33s60.15-15.42,79.37-13.92L281.4,138.6S272.39,129.7,232.63,134.33Z"/><path class="d" d="M267,113.32S285.94,101,289,93.2l-20.38,6.91S271.17,106.14,267,113.32Z"/><path class="d" d="M310.73,98.28s38.62-8.82,45-7.77c0,0,18.41.83,24.81,8.46C380.55,99,329.77,96.36,310.73,98.28Z"/><path class="d" d="M353,82.29s22.76.57,26,6l-3.67-6.11A210,210,0,0,0,353,82.29Z"/><path class="d" d="M406.37,85.14s61.57,16.71,74.06,25.17c0,0-4.11-5-6.28-5.89A281,281,0,0,0,406.37,85.14Z"/><path class="d" d="M240.38,197.37l12.32-15.83s3-4.13-3.93-9.79l-10.72,10.16-11,11.45S238,196,240.38,197.37Z"/><path class="d" d="M255,181.75s24.9-17.07,34.73-18.2c0,0-3.53-3.16-15.69-.83C274.08,162.72,255.81,179.58,255,181.75Z"/><path class="d" d="M303.08,132.88s2.38,4.36-.13,6.81L283,153.53s6.75-11,4.68-11.57Z"/><path class="d" d="M305.65,139.74s23.61-13.23,27.89-14.21c0,0,8.5,2.43,9.46,3.19l-13.72,7A69.61,69.61,0,0,0,305.65,139.74Z"/><path class="d" d="M360.48,110.15s-.06,1.67-7.23,6.21l7.44-2.27S361.63,113.09,360.48,110.15Z"/><path class="d" d="M363.42,115s19.75-1.14,29.82-3l-20.68,5.32S366.07,115.06,363.42,115Z"/><path class="d" d="M400.39,108l33.89-.93s-25.51,1.59-32.11,3.23Z"/><path class="d" d="M294.7,189s12.27-14.16,18.08-18.57c0,0,12.59-4.31,14.69-3.78L310.9,183.85Z"/><path class="d" d="M316.71,157s1,6.45-3.26,10.83c0,0,25.94-21.41,27.72-21.77,0,0,.8-1.71-1.21-4.94Z"/><path class="d" d="M366.88,132.39l-12.69,7.21s8.27-1.77,8.14.13-3.35,3.73-3.35,3.73,18.57-10.27,19.82-10A85.27,85.27,0,0,0,366.88,132.39Z"/><path class="d" d="M378.92,121.79l18.83-2.29L396,116.62S383,120.23,378.92,121.79Z"/><path class="d" d="M408.37,118.3l3.21,4.16s19.7-4.62,34.21-5a124.57,124.57,0,0,0-25.8-.86S410.75,117.55,408.37,118.3Z"/><path class="d" d="M364.6,158.23l18.76,2.58-31.64,7S362.66,158,364.6,158.23Z"/><path class="d" d="M380,151.67l12.8-8.08,6.28,4.54A51.16,51.16,0,0,0,380,151.67Z"/><path class="d" d="M423.77,134.79s13.7-3.54,26.18-3.67L438.16,137S433.1,134.32,423.77,134.79Z"/><path class="d" d="M461,133.42s28.32,4.28,33,10.74l-4,.25c-1.92.12-4.61.82-6.41.09a6.45,6.45,0,0,1-1.43-.89c-3.81-2.84-7.59-5.58-12.09-7.23C467.05,135.29,464,134.32,461,133.42Z"/><path class="d" d="M488,153.58s11.06-.57,14.36-2.62c0,0-1.69,11.62-6.22,15.84h0S497.82,156.16,488,153.58Z"/><path class="b" d="M448.05,175.14s51.15-10.28,55.32-8.55L492.85,174l-7.8,1.27,1.05-2.9L473,176.32l-25-1.18"/></svg>