<svg xmlns="http://www.w3.org/2000/svg" viewBox="0 0 574.23 357.91"><defs><style>.a{fill:#fff;}.b{fill:#d76c62;}.c{fill:#b45950;}.d{fill:#d8695f;}.e{fill:#de7b6b;}.f{fill:#de9479;}.g{fill:#df9579;}.h,.i,.j{fill:none;stroke:#fff;stroke-miterlimit:10;}.h{stroke-width:0.75px;}.i{stroke-width:0.5px;}.k{fill:#d76960;}.l{fill:#d46a5d;}.m{fill:#d46c5f;}</style></defs><title>rsl-color</title><path class="a" d="M448.05,122.26s51.15-10.27,55.32-8.55l-10.52,7.45-7.8,1.27,1.05-2.9L473,123.44l-25-1.18"/><path class="a" d="M443,111.2s51.15-10.27,55.32-8.55l-10.52,7.45-7.8,1.27,1.05-2.9-13.06,3.91-25-1.18"/><path class="b" d="M425.91,132.64c-4.92-.27-12.56-2.6-17.51-2.83l-.47,0c-11.65-.55-23.31-1.14-35-1.18-22.73-.09-45.88,1.89-67.92,10.29-9.94,3.79-19.68,8.93-27.87,16.51-8.86,8.2-18.72,22.5-18,35.86.31,5.41,3.39,10,7,13.42,10.86,10.4,26.12,12.68,39.75,17.93,2.63,1,5.68,2.95,5.39,6.12-.18,2-1.69,3.56-3.16,4.78-4.94,4.07-10.68,6.64-16.41,8.92A308.37,308.37,0,0,1,234,259.28a2.14,2.14,0,0,0-1.63.9,2.61,2.61,0,0,0-.21,1.18c-.24,6.26-3,11.87-5.7,17.33a125.08,125.08,0,0,1-7.1,12.4c-1,1.57-4,5.64-.06,3.65,10-5.12,21.15-7.48,31.63-10.95q16.65-5.52,33.15-11.75c12.53-4.73,25.58-8.54,37.94-13.88,9.23-4,25.66-7.06,31.25-17.14,2.75-5,1.66-13.34-1.16-17.92s-7.35-7.48-12-9.5c-10.11-4.36-21.17-5.15-31.63-8.23-5-1.48-13.58-3.72-16.06-9.76-7.93-19.35,39.38-34.19,49.73-36.69,21.55-5.21,42.16-8.19,62.56-.61"/><path class="c" d="M255.53,186.28s-6.59,36.73,37.66,38.14C293.19,224.42,241.68,235.84,255.53,186.28Z"/><path class="a" d="M271.48,170.86s-3,18.93,13.24,20.83c0,0,0,18.59,17.7,19.15C302.42,210.84,251.09,211.86,271.48,170.86Z"/><path class="d" d="M221,140.13S340.19-15.73,509.42,70c0,0-180.06-125.3-367.16,62.76"/><path class="e" d="M465.72,55S339.45,18.08,227,140.48c0,0,14.72,2.32,23,10.52,2.67,2.66,4.94-1.9,5.18-2.25C265.32,134.13,331.32,44,465.72,55Z"/><path class="f" d="M264,151.74S364.56,38,449.19,64.52c0,0-81-1.44-138.29,66.45A154.37,154.37,0,0,0,264,151.74Z"/><path class="g" d="M335.21,124.7c.69-.15,1.93-1.86,2.43-2.32,2.29-2.13,4.67-4.17,7.09-6.15A195.06,195.06,0,0,1,371.2,98a172.89,172.89,0,0,1,40-16.9,148.46,148.46,0,0,1,19.59-4q5-.66,10.1-1a62.52,62.52,0,0,1,10-.18c0,1.07-.89,2.08-1.36,3l-2.74,5.15-7.65,14.35-12.06,22.64-.17.32S387.39,113.54,335.21,124.7Z"/><path class="h" d="M291.22,138.6s73.22-89.18,158-74.08"/><path class="a" d="M306.33,104.83a30.65,30.65,0,0,1,2.75,2.6,22.73,22.73,0,0,1,2.4,2.95,10.69,10.69,0,0,1,1.63,3.5,4.45,4.45,0,0,1,0,2,3.68,3.68,0,0,1-1,1.77l-.36-.57c1.91-.73,3.83-1.41,5.79-2s3.93-1.09,5.92-1.52a41.21,41.21,0,0,1,6.07-.83,12.67,12.67,0,0,1,6,.84,13.6,13.6,0,0,0-6-.42,46.44,46.44,0,0,0-6,1q-3,.69-5.85,1.59c-1.93.62-3.86,1.22-5.75,1.93l-1.74.64,1.38-1.21a3.23,3.23,0,0,0,.89-3.16,10.15,10.15,0,0,0-1.42-3.37A33.73,33.73,0,0,0,306.33,104.83Z"/><path class="a" d="M337.56,83.6a28.3,28.3,0,0,1,1.88,2.34,19.33,19.33,0,0,1,1.61,2.56,10.41,10.41,0,0,1,1.1,2.86,3.85,3.85,0,0,1,0,1.62,2.46,2.46,0,0,1-.95,1.41l-.24-.61A88.5,88.5,0,0,1,351.37,93a50.78,50.78,0,0,1,5.23.18l1.3.15,1.29.24c.43.08.85.22,1.27.33a12.75,12.75,0,0,1,1.21.49,17.28,17.28,0,0,0-5.1-.78c-1.73-.07-3.46,0-5.18,0s-3.46.19-5.19.34-3.45.3-5.16.51l-1.48.18,1.24-.8a2.29,2.29,0,0,0,.75-2.37,10.64,10.64,0,0,0-.91-2.76A35.45,35.45,0,0,0,337.56,83.6Z"/><path class="a" d="M366.92,71.24a7.81,7.81,0,0,1,1.09,4,6.41,6.41,0,0,1-.32,2.08,6.64,6.64,0,0,1-.95,1.9l-.28-.51a43.56,43.56,0,0,1,9.27.4,24.43,24.43,0,0,1,4.52,1.1,12.9,12.9,0,0,1,4.06,2.2,16.16,16.16,0,0,0-4.2-1.77,32.23,32.23,0,0,0-4.48-.87c-1.51-.21-3-.3-4.56-.37s-3.05-.11-4.57,0l-.64,0,.36-.54a7.47,7.47,0,0,0,.95-1.7,5.9,5.9,0,0,0,.43-1.92A8.69,8.69,0,0,0,366.92,71.24Z"/><path class="a" d="M197.33,73.55c.56,3.24.95,6.51,1.22,9.79s.44,6.58.44,9.89a85,85,0,0,1-.52,9.94,44.46,44.46,0,0,1-2.22,9.9l-2.06-1.71a63.49,63.49,0,0,1,7.64-3.93c1.31-.55,2.62-1.09,3.95-1.61s2.67-1,4-1.38,2.71-.83,4.09-1.18l4.13-1c1.4-.27,2.8-.48,4.2-.73s2.81-.34,4.22-.52a72.16,72.16,0,0,1,16.94.16,73.12,73.12,0,0,1,16.36,3.93l-4.12-.76a36.1,36.1,0,0,0-4.12-.68l-4.13-.5c-1.37-.18-2.76-.17-4.14-.26-2.76-.22-5.52-.06-8.27-.05-1.37.05-2.75.22-4.12.32l-2,.17-2,.29a89.88,89.88,0,0,0-16,3.64c-1.31.41-2.58.92-3.89,1.35s-2.55,1-3.82,1.51a69.77,69.77,0,0,0-7.3,3.61l-3.59,2.05,1.52-3.76a43.61,43.61,0,0,0,2.38-9.2,91.13,91.13,0,0,0,1-9.66c.24-3.25.31-6.51.36-9.79S197.43,76.83,197.33,73.55Z"/><path class="a" d="M177.83,131.79A199.36,199.36,0,0,1,193,114.59q8-8.19,16.69-15.71a281.61,281.61,0,0,1,37.06-27,258.43,258.43,0,0,1,41.09-20.3A239.59,239.59,0,0,1,332,39.22c7.54-1.31,15.13-2.29,22.77-2.88s15.28-.78,22.93-.65a255.31,255.31,0,0,1,45.55,5.12c30,6,58.8,17.27,85.77,31.58a354.87,354.87,0,0,0-41.9-18.45,288.66,288.66,0,0,0-44-12.47,254.07,254.07,0,0,0-45.43-4.94c-7.63-.11-15.25.15-22.85.73s-15.16,1.62-22.67,2.94a239.14,239.14,0,0,0-44,12.19,257,257,0,0,0-41.05,20.1A282.36,282.36,0,0,0,210,99.25q-8.72,7.43-16.84,15.51A201,201,0,0,0,177.83,131.79Z"/><path class="a" d="M228.1,58.15a30.72,30.72,0,0,1,3.28,6.08,28.35,28.35,0,0,1,1.9,6.71,21.28,21.28,0,0,1-.17,7.07,18.16,18.16,0,0,1-2.85,6.57l-.93-1.4A111,111,0,0,1,243,81a115.27,115.27,0,0,1,13.78-.52A85.28,85.28,0,0,1,270.44,82a57.72,57.72,0,0,1,6.63,1.89,47.59,47.59,0,0,1,6.32,2.69c-2.18-.7-4.28-1.56-6.51-2s-4.44-.91-6.65-1.35a109.33,109.33,0,0,0-13.53-1c-4.52,0-9,.24-13.55.71s-9,1.1-13.41,2l-2.19.44,1.26-1.85a18.09,18.09,0,0,0,2.79-5.86,22,22,0,0,0,.49-6.59,33,33,0,0,0-1.35-6.61A38.12,38.12,0,0,0,228.1,58.15Z"/><path class="a" d="M267.44,42.93a24.1,24.1,0,0,1,1.34,4.73,23.09,23.09,0,0,1,.42,4.92,17.51,17.51,0,0,1-.9,4.89,13.75,13.75,0,0,1-2.6,4.3l-.35-.7c4.21-.49,8.42-.72,12.64-.8a107.14,107.14,0,0,1,12.66.53c2.1.23,4.2.5,6.28.89a63,63,0,0,1,6.16,1.53A34.8,34.8,0,0,1,309,65.6a22.5,22.5,0,0,1,5.19,3.6,30.76,30.76,0,0,0-11.25-5.39,74.68,74.68,0,0,0-12.35-2.12c-4.17-.39-8.37-.47-12.56-.45s-8.39.23-12.55.66l-1.1.11.75-.81a12.88,12.88,0,0,0,2.56-4,17.24,17.24,0,0,0,1-4.68,26.25,26.25,0,0,0-.18-4.85A29.05,29.05,0,0,0,267.44,42.93Z"/><path class="a" d="M301.3,32a19.43,19.43,0,0,1,2,3.41,13.93,13.93,0,0,1,1.21,3.8,8.42,8.42,0,0,1-.31,4,7.77,7.77,0,0,1-2.47,3.23l-.2-.52a62.61,62.61,0,0,1,12-.24,58.73,58.73,0,0,1,11.84,2,44.12,44.12,0,0,1,11.08,4.62,35.92,35.92,0,0,1,9.18,7.64,39.6,39.6,0,0,0-9.42-7.23,41.08,41.08,0,0,0-5.38-2.51,48.33,48.33,0,0,0-5.64-1.86,65.32,65.32,0,0,0-11.72-1.94,67.33,67.33,0,0,0-11.88.1l-1,.1.78-.61A7.4,7.4,0,0,0,303.79,43a8.14,8.14,0,0,0,.39-3.8,13.89,13.89,0,0,0-1-3.77A21.2,21.2,0,0,0,301.3,32Z"/><path class="i" d="M337.62,25.52s2,7-1.49,10.43c0,0,34.28.08,42.89,7.86"/><path class="d" d="M181.73,122.45s6.61,1,7.75,1.22-12.11,10.55-12.11,10.55l-3.83-4Z"/><path class="j" d="M240.24,146.13S309.73,35.41,465.72,55"/><path class="a" d="M245.92,116.13a23.47,23.47,0,0,1,3.83,2.41A17.1,17.1,0,0,1,253,121.8a7.73,7.73,0,0,1,1.63,4.38,6.25,6.25,0,0,1-.45,2.38,8.83,8.83,0,0,1-1.24,2l-.59-.76a21,21,0,0,1,5.27-1.56,18,18,0,0,1,5.48-.08,13.12,13.12,0,0,1,5.11,1.93c.38.26.76.52,1.12.8l1,.94a5.77,5.77,0,0,1,.89,1L272,134a14.74,14.74,0,0,0-4.06-3.39,12.53,12.53,0,0,0-5-1.57,19,19,0,0,0-5.21.22,21.73,21.73,0,0,0-5,1.5l-1.92.84,1.32-1.6a6.07,6.07,0,0,0,1.54-3.79,7.42,7.42,0,0,0-1.32-4,16.85,16.85,0,0,0-2.9-3.31A28.72,28.72,0,0,0,245.92,116.13Z"/><path class="a" d="M268.33,97.63a22.32,22.32,0,0,1,3.17,2.1,14.85,14.85,0,0,1,2.71,2.72,6,6,0,0,1,1.38,3.67,4.5,4.5,0,0,1-.54,2,6.35,6.35,0,0,1-1.26,1.56l-.32-.6a28.14,28.14,0,0,1,5.37-.89,26.84,26.84,0,0,1,5.45.09,18,18,0,0,1,5.23,1.51,12.19,12.19,0,0,1,4.16,3.44,13.12,13.12,0,0,0-4.33-3.07,17.81,17.81,0,0,0-5.14-1.24,26.92,26.92,0,0,0-5.31,0,38.54,38.54,0,0,0-5.25.85l-1.39.35,1.07-.94a4.36,4.36,0,0,0,1.61-3,5.72,5.72,0,0,0-1.14-3.36,16,16,0,0,0-2.5-2.77A27.05,27.05,0,0,0,268.33,97.63Z"/><path class="a" d="M300.61,76.6a14.37,14.37,0,0,1,2.27,2.34,9.67,9.67,0,0,1,1.62,2.87,6.15,6.15,0,0,1,.23,3.35,6.38,6.38,0,0,1-1.75,2.9l-.29-.58a34.15,34.15,0,0,1,11.63-.11,17.44,17.44,0,0,1,5.51,1.91,10.27,10.27,0,0,1,4.09,4.07A11.41,11.41,0,0,0,322,91.22a12.06,12.06,0,0,0-2.38-1.56A18.68,18.68,0,0,0,314.21,88a31,31,0,0,0-5.7-.35,39.94,39.94,0,0,0-5.69.47l-1,.17.7-.74A6.13,6.13,0,0,0,304.15,85a5.65,5.65,0,0,0-.09-3.05,10.41,10.41,0,0,0-1.4-2.86A17.47,17.47,0,0,0,300.61,76.6Z"/><path class="a" d="M327.52,63.78a23.57,23.57,0,0,1,2.66,1.33,15.89,15.89,0,0,1,2.45,1.72,6,6,0,0,1,1.87,2.45,2.36,2.36,0,0,1-.1,1.67,3.46,3.46,0,0,1-1.06,1.24l-.12-.61c1.57.38,3.13.8,4.66,1.32s3,1.08,4.52,1.73A23.86,23.86,0,0,1,346.64,77a8.81,8.81,0,0,1,1.79,1.66,3.51,3.51,0,0,1,.88,2.23,3.54,3.54,0,0,0-1.06-2.07,10.19,10.19,0,0,0-1.85-1.48,27.28,27.28,0,0,0-4.26-2.12c-1.46-.62-3-1.15-4.49-1.63s-3-1-4.59-1.36l-.73-.18.6-.43a1.93,1.93,0,0,0,1-2.17,5.45,5.45,0,0,0-1.58-2.28A26.4,26.4,0,0,0,327.52,63.78Z"/><path class="a" d="M358.9,52.64A25.42,25.42,0,0,1,360.26,55a18.66,18.66,0,0,1,1.08,2.47,9,9,0,0,1,.56,2.7,2.9,2.9,0,0,1-.34,1.44,2,2,0,0,1-1.22,1l0-.67a63.61,63.61,0,0,1,9.06,1.77,31.33,31.33,0,0,1,4.36,1.53,12.26,12.26,0,0,1,2,1.12,4.86,4.86,0,0,1,1.6,1.65,8.37,8.37,0,0,0-3.8-2.38,41.37,41.37,0,0,0-4.37-1.3c-1.47-.37-3-.68-4.47-.95s-3-.55-4.5-.76l-1.81-.25,1.75-.41a1.67,1.67,0,0,0,1.13-1.76,8.06,8.06,0,0,0-.39-2.55A31.47,31.47,0,0,0,358.9,52.64Z"/><polygon class="a" points="392.51 85.56 400.51 93.08 398.08 81.06 392.51 85.56"/><polygon class="a" points="361.84 98.06 385.07 106.62 356.87 102.31 361.84 98.06"/><path class="g" d="M450.87,76s87.34,6.92,39.12,44.56c0,0-42.61,3.14-63.1.86"/><polygon class="a" points="431.87 123.46 357.76 0 455.27 126.06 431.87 123.46"/><polygon class="a" points="453.99 74.1 450.78 91.05 462.25 73.23 453.99 74.1"/><polygon class="a" points="503.44 89.78 483.06 99.74 509.26 95.45 503.44 89.78"/><path class="k" d="M100.06,328.13Q130.21,318,160.77,310q11-2.88,22-5.5c7-1.64,13.5-2.89,21.14-6,1.56-.64,2.76-2.1,4.1-3.24a135.57,135.57,0,0,1-51-6.91c-7.22-2.43-15.21-6.72-16.6-15.22-1.66-10.22,7.19-19,15.29-24.33,29.57-19.45,64.27-29.08,89.51-55.52,7.17-7.51,13.83-18.39,11.06-28.62-2.55-9.47-11.88-13.63-20.27-16.13-28.61-8.5-58.5-11.05-87.91-15.85s-59-12.09-84.26-29.06c9.63,17.21,19.58,35.64,19.48,56.52-.08,16-6.08,31.36-11.6,46.34C52.09,259.9,35.54,316.09,0,357.91c17.78-6.36,36.07-11.48,53.84-17.85,4.33-1.55,8.82-3.2,12.23-6.71,6.84-7.06,7.16-18.49,10.56-27.55,4.14-11,7.3-22.55,10.8-33.84q11-35.29,21.92-70.59l7.46-24a5.1,5.1,0,0,1,1.55-2.78,3.71,3.71,0,0,1,2.68-.33l91.46,12.5L120,236.31c-2.86,1.53-5.82,3.14-7.91,5.89s-3,6.18-4,9.55"/><path class="a" d="M64.78,179.23s16.91,8.63,26.07,12.2l-6.58,24.38L57.42,200.18Z"/><path class="a" d="M105.22,228.14l-21-12.33-4.39,21,25,16.59S106.33,231.81,105.22,228.14Z"/><polygon class="a" points="79.88 236.79 74.43 261.85 49.72 245.17 58.09 221.32 79.88 236.79"/><polygon class="a" points="74.43 261.85 98.75 278.36 97.51 306.23 71.16 280.7 74.43 261.85"/><polygon class="a" points="71.16 280.7 71.44 333.93 39.7 290.91 47.38 261.62 71.16 280.7"/><path class="c" d="M179.44,240.35s-52.83,31.91-10.57,44.24c0,0,14.44,4.75,28.4,3.44C197.27,288,133.39,282.66,179.44,240.35Z"/><path class="a" d="M139.45,131.23s76.43,11.84,90.72,15.09l-5.75-9.79s-50.94-3-90.24-12.18Z"/><path class="a" d="M225.79,140.55s29.19,7.3,31.41,10.25-3,4.09-3,4.09-11.09-8-21.37-9.26l-5.34-2.94Z"/><polygon class="c" points="56.24 249.57 50.75 264.32 71.16 280.7 56.24 249.57"/><polygon class="c" points="79.88 236.79 87.77 270.9 74.43 261.85 79.88 236.79"/><polygon class="c" points="71.15 208.17 79.88 236.79 65.01 226.23 71.15 208.17"/><polygon class="c" points="71.16 281.29 77.4 303.71 71.54 323.87 71.16 281.29"/><path class="c" d="M63.88,103.65l54.52,70.92s-.84.35-2.79,6.66-.21.66-.21.66l-32.05-21S75.23,115.06,63.88,103.65Z"/><path class="c" d="M39.7,290.91l14.14,49.15a24.3,24.3,0,0,0,14.77-10Z"/><path class="c" d="M111,243.86,149.66,313s50.12-12.8,54.28-14.48l3.38-2.59s-24.26-.73-34.48-3.27c0,0-34.86-4.4-32.55-22.92,0,0-14.16-25.31-5-41.67C135.33,228.08,113.91,237.58,111,243.86Z"/><polygon class="c" points="110.98 243.86 143.22 314.81 137.74 316.38 110.19 245.43 110.98 243.86"/><polygon class="c" points="103.79 295.19 119.5 321.85 100.06 328.13 103.79 295.19"/><polygon class="c" points="90.85 191.43 101.69 226.06 83.49 215.36 90.85 191.43"/><polygon class="c" points="233.99 259.28 254.07 282.73 280.55 273.36 240.86 257.92 233.99 259.28"/><polygon class="c" points="247.1 256.53 285.87 271.36 292.14 268.94 249.48 255.97 247.1 256.53"/><path class="c" d="M224.6,282.26l7.51,7.29s-12.07,4.17-13.75,5.6c0,0-2.8,1.33.5-3.32Z"/><path class="c" d="M279.65,153.4s-5.43,32.45,13.13,32.58c0,0-6.19,13,11.81,18.23,0,0-.64,15.42,5.43,21,0,0-1.36-2.41-17.87-6.93s-22.33-9.41-28.94-16.14-6.68-19.76,3.81-35.21C267,166.92,275.8,155.08,279.65,153.4Z"/><path class="l" d="M496.42,116.2s-51.7,15.3-57.61,18.45l-14.23,27.21-17.88,3.48L379,241.59l150.3-41.72,23.82-28.08L423.3,208.48,451,140.41l30-12.76-24.28,64.24L561.5,164.4l12.73-11.65-100.34,25.7Z"/><polygon class="c" points="557.91 169.64 533.23 200.19 543.11 196.5 565.93 167.63 557.91 169.64"/><polygon class="c" points="382.8 206.55 372.1 242.07 361.89 244.66 384.66 198.51 382.8 206.55"/><polygon class="a" points="526.19 182.85 520.32 192.03 534.12 188.12 543.08 177.28 526.19 182.85"/><polygon class="a" points="509.9 188.14 505.36 196.99 517.25 192.91 522.66 183.83 509.9 188.14"/><polygon class="a" points="499.69 190.97 494.26 200.15 502.67 197.47 507.74 188.69 499.69 190.97"/><polygon class="c" points="406.7 165.34 417.3 230.96 379 241.59 406.7 165.34"/><polygon class="c" points="470.94 154.29 474.65 176.36 473.89 178.45 475.28 178.09 477.56 186.42 467.65 189.02 456.73 191.89 470.94 154.29"/><polygon class="c" points="410.9 164.43 424.81 228.87 418.67 230.58 409.31 164.83 410.9 164.43"/><path class="a" d="M325.6,217.13s33,14.5,2.68,29.07C328.28,246.2,374.75,231.11,325.6,217.13Z"/><path class="m" d="M401.17,118.9s12.73.52,15.49,1.1c0,0,7,.82,7.82,1a28.94,28.94,0,0,0,4.41.61l2,.16-11.05-18.41s-17.12,4.05-22.39,15.41"/><path class="m" d="M437.06,102.52s35.94,1.83,29.28,19.33l-14,.38Z"/><path class="a" d="M418.32,100.88s-16.82,3.37-24.38,17.85l-6.83,0s7.51-14.4,30.59-18.91"/><path class="a" d="M434.35,99s18.76,0,30.09,7.59,5.67,15.1,5.67,15.1l4.37-.21S481.26,105.94,453,100c0,0-14.61-2.44-19.46-2"/><path class="b" d="M335.21,124.7s14.89-14.06,27.46-21.5l2.62.4s-24.69,16.89-22.78,19.64Z"/><path class="b" d="M367.55,100.16l.22-.12c2.31-1.28,22.39-12.43,26.21-13.1l.94.89L369.71,101"/><polygon class="b" points="398.89 85.07 406.96 82.36 408.3 84.18 399.1 86.12 398.89 85.07"/><path class="b" d="M420.1,80.59s25.67-5,33.39-3.87l.09-.45S439.12,75.06,419,79.2Z"/><path class="b" d="M459.52,77.48s38.89,8,37.21,15.58l3.61-1.76A37.86,37.86,0,0,0,489,84.38c-7.51-3.12-20.52-6.28-29.22-7.32Z"/><path class="a" d="M413.89,123.24a20.64,20.64,0,0,1,10-9.18,22.74,22.74,0,0,1,6.69-1.82,16.57,16.57,0,0,1,1.73-.13c.58,0,1.16-.09,1.73-.07,1.16,0,2.31,0,3.46.14a40.33,40.33,0,0,1,13.33,3.41,15.75,15.75,0,0,1,5.56,4.12,4.65,4.65,0,0,1,1,3.32,4.94,4.94,0,0,1-1.75,2.92,5,5,0,0,0,1.48-3,4.24,4.24,0,0,0-1.13-3,15.11,15.11,0,0,0-5.49-3.72,41.82,41.82,0,0,0-13.1-3.12c-1.12-.09-2.25-.17-3.37-.18-.57,0-1.12,0-1.68.05a15.62,15.62,0,0,0-1.68.11,24.69,24.69,0,0,0-6.49,1.61,22.15,22.15,0,0,0-10.28,8.48Z"/><path class="c" d="M177.82,132s22.06-36.9,77.77-26.91l-31.17,31.48S179.8,133.46,177.82,132Z"/><path class="c" d="M198.36,108.24l2.36-1s19.4-19.08,26.88-22.81c0,0,6.85-6.49,3.08-19.56L207.74,78.68S208.4,98.15,198.36,108.24Z"/><path class="c" d="M232.63,81.45S292.78,66,312,67.53L281.4,85.72S272.39,76.82,232.63,81.45Z"/><path class="c" d="M267,60.44S285.94,48.14,289,40.32l-20.38,6.92S271.17,53.26,267,60.44Z"/><path class="c" d="M310.73,45.4s38.62-8.81,45-7.77c0,0,18.41.83,24.81,8.46C380.55,46.09,329.77,43.49,310.73,45.4Z"/><path class="c" d="M353,29.41s22.76.58,26,6l-3.67-6.1A208.49,208.49,0,0,0,353,29.41Z"/><path class="c" d="M406.37,32.26S467.94,49,480.43,57.43c0,0-4.11-5-6.28-5.89A281.48,281.48,0,0,0,406.37,32.26Z"/><path class="c" d="M240.38,144.49l12.32-15.83s3-4.13-3.93-9.79L238.05,129l-11,11.44S238,143.16,240.38,144.49Z"/><path class="c" d="M255,128.87s24.9-17.07,34.73-18.19c0,0-3.53-3.16-15.69-.84C274.08,109.84,255.81,126.7,255,128.87Z"/><path class="c" d="M303.08,80s2.38,4.36-.13,6.82L283,100.65s6.75-11,4.68-11.57Z"/><path class="c" d="M305.65,86.86s23.61-13.22,27.89-14.2c0,0,8.5,2.42,9.46,3.18l-13.72,7A69.61,69.61,0,0,0,305.65,86.86Z"/><path class="c" d="M360.48,57.27s-.06,1.67-7.23,6.21l7.44-2.27S361.63,60.21,360.48,57.27Z"/><path class="c" d="M363.42,62.11s19.75-1.14,29.82-3l-20.68,5.32S366.07,62.18,363.42,62.11Z"/><path class="c" d="M400.39,55.12l33.89-.92s-25.51,1.58-32.11,3.22Z"/><path class="c" d="M294.7,136.07S307,121.91,312.78,117.5c0,0,12.59-4.31,14.69-3.78L310.9,131Z"/><path class="c" d="M316.71,104.09s1,6.45-3.26,10.83c0,0,25.94-21.4,27.72-21.77,0,0,.8-1.7-1.21-4.94Z"/><path class="c" d="M366.88,79.51l-12.69,7.21s8.27-1.76,8.14.13S359,90.58,359,90.58s18.57-10.26,19.82-10A85.27,85.27,0,0,0,366.88,79.51Z"/><path class="c" d="M378.92,68.91l18.83-2.28L396,63.74S383,67.36,378.92,68.91Z"/><path class="c" d="M408.37,65.42l3.21,4.17s19.7-4.63,34.21-5a124.57,124.57,0,0,0-25.8-.86S410.75,64.67,408.37,65.42Z"/><path class="c" d="M364.6,105.35l18.76,2.59-31.64,7S362.66,105.08,364.6,105.35Z"/><path class="c" d="M380,98.79l12.8-8.07,6.28,4.53A51.16,51.16,0,0,0,380,98.79Z"/><path class="c" d="M423.77,81.91s13.7-3.53,26.18-3.66l-11.79,5.82S433.1,81.44,423.77,81.91Z"/><path class="c" d="M461,80.54s28.32,4.28,33,10.74l-4,.26c-1.92.11-4.61.82-6.41.08a6.79,6.79,0,0,1-1.43-.88c-3.81-2.84-7.59-5.59-12.09-7.24C467.05,82.41,464,81.44,461,80.54Z"/><path class="c" d="M488,100.7s11.06-.56,14.36-2.62c0,0-1.69,11.62-6.22,15.84h0S497.82,103.28,488,100.7Z"/><path class="a" d="M448.05,122.26s51.15-10.27,55.32-8.55l-10.52,7.45-7.8,1.27,1.05-2.9L473,123.44l-25-1.18"/></svg>