<?xml version="1.0" encoding="utf-8"?>
<!-- Generator: Adobe Illustrator 24.0.0, SVG Export Plug-In . SVG Version: 6.00 Build 0)  -->
<svg version="1.1" id="Layer_1" xmlns="http://www.w3.org/2000/svg" xmlns:xlink="http://www.w3.org/1999/xlink" x="0px" y="0px"
	 viewBox="0 0 512 214" style="enable-background:new 0 0 512 214;" xml:space="preserve">
<style type="text/css">
	.st0{fill:#FFFFFF;}
	.st1{fill:#F26522;}
	.st2{fill:#F7941E;}
	.st3{fill:#FFF200;}
	.st4{fill:#1A1A1A;}
	.st5{fill:#2E2E2F;}
	.st6{fill:#6D6E71;}
	.st7{fill:none;}
	.st8{fill:#808080;}
</style>
<g>
	<path d="M204.3,196c-1.8-1.8-5.4-2.8-10.3-2.8c-1,0-2.1,0-3.2,0.1c-4.3,0.3-13.1,1.7-22.5,3.1c-10.7,1.6-21.7,3.3-28.6,3.9
		c-14.8,5.3-33.1,8.3-51.6,8.3c-22.1,0-42.2-4.2-55.4-11.6C6.3,183-5.4,147.4,2.3,104c0.1-0.4,0.1-0.9,0.2-1.3l0.9-4.2h0.1
		c10.4-41.1,35.3-74.3,65.6-87.4c15.5-7,37-11.1,58.8-11.1c22.1,0,42.2,4.2,55.4,11.6c4,2.1,7.7,4.8,11,8.1c9.7-4.8,23.5-10,38.7-10
		c1.6,0,3.3,0,4.9,0.1c19.8,1.1,33.4,11.4,39.8,17.5c8.3,7.9,21.9,8.7,27.4,8.7c1.9,0,3.1-0.1,3.1-0.1l28.1-2.5l-22.5,17.1
		c-0.8,0.6-1.5,1.1-2.3,1.7c2,0.7,4,1.5,6.1,2.4c4.1,1.8,8.5,3.3,13,2.8c27-2.8,41.4-20.7,41.4-20.7l-0.4,17.6c0,1-0.7,21.5-13.8,31
		c0.8,0.1,1.7,0.3,2.7,0.4c3,0.3,6.1,0.4,9.1,0.4c13.1,0,24.3-2.7,35.2-5.3c11.1-2.6,21.6-5.1,33.6-5.1c13.5,0,37.1,8.2,49.2,15.5
		l24.4,14.8l-28.7,0.2c-0.3,0-34,0.5-52,16.1c-11.9,10.3-23.9,16.1-33.1,19.3l-9.8,9c-10.5,9.6-32.5,19.5-51.2,19.5
		c-0.5,0-1,0-1.6,0c-19.6-0.5-29.8-4.7-38.8-8.4c-3.1-1.3-5.8-2.4-8.6-3.2l-9.1,8.2c-0.8,0.7-19.1,16.9-46.8,17.6
		c-0.7,6.4-3.5,16.9-14.5,22.9l-12.8,7C204.9,213.5,208.5,200.2,204.3,196z"/>
	<path class="st0" d="M485.2,94.4c-11.4-6.9-34.4-15-47.1-15c-11.5,0-21.8,2.4-32.6,5c-11.1,2.7-22.6,5.4-36.2,5.4
		c-3.1,0-6.3-0.1-9.5-0.4c-7.1-0.7-10.8-2.9-12.3-4.3c0.2-0.1,0.3-0.1,0.5-0.2c18.3-4.5,19.2-30,19.2-31.1l0.2-8.8
		c0,0-12.7,13.4-37.1,16.1c-5.1,0.6-10.1-1.1-14.7-3.1c-5-2.2-9.9-3.7-14.9-4.5c3.6-1.8,7-4,10.4-6.5l11.3-8.5l-14,1.3
		c0,0-1.3,0.1-3.4,0.1c-6,0-20.9-1-30.2-9.8c-6-5.7-18.7-15.3-37.2-16.4c-1.5-0.1-3.1-0.1-4.7-0.1c-16.2,0-30.8,6.2-39.5,10.9
		c-3.5-3.9-7.6-7.1-12.1-9.5c-12.5-7-32-11.1-53.4-11.1c-21.3,0-42.1,4-57.2,10.8c-29.8,12.9-54.4,46.7-64,87.9
		c-0.1,0.3-0.1,0.5-0.2,0.8v0.1l0,0c-0.1,0.3-0.1,0.7-0.2,1c-7.4,41.7,3.5,75.7,28.4,88.9c12.5,7,32,11.1,53.4,11.1
		c18.3,0,36.3-2.9,50.8-8.2c6.8-0.5,18-2.3,28.9-3.9c9.5-1.4,18.4-2.8,22.8-3.1c1.2-0.1,2.4-0.1,3.5-0.1c6,0,10.7,1.3,13.2,4
		c3.7,4.1,2.2,13.3,2.2,13.3l6.4-3.5c9.8-5.4,12.7-15.7,12.6-23.4c0.6,0,1.3,0,1.9,0c27.3,0,45.3-15.9,46.1-16.6l8.9-8l-12,0.9
		c0,0-0.9,0.1-2.3,0.1c-3.8,0-6.5-0.5-8.1-1.2c2.1-0.8,5.3-1.6,8.6-2c2.4-0.3,4.6-0.4,6.6-0.4c8.5,0,13.6,2.1,20.1,4.8
		c8.7,3.6,18.5,7.7,37.4,8.1c0.5,0,1,0,1.5,0c17.5,0,38.8-9.5,48.5-18.4l7.7-7.1h-6.7c8.1-1.6,25.1-6.7,42-21.3
		c19.2-16.7,54.3-17,54.6-17l14.4-0.1L485.2,94.4z"/>
	<g>
		<path d="M190.2,185.3c-10.7,0.8-45.5,7.2-55.1,7.2c-3.5,0-6.8-0.2-10.3-0.6c-40.7-5.1-38-43.6-37.1-56.1
			c2.2-31.3,23.4-77.6,50.3-93.9c18.1-11,34.7-13.4,45.4-13.4c5.6,0,5.1,1.9,7.2,2.3c4.2-2.6,22.1-13.1,42.2-13.1c1.5,0,3,0,4.4,0.1
			c15,0.9,27,7.9,34.7,15.3c13.7,13,36.8,10.8,36.8,10.8c-13.8,10.5-31.9,14.8-49,15.1c-0.9,0-5.5,0.1-8.3-2.3
			c-1.2-1.1-1.3-2.6-1.3-3.9c-1.1,0.5-2.7,1.2-4.8,2.3c-1.5,0.8-1.4,1.4-1.3,1.7c0.3,2.6,5.8,7.3,12.8,7.3c0.6,0,1.2,0,1.8-0.1
			c3-0.4,6.5-1.4,10.3-2.6c6.8-2.1,14.4-4.4,23.4-4.4c7.4,0,14.5,1.6,21.7,4.8c5.1,2.3,10.6,3.5,16.3,3.5c11.5,0,28.8-8.1,32.8-11.4
			c0,0-0.6,23.4-16.1,27.2c-2.7,0.7-4.3,2.3-4.3,3.7c-0.1,2.4,4.9,7.6,16.6,8.7c3.3,0.3,6.6,0.5,9.9,0.5c14,0,25.8-2.8,37.1-5.5
			c10.6-2.5,20.6-4.9,31.7-4.9c11.7,0,34.1,7.8,45,14.4c0,0-36.6,0.2-57.3,18c-22.1,19.2-44.5,21.1-44.5,21.1
			c1.9-2,9.9-12.5,0.3-12.4c-7.6,0-24.8,3-24.6,12.7c0.1,7.1,25.8,7,25.8,7c-9.3,8.5-29.6,17.3-45.7,17.3c-0.5,0-0.9,0-1.3,0
			c-18.1-0.4-27.6-4.4-35.9-7.8c-6.7-2.8-12.4-5.1-21.7-5.1c-2.2,0-4.6,0.1-7.1,0.4c-5.8,0.6-14.7,3.1-13.8,6
			c2,6.4,16.3,5.2,16.3,5.2s-17.4,15.6-43.4,15.5c-2.2,0-4.3-0.1-6.5-0.4c1.5,5.9,0.7,18.5-9.9,24.2
			C213.8,199.3,214.6,183.4,190.2,185.3z"/>
		<path class="st1" d="M194.3,181.1c17.9,0,20.7,8.5,21.1,12.1c9.5-10,2.6-21.6,2.5-21.8c-0.1-0.2-0.1-0.6,0.1-0.8
			c0.2-0.2,0.6-0.4,0.9-0.3c3.7,0.8,7.5,1.2,11.4,1.2c15.6,0,28-6.6,32.5-9.4c-8-0.2-13.5-3.4-13-7.6c0.5-4.7,8.4-8.3,21-9.7
			c2.6-0.3,5.2-0.4,7.5-0.4c10.1,0,16.5,2.6,23.2,5.4c8,3.3,17.1,7.1,34.5,7.5c15.7,0.4,32-7.7,37.7-10.9
			c-16.6-0.5-20.4-5.2-20.6-9.1c-0.3-5.5,6.1-11.2,10.6-13.1c4.6-1.9,12.5-3.2,19.2-3.2c3.8,0,8.5,0.4,9.1,2.5
			c0.8,2.6-2.6,6.7-5,9.2c5.9-2,21.2-7.8,36.4-20.1C439.6,99.5,463,96.2,471,95.4c-11.3-5.4-21.8-7.9-32.8-7.9
			c-10.6,0-20.4,2.3-30.7,4.8c-11.6,2.8-23.6,5.6-38.1,5.6c-3.4,0-6.8-0.2-10.2-0.5c-13.4-1.2-20.4-7.5-20.3-12.8
			c0.1-3.2,2.6-5.9,7-7.4c9.1-3.2,12-12.7,12.9-17c-4.6,3.7-15.6,9-28.2,9c-6.3,0-12.3-1.3-18-3.9c-6.7-3-13.2-4.5-20.1-4.5
			c-8.4,0-15.8,2.2-22.2,4.2c-3.9,1.2-7.6,2.3-10.9,2.7c-0.8,0.1-1.5,0.1-2.3,0.1c-8.7,0-16.2-5.8-16.9-10.8
			c-0.3-2.4,0.9-4.5,3.5-5.8c5-2.6,7.8-3.7,9.3-3.7c2.1,0,1.8,1.9,1.6,3.3c-0.3,2-0.6,3.8,2.7,3.9c19.2,0.5,34.5-4.7,42-7.9
			c-1.3,0.2-2.6,0.2-3.8,0.2c-10.3,0-17.8-5.3-25.7-10.9c-8.6-6.1-17.6-12.4-31.4-13.2c-1.4-0.1-2.8-0.1-4.2-0.1
			c-22.3,0-39.9,11.3-40,11.4c-0.2,0.2-2.3-0.4-2.5-0.5c-0.1,0-21.4-7-51.4,11.2c-25.9,16-46.3,60.7-48.5,91
			c-1.4,20.4,0.5,47.8,33.5,51.9c3.3,0.4,6.5,0.6,9.8,0.6c9.1,0,17.6-1.6,26.5-3.2c8.5-1.6,17.4-3.2,28.3-4
			C191.4,181.2,192.9,181.1,194.3,181.1z"/>
		<path class="st2" d="M103.1,112.6c0,0-13.3,50.2,9.7,62.7c20.9,11.4,46.7,8.9,67.1-0.6c20.4-9.5,18.8-20.4,34.9-20.4
			c13.7,0,8.8,8.4,23.6,7.3c0,0-11.6-2.7-7.9-9c3.7-6.3-3.6-9.5-7.3-8.8c0,0,7.1-1.4,10.4-0.1c0,0-3.7-4.2-8.3-4.6
			c0,0,9.3-2.2,23.7-0.9c12,1.1,17.5-10.4,13.8-14.3c0,0,8.7-2.6,15.5,3.6c0,0-2.7-8.8,1.9-9.7c6.1-1.2,22.8-0.4,23.5,11.4
			c0,0,2.8-3.8,1.6-6.8c0,0,6.3,3.5,11.1,1.4c4.8-2,8.4-2.7,16.4-2.1c8,0.6,16.1-5.6,16.4-10.9c0,0-8.6,15.1-38.5,1.1
			c-10.1-4.7-13.5-13.5-41.9-8.2c0,0,4.7-5.1,14.8-4.3c12.5,0.9,23.3-11.3,23.3-11.3s-17.3,7.1-23.1,3.3c0,0-2.6-2.7,3.2-2.1
			c0,0-1.4-2.9-6.1-1.7c-4.7,1.2-9.5-3.6-4.6-7.1c0,0-12.5-4.1-22.3,3.8c-9.8,8-16.4,7.1-19.6-3.3c-3.2-10.4,3.3-21.6-16.6-33
			c0,0,4.4-1.5,6.6-10.8c1-4.2,11.8-7.9,11.8-7.9s-12.7-2.3-19.6,4.5c-3.8,3.8-14.8,10.8-23.1,2.6c0,0-13.9-0.4-43,12.3
			C123.2,60.9,106.7,99.3,103.1,112.6z"/>
		<path class="st3" d="M140.6,180.2c-10.3,0-19.4-2.1-27.1-6.3c-21.6-11.8-9-60.4-8.9-60.9c4.2-15.7,21.2-51.6,46.5-62.5
			c11.2-4.9,21.9-7.3,31.8-7.3c8.6,0,13.3,1.9,13.4,2l1.9-2.5c-0.1-0.2-0.2-0.4-0.3-0.7c2.2,1.3,4.5,2,7,2c6.5,0,11.8-4.7,13.2-6.1
			c2.1-2.1,4.7-3.5,7.3-4.4c-1.3,1.1-2.9,1.4-4.3,4.9c-3.8,9.8-9.5,8.8-9.5,8.8c14.3,8.2,17.3,18.8,18.3,27.2
			c0.3,2.9,0.6,5.6,1.5,8.3c2,6.7,6.4,10.6,11.9,10.6c3.8,0,7.9-1.8,12.1-5.2c5-4.1,11-5.6,14.5-5.6c0.5,0,0.9,0,1.2,0.1
			c-1.9,1.5-1.9,2.9-1.6,3.9c0.8,2.5,4.9,3.4,8.2,3.4c1.3,0,2.5-0.1,3.5-0.4c0.2-0.1,0.4-0.1,0.6-0.1c0,0.1-0.1,0.2-0.1,0.2
			c-0.5,1.2,0.1,2.5,0.8,3.3l0.3,0.2c1.4,0.9,3.4,1.4,5.9,1.4c2.1,0,4.5-0.3,6.8-0.8c-3.8,2-8.2,3.6-11.9,3.6
			c-0.8,0-1.6-0.1-2.3-0.3c-1.1-0.3-2.3-0.4-3.5-0.4c-8.8,0.1-15.8,10.4-15.8,10.4c8-3,17.4-3,22.4-3c11.3,0,15,4.1,20.3,7.9
			c1.3,0.9,9.2,6,17.8,7.5c0,0-6.5,3-7.1,3.2c-0.8,0.3-1.7,0.4-2.8,0.5c-4.8,0.4-8.7-2.2-8.7-2.2c0.2,0.4,0.7,3.2-0.3,3.9
			c-4.2-9.1-16.9-9.6-22.9-9.1c-1.3,0.1-7.7,0-5.1,8.6c-7.9-6.1-18.6-2.1-18.6-2.1s9.5,14.8-12.7,13c-10.8-0.9-30.3,4.6-30.7,4.7
			c0,0,12.2,0.5,13.9,2.1c-2.7,0.2-7.2,2.6-7.3,2.6c0,0,6.4-0.4,7.9,3.3c0.5,1.2,0.5,2.6-0.5,4.3c-1.3,2.2-0.9,4-0.4,5.1
			c0.1,0.3,0.3,0.6,0.5,0.9c-0.4-0.3-0.7-0.6-1.1-0.9c-2.3-2-5-4.2-12.1-4.2c-9.7,0-12.9,2.9-17.4,7c-3.4,3.1-7.6,6.9-16.3,11
			C167.8,176.8,153.5,180.2,140.6,180.2L140.6,180.2z"/>
		<g>
			<path d="M88.1,200.4c-20.7,0-39.4-3.9-51.4-10.6C13.3,177.4,3.2,145,10.3,105c0-0.2,0.1-0.5,0.1-0.7c0,0,0.1-0.2,0.1-0.3
				c0-0.2,0.1-0.4,0.1-0.5c9.3-40.1,33-72.7,61.7-85.1C86.9,12,107.2,8.1,127.9,8.1s39.4,3.8,51.4,10.6
				c23.4,12.4,29.4,44.9,22.3,84.8c0,0.2-0.1,0.5-0.1,0.7c0,0-0.1,0.2-0.1,0.3v0.1c0,0.2-0.1,0.5-0.2,0.7
				c-9.4,40-28.9,72.4-57.5,84.8C129.1,196.6,108.8,200.4,88.1,200.4z"/>
			<path class="st4" d="M195.5,104.3c0-0.1,0-0.2,0.1-0.3l0,0c6.8-37.5,1.9-68.9-20.1-80.5c-10.8-6-28.3-9.9-48.8-9.9
				s-39.6,3.9-52.8,9.9C47.2,35,25.1,66.4,16.4,104l0,0c0,0.1,0,0.2-0.1,0.3c0,0.1,0,0.2-0.1,0.3l0,0c-6.8,37.5,2.3,68.9,24.2,80.5
				c10.8,6,28.3,9.9,48.8,9.9s39.6-3.9,52.8-9.9c26.7-11.6,44.7-43.1,53.4-80.5l0,0C195.5,104.5,195.5,104.4,195.5,104.3z"/>
			<path class="st5" d="M115.6,166.5c-27.4,0-62.8-1-90.7-12.3c4,13.8,11.4,24.3,21.9,30c10.3,5.9,27,9.7,46.5,9.7
				s37.8-3.8,50.4-9.7c14.2-6.3,25.8-18.6,34.7-34.5C158.6,158.9,138.5,166.5,115.6,166.5z"/>
			<g>
				<path class="st5" d="M129.3,187.6c-29.8,0-45.5-36.6-35.9-83.3C103.1,57.5,134,21,163.7,21c29.8,0,40.7,36.6,31.1,83.3
					S159.1,187.6,129.3,187.6z M145.5,41c-12.1,0-31,26-38.7,63.3s0.4,63.3,12.6,63.3c12.1,0,31-26,38.7-63.3
					C165.8,66.9,157.7,41,145.5,41z"/>
				<path d="M131.6,180.2c-25.5,0-38.6-33.4-29.8-75.9s35.7-75.9,61.2-75.9s34.5,33.4,25.7,75.9C179.9,147,157.1,180.2,131.6,180.2z
					 M147.2,46.6c-10.4,0-26.9,23.7-33.9,57.7c-7,34-0.4,57.7,10,57.7s26.9-23.7,33.9-57.7C164.2,70.2,157.6,46.6,147.2,46.6z"/>
				<path class="st6" d="M162.4,31.5c-23.3,0-48.9,32.6-57.2,72.8s3.8,72.8,27.1,72.8s44.8-32.6,53.1-72.8S185.7,31.5,162.4,31.5z
					 M122.6,165.1c-14,0-19.7-27.2-12.7-60.9c7-33.6,23.9-60.9,37.9-60.9s19.7,27.2,12.7,60.9C153.6,137.9,136.6,165.1,122.6,165.1z
					"/>
				<path d="M146.6,40.2c-16.1,0-35.1,28.7-42.4,64.1c-7.3,35.4-0.2,64.1,15.9,64.1s35.1-28.7,42.4-64.1
					C169.9,68.8,162.7,40.2,146.6,40.2z"/>
			</g>
			<g>
				<path class="st7" d="M122.8,90.1c17.7-30.3,47-49.7,52.6-53.2c-2.5-2.9-6.7-4-12.5-3.3c-3.6,0.4-6.6,1.5-7.4,1.8
					c-23.8,18.5-38.4,45.8-43.6,56.7c2.2-1.3,4.8-2.2,7.3-2.4C120.5,89.6,121.7,89.8,122.8,90.1z"/>
				<path class="st7" d="M123.2,116.3c-0.1,0.1-0.1,0.2-0.2,0.3c2.3,2.8,21.2,24.1,46.9,30.3l7.8-17.1c-6.1-1.2-36.4-6.4-50.9-20.2
					C125.9,112.2,124.7,114.4,123.2,116.3z"/>
				<path class="st7" d="M128.7,102.9c22-16.9,52.9-27.4,58.9-29.4L186.8,61c-28.9,10.7-53.5,31.3-58.5,35.6
					C128.8,98.4,129,100.6,128.7,102.9z"/>
				<path class="st7" d="M111.8,124h-0.4c-2.2,0.2-4.2-0.3-5.8-1.5c-0.4-0.3-0.8-0.7-1.1-1c-0.2,9.1,0.8,37.1,17.3,53
					c1,0.2,7.5,3.6,11.8,3c4.9-0.6,8.6-0.9,12.2-4c-4.5-3-27.3-22.2-30.8-50.4C113.9,123.6,112.8,123.9,111.8,124z"/>
				<path class="st8" d="M126.4,107.6c0.2-0.6,0.4-1.1,0.5-1.7c0-0.1,0-0.2,0.1-0.3c24.3-20,62.1-31.6,62.1-31.6l-0.9-14.5
					c-31,10.9-57.2,33.4-61.2,36.9c-0.7-2.2-1.9-3.9-3.5-4.9c19.4-34.4,53.8-54.4,53.8-54.4c-6.2-8.7-22.4-2.4-22.4-2.4
					c-28.7,22-44,56.5-46.1,61.5c-2.5,3-4,7.6-5,11.7c-1.2,5-0.7,9.4,1.2,12.1c-0.6-0.4-1.1-0.8-1.7-1.4c0,0-2.9,37.2,17.6,56.6
					c10.2,5.1,18.9,3.1,26.8-2.1c0,0-28.2-19.3-31.5-51.8c2-1.2,4-3,5.7-5.2c-0.1,0.2-0.2,0.4-0.3,0.6c0,0,19.8,24.9,49.1,31.4
					l8.9-19C179.5,129.3,141.9,124.2,126.4,107.6z"/>
				<path d="M128.2,105.9c20-7,60.8-30.9,61.2-31l1-0.3l-1-16.5l-1.7,0.6c-28.2,10-52.7,29.5-60.1,35.8c-0.6-1.3-1.5-2.4-2.6-3.2
					l0,0c25.3-26.8,52.6-53.3,53-53.5l0.9-0.6l-0.5-0.7c-2.9-4-8.2-7-15.5-6.1c-4.7,0.6-6.5,0.9-6.7,0.9l-0.4,0.2
					c-28.6,21.9-46.1,58.9-48.3,64.2c-2.1,2.6-3.8,6.4-5.1,12c-0.7,3.1-0.8,6-0.4,8.5l-0.2,2.4c-0.1,1.5-2.7,37.8,17.9,57.2l0.2,0.2
					l0.3,0.1c0.2,0.1,7.6,3.9,13.5,3.2c6.1-0.8,10.7-1.6,15-5.6l0.8-0.8l-0.9-0.5c-0.3-0.1-27.6-19.3-31-50.8
					c1.3-0.9,2.6-1.9,3.7-3.2c4,4.7,12.4,28.5,48.8,30.6l1.3,0.3l9.9-20.9l-1.3-0.2c-0.3-0.1-37-5.2-52.2-21.1
					C127.9,106.9,128.1,106.4,128.2,105.9C128.2,106,128.2,106,128.2,105.9z M187.4,60.7l1.1,12.6c-6,2-37.7,12.9-59.7,29.6
					c0.2-2.3,0.1-4.5-0.4-6.3C133.3,92.3,158.5,71.3,187.4,60.7z M157,33.9c0.8-0.3,4.6-1.3,8-1.1c5.6,0.3,8.8,1.9,10.5,4.2
					c-5.7,3.5-35,22.8-52.6,53.2c-1.1-0.4-2.3-0.5-3.6-0.4c-2.6,0.2-5.1,1.1-7.3,2.4C117.1,81.1,133.2,52.4,157,33.9z M145.9,173.6
					c-3.7,3.2-8.3,3.6-12.3,3.9c-6.1,0.5-9.8-1.7-11.8-3c-16.5-15.9-17.5-43.8-17.3-53c0.4,0.4,0.7,0.7,1.1,1
					c1.6,1.2,3.6,1.7,5.8,1.5h0.4c1.1-0.1,2.2-0.5,3.2-0.9C118.5,151.2,141.4,170.6,145.9,173.6z M177.8,130l-7.8,17.1
					c-25.7-6.2-44.6-27.6-46.9-30.3c0.1-0.1,0.1-0.2,0.2-0.3c1.5-1.9,2.7-4.1,3.7-6.5C141.4,123.7,171.6,128.9,177.8,130z
					 M124.9,106.1c-1.8,7.4-7.5,13.9-12.8,14.3c-5.3,0.5-8.1-5.2-6.3-12.7c0.8-3.5,2.1-7.2,4.2-9.7c2.4-2.9,5.8-4.3,8.7-4.6
					C123.8,93,126.7,98.7,124.9,106.1z"/>
			</g>
		</g>
	</g>
</g>
</svg>
