<svg xmlns="http://www.w3.org/2000/svg" viewBox="0 0 512.3 253"><defs><style>.a{fill:#231815;}.b{fill:#9f9f9f;}.c{fill:#040000;}.d{fill:#fff;}</style></defs><title>race-flag</title><path class="a" d="M509.1,146.2l-.1-.1c-1.8-5.5-7.2-22.4-38.9-37.2a117.63,117.63,0,0,0-48.4-10.6h-1.2a46.52,46.52,0,0,0,8.3-9.7c1.7-2.6,7.2-12.3,7.3-23.8.1-8.1-.5-11.3-.5-11.3a97.45,97.45,0,0,1-8.3,6.9c-6.6,4.9-9.8,6.8-14,8.8a84.49,84.49,0,0,1-36.5,7.7c-5.3,0-13.6-.8-19.5-3.1-4.6-1.8-10-5.1-17.5-10.7C326.3,53,309.4,40.4,288.4,38.7a85.11,85.11,0,0,0-8.6-.4,73.6,73.6,0,0,0-27.5,4.9,49,49,0,0,0,3.7-7.7,72.6,72.6,0,0,0,5-22.6L261.8,0l-9.7,8.6c-5.9,5.3-10,8.6-14.3,11-3.7,2.1-11,5.6-18.4,5.6-5.9,0-15.9-.9-34.1-8.3l-1.3-.6C172.4,11.5,159,6,138.7,5.6h-.9c-23.4,0-42.9,11.2-52.5,17.9A90.12,90.12,0,0,0,67.8,39.2c-2.7,3.3-6.1,8.2-7.6,13.1-1,.5-1.8.8-2.2,1C40.7,61.4,26.7,72.6,16.3,86.4,9,96.3,4.8,106,3.3,111.8l-.2.9A78.23,78.23,0,0,0,0,133.5v11.8l9-7.6c4.5-3.7,10.4-8,15.2-11.5a151.49,151.49,0,0,0,16.1,57.6c7.2,14.3,16.4,27.3,25.6,36.2a135.41,135.41,0,0,0-2.6,19.2L62.4,253s7.5-7.1,10.2-9.4A193.54,193.54,0,0,1,109,219.4a29.58,29.58,0,0,0,8.4,11.9c9.7,8.4,25.6,11.2,42.1,11.2a108.9,108.9,0,0,0,19.8-1.9c17.6-3.5,30.5-16.1,43-28.3,10.6-10.3,20.6-20.1,30.2-20.5a9.7,9.7,0,0,1,1.7-.1c7.4,0,11.9,2.3,18.7,5.7,9.2,4.6,21.7,11,43.5,11,1.8,0,3.5-.1,5.3-.1a82.67,82.67,0,0,0,37.5-10.4c10.4-5.7,19.3-13.1,28.9-21,9.4-7.7,19-15.7,31.6-23.5a47.58,47.58,0,0,1,25.3-6.9c21.8,0,40.7,10.7,46,13.9l.2.1a110.68,110.68,0,0,1,12.1,8.3l8.9,7.2.1-11.4C511.7,160,510.7,151.6,509.1,146.2ZM135,208.2a108.05,108.05,0,0,1,11.8-1.7A54.76,54.76,0,0,1,135,208.2Zm174.3-76.9c-15.2,0-32.5-7-32.1-13.4.2-3.6,7.6-4.6,12.2-4.5,6,.1,10.6,2,17.3,4.7,7.6,3.1,16.8,6.8,30.7,8.8A92.46,92.46,0,0,1,309.3,131.3Z"/><path class="b" d="M504,147.9c-1.6-4.8-6.2-20.1-36.1-34a113.32,113.32,0,0,0-46.1-10,99.23,99.23,0,0,0-19.8,2c13.7-9,19.8-15.9,22.3-20.1s6.4-12.2,6.5-20.9a71.11,71.11,0,0,1-15,9.4c-10.5,4.8-22.4,8.2-38.8,8.2-5.6,0-14.7-.8-21.6-3.5-5.5-2.1-11.5-6-18.8-11.4-13-9.7-29.1-21.7-48.5-23.3q-4.2-.3-8.1-.3c-22.7,0-34.3,8.4-42.9,14.6-5.5,4-8.6,6.1-12.5,6.1h-.2c-2.2-.1-5.6-1.9-7.1-3.2,1.7-.8,3.6-1.6,6.7-3,20-8.8,24.1-17.3,27-24.8a67.7,67.7,0,0,0,4.6-20.9c-6.4,5.6-10.5,9.1-15.2,11.7s-12.6,6.3-21,6.3c-6.4,0-17.1-.9-36.1-8.8-11.7-4.8-24.8-10.6-44.8-10.8h-.8c-36.4,0-71,30.4-72.8,44.9-2.2.9-4.6,2.1-4.6,2.1-38.8,18.1-50.1,47.7-52,55.1-1.2,4.8-3.2,11.6-3.2,20.3,7.8-6.6,19.6-14.4,23.9-17.8-.3,27.3,8,50.2,15.8,65.6,8.5,16.9,18.8,29.7,26.9,36.9-1.3,4-2.7,13.4-3.3,21.4,5.5-5.1,36.3-27.3,57.1-33.6,7.8-2.4,20.8-5.3,30.8-5.3,5.8,0,8.6.8,9.9,1.4a.89.89,0,0,1,.4,1.4c-1,1.4-3.6,3.5-9.4,5.3a97.83,97.83,0,0,1-23.4,4.7c-2.2.2-5.2.5-10.3.6-5.5.2-7.4.2-10.2.1a24.54,24.54,0,0,0,4.3,8.4,21.24,21.24,0,0,0,3.9,4.1c6.9,5.4,22.1,10.2,37.6,10.2a97.16,97.16,0,0,0,18.7-1.8c16-3.2,28.3-15.2,40.2-26.8,11.4-11.1,22.1-21.5,33.8-22.1a13.4,13.4,0,0,1,2-.1c8.7,0,14.2,2.8,21.1,6.3,9.2,4.6,20.6,10.4,41,10.4,1.7,0,3.4-.1,5.1-.1,28.1-1.2,44.3-14.6,63.1-30,9.5-7.9,19.3-15.9,32.2-23.9a52.25,52.25,0,0,1,28.2-7.8c25.6,0,46.8,13.4,49.1,14.9a99.19,99.19,0,0,1,12.6,8.8A54.59,54.59,0,0,0,504,147.9ZM309.3,136.5c-1.7,0-3.4-.1-5.2-.1-12.4-.6-20.8-4.8-25.4-8.3-5.9-4.5-6.9-7.6-7-9.6-.3-6.3,5.5-9.8,14.6-10.6,1.1-.1,2.2-.2,3.3-.2,7,0,12.2,2.1,19.2,4.9,8.4,3.4,19,7.7,36.1,9.2,2.1.2,4.3.3,6.3.3a74.5,74.5,0,0,0,13.5-1.2C342.5,131.8,328,136.5,309.3,136.5Z"/><path class="c" d="M13.6,118.5S29.3,78.4,70.4,62.8c26.8-10.1,46.2-10.6,54.9-11.4,10.5-1,3.7-12.4-6.3-12.7C97.4,38,74.5,54.3,74.5,54.3s24.7-34.8,63.9-34.7c28.7.1,41.9,12.3,60,16.3,13.2,3,33.6,5.4,46.5-5.9-2.7,6.1-8,16.5-23.2,21.7-23.8,8.1-7.2,20.7,3,20.9,17.8.3,22.1-23.6,63.1-20.3,27.7,2.2,47.2,25.5,64.5,32.5,21.4,8.6,55.2,3.2,68.7-6.3-3.9,6.7-36,39.1-75.2,35.8-32-2.7-38.5-15.8-60-14-16.3,1.4-21.4,10.5-21.9,17.9-.7,10,13.3,25.3,40.1,26.5,28.3,1.2,46.9-6.8,78.5-23.3,32.7-17,67.2-7.1,82.2-.2,27.7,12.9,33.3,29.2,33.3,29.2s-46.6-32.5-85.6-8.2-52.8,51.1-91.2,52.8c-39.4,1.7-42.8-17.7-69.3-16.5-28.4,1.3-46.7,43.3-75.3,49-18,3.6-39,1.4-51.6-7.2,16.8,1.3,50-2.5,50.5-17,.6-16.3-37.2-9.7-52.2-4.7-25.7,8.6-44.8,25.1-44.8,25.1a53.22,53.22,0,0,1,3.4-7.8c-14.6-14-51.6-55.2-43.4-115.1C28.4,105,13.6,118.5,13.6,118.5Z"/><path class="d" d="M84.1,136.9a230.59,230.59,0,0,1,39.2-15.4,116.69,116.69,0,0,1,3.5-47.2,6.89,6.89,0,0,1,.3-.8,227.29,227.29,0,0,0-43.5,7.8A132.15,132.15,0,0,0,84.1,136.9Z"/><path class="d" d="M166.8,113a242.7,242.7,0,0,0-43.6,8.4c0,.1.1.2.1.3a173.65,173.65,0,0,0,15,48.8,249.92,249.92,0,0,1,37.5-13.3.35.35,0,0,0,.2-.1V157C171.5,145.9,168.4,131.6,166.8,113Z"/><path class="d" d="M250.6,119.3a228.28,228.28,0,0,0-43.3-6.9h-.4a173,173,0,0,0,3.6,39c13.4-1.7,23.5-1.8,38.6-1.2.2,0,.3.1.5.1A166.32,166.32,0,0,1,250.6,119.3Z"/><path class="d" d="M309.4,146c-1.8,0-3.7-.1-5.6-.1a66.07,66.07,0,0,1-15.9-2.6c-.6,4.9-1.1,10-1.6,15.3,14.6,5,21.9,7.4,40.4,7.2a177.8,177.8,0,0,0,4-21.9C323,145.7,318.2,146,309.4,146Z"/><path class="d" d="M84.1,136.9c-20.8,10.5-33.7,21-37.5,24.2a129.79,129.79,0,0,0,6.2,13.8,153.42,153.42,0,0,0,29.8,39.8,111.54,111.54,0,0,1,24.3-25.8A147.91,147.91,0,0,1,84.1,137Z"/><path class="d" d="M193.7,193.8a97,97,0,0,1,17.6-7.5c3.2-1,6.1-1.8,8.9-2.5a181,181,0,0,1-9.7-32.4,201,201,0,0,0-34.4,6A271,271,0,0,0,193.7,193.8Z"/><path class="d" d="M253.4,177h.6c10.9,0,17.9,3.6,25.4,7.3,1.8.9,3.7,1.9,5.8,2.8.1-10.3.5-19.7,1.2-28.5-9.8-3.1-19.1-6.7-36.9-8.3A157.87,157.87,0,0,0,253.4,177Z"/><path class="d" d="M263,122.9a13.75,13.75,0,0,1-.6-4.8c.3-3.4,2.1-13.5,14.9-17.6-7-3.1-14.4-5.8-21.6-8.3a209.83,209.83,0,0,0-5.3,27.1C254.9,120.4,259,121.6,263,122.9Z"/><path class="d" d="M312.4,104.3c7.2,2.9,12,5.1,23.5,7.2A134.74,134.74,0,0,0,338,95.2c-4.1-1.2-12.7-5.9-18.4-8.4-6.7-2.9-13-5.7-18.8-7.9-1.6,6.8-3.2,13.5-4.7,20.1C301.8,100,306.8,102.1,312.4,104.3Z"/><path class="d" d="M166.8,112.6c0,.2,0,.3.1.4a252,252,0,0,1,40.1-.7,165.66,165.66,0,0,1,4-32.7,313.07,313.07,0,0,0-40.1-6.1A105.87,105.87,0,0,0,166.8,112.6Z"/><path class="d" d="M170.9,73.5c.6-2,1.1-3.9,1.8-5.7a121.17,121.17,0,0,1,9.6-21.3c-15.3-2.7-28.4-4.3-39.1-5.1-7.1,10.3-13,21.2-16.2,32A268.27,268.27,0,0,1,170.9,73.5Z"/><path class="d" d="M214.7,53.2a34,34,0,0,1,6.5-2.8c10.8-3.7,16.4-9.9,20.1-16.3-6.1,3.6-13.7,5.4-22.7,5.4A93.62,93.62,0,0,1,198.1,37a52.86,52.86,0,0,1-8-2.4,102.56,102.56,0,0,0-7.7,11.9C192.2,48.3,203.1,50.5,214.7,53.2Z"/><path class="d" d="M176.5,204.4c-.7,4.5-4.1,7.8-8.9,10.4a120.91,120.91,0,0,0,11.2,10.7c9.2-2.6,17.5-9.2,25.5-16.5a152.54,152.54,0,0,1-10.5-15.2A144.37,144.37,0,0,0,176.5,204.4Z"/><path class="d" d="M107.2,188.6l-.3.3c2.8,3.9,5.7,7.7,8.6,11.1,2.4-1,4.8-1.9,7.3-2.7a122.64,122.64,0,0,1,27.3-5.5,201.72,201.72,0,0,1-11.7-21.2C127.1,175.7,118.5,180.1,107.2,188.6Z"/><path class="d" d="M223.3,190.9c5.4-4.7,10.9-8.7,16.9-11.2a178.75,178.75,0,0,0-20,4C221.2,186.1,222.2,188.5,223.3,190.9Z"/><path class="d" d="M333.9,165.2c-2.5.3-5,.5-7.3.6-2.4,9.6-3.8,15.2-7.7,27.9.1,0,.3,0,1.8-.1a68.28,68.28,0,0,0,35.2-11.1,206.83,206.83,0,0,0,5.9-23.8A115.85,115.85,0,0,1,333.9,165.2Z"/><path class="d" d="M38.5,100.7c12.9-8.5,27.1-14.3,45.1-19.4a149.81,149.81,0,0,1,6.7-23.4A182.43,182.43,0,0,0,71,64,93.37,93.37,0,0,0,42,81.8c-1.2,5.6-2.3,11.5-3.3,17.5Z"/><path class="d" d="M300.6,79.1c1.6-6.8,3.2-13.8,4.9-21.1a62.69,62.69,0,0,0-18-4.6c-2.5-.2-5-.3-7.4-.3a81.08,81.08,0,0,0-10.4.7c-1.8,3.8-3.7,8.1-5.5,12.9C275.9,70.4,288.1,74.5,300.6,79.1Z"/><path class="d" d="M119,37.3a15.51,15.51,0,0,1,9.2,3.6c4.2,0,9.2.2,14.9.6a205.35,205.35,0,0,1,14.5-18.6,84.42,84.42,0,0,0-19.3-2.1h-.2c-13.7,0-25.6,4.5-34.9,9.8-1.8,3.1-3.8,6.6-5.8,10.5a61.78,61.78,0,0,1,20.1-3.8Z"/><path class="d" d="M224.8,73.8h-.3a21.59,21.59,0,0,1-11-3.7c-.9,2.8-1.8,6-2.6,9.6a1.09,1.09,0,0,0,.5.1,452.18,452.18,0,0,1,44.4,12.4,216,216,0,0,1,8.4-25.4c-5.4-1.7-10.7-3.3-15.8-4.8-2.1,1.3-3.9,2.7-5.7,3.9C237,70.2,232,73.8,224.8,73.8Z"/></svg>