<?xml version="1.0" encoding="utf-8"?>
<!-- Generator: Adobe Illustrator 24.0.0, SVG Export Plug-In . SVG Version: 6.00 Build 0)  -->
<svg version="1.1" id="圖層_1" xmlns="http://www.w3.org/2000/svg" xmlns:xlink="http://www.w3.org/1999/xlink" x="0px" y="0px"
	 viewBox="0 0 512 253" style="enable-background:new 0 0 512 253;" xml:space="preserve">
<style type="text/css">
	.st0{fill:#231815;}
	.st1{fill:#9F9F9F;}
	.st2{fill:#040000;}
	.st3{fill:#FFFFFF;}
</style>
<g>
	<g>
		<path class="st0" d="M509.1,146.2l-0.1-0.1c-1.8-5.5-7.2-22.4-38.9-37.2c-6.8-3.2-25.1-10.6-48.4-10.6c-0.4,0-0.8,0-1.2,0
			c4.2-3.9,6.8-7.2,8.3-9.7c1.7-2.6,7.2-12.3,7.3-23.8c0.1-8.1-0.5-11.3-0.5-11.3s-3.8,3.6-8.3,6.9c-6.6,4.9-9.8,6.8-14,8.8
			c-11.7,5.3-23,7.7-36.5,7.7c-5.3,0-13.6-0.8-19.5-3.1c-4.6-1.8-10-5.1-17.5-10.7c-13.5-10.1-30.4-22.7-51.4-24.4
			c-3-0.3-5.8-0.4-8.6-0.4c-11.5,0-20.4,2.1-27.5,4.9c1.6-2.6,2.7-5.2,3.7-7.7c2.9-7.5,4.7-15.4,5-22.6L261.8,0l-9.7,8.6
			c-5.9,5.3-10,8.6-14.3,11c-3.7,2.1-11,5.6-18.4,5.6c-5.9,0-15.9-0.9-34.1-8.3l-1.3-0.6C172.4,11.5,159,6,138.7,5.6
			c-0.3,0-0.6,0-0.9,0c-23.4,0-42.9,11.2-52.5,17.9c-6.9,4.8-13,10.3-17.5,15.7c-2.7,3.3-6.1,8.2-7.6,13.1c-1,0.5-1.8,0.8-2.2,1
			c-17.3,8.1-31.3,19.3-41.7,33.1C9,96.3,4.8,106,3.3,111.8l-0.2,0.9c-1.3,5-3.1,11.9-3.1,20.8v11.8l9-7.6c4.5-3.7,10.4-8,15.2-11.5
			c1.6,24.2,9.4,44.3,16.1,57.6c7.2,14.3,16.4,27.3,25.6,36.2c-1.1,5-2.2,12.5-2.6,19.2L62.4,253c0,0,7.5-7.1,10.2-9.4
			c7.3-6.2,20.4-16.1,36.4-24.2c2.6,6.1,5.2,9.1,8.4,11.9c9.7,8.4,25.6,11.2,42.1,11.2c6.7,0,13.3-0.7,19.8-1.9
			c17.6-3.5,30.5-16.1,43-28.3c10.6-10.3,20.6-20.1,30.2-20.5c0.6-0.1,1.1-0.1,1.7-0.1c7.4,0,11.9,2.3,18.7,5.7
			c9.2,4.6,21.7,11,43.5,11c1.8,0,3.5-0.1,5.3-0.1c13.7-0.6,25.7-3.9,37.5-10.4c10.4-5.7,19.3-13.1,28.9-21
			c9.4-7.7,19-15.7,31.6-23.5c7.5-4.6,16-6.9,25.3-6.9c21.8,0,40.7,10.7,46,13.9l0.2,0.1c4.8,3,8.3,5.2,12.1,8.3l8.9,7.2l0.1-11.4
			C511.7,160,510.7,151.6,509.1,146.2z M135,208.2c2.2-0.5,9.3-1.6,11.8-1.7C143,207.7,136.4,208.2,135,208.2z M309.3,131.3
			c-15.2,0-32.5-7-32.1-13.4c0.2-3.6,7.6-4.6,12.2-4.5c6,0.1,10.6,2,17.3,4.7c7.6,3.1,16.8,6.8,30.7,8.8
			C327.5,130,319,131.2,309.3,131.3z"/>
		<g>
			<path class="st1" d="M504,147.9c-1.6-4.8-6.2-20.1-36.1-34c-6.5-3-23.9-10-46.1-10c-6.8,0-13.4,0.7-19.8,2
				c13.7-9,19.8-15.9,22.3-20.1s6.4-12.2,6.5-20.9c-6.6,5.1-10.3,7.2-15,9.4c-10.5,4.8-22.4,8.2-38.8,8.2c-5.6,0-14.7-0.8-21.6-3.5
				c-5.5-2.1-11.5-6-18.8-11.4c-13-9.7-29.1-21.7-48.5-23.3c-2.8-0.2-5.5-0.3-8.1-0.3c-22.7,0-34.3,8.4-42.9,14.6
				c-5.5,4-8.6,6.1-12.5,6.1h-0.2c-2.2-0.1-5.6-1.9-7.1-3.2c1.7-0.8,3.6-1.6,6.7-3c20-8.8,24.1-17.3,27-24.8s4.3-14.7,4.6-20.9
				c-6.4,5.6-10.5,9.1-15.2,11.7s-12.6,6.3-21,6.3c-6.4,0-17.1-0.9-36.1-8.8c-11.7-4.8-24.8-10.6-44.8-10.8c-0.3,0-0.5,0-0.8,0
				c-36.4,0-71,30.4-72.8,44.9c-2.2,0.9-4.6,2.1-4.6,2.1c-38.8,18.1-50.1,47.7-52,55.1c-1.2,4.8-3.2,11.6-3.2,20.3
				c7.8-6.6,19.6-14.4,23.9-17.8c-0.3,27.3,8,50.2,15.8,65.6c8.5,16.9,18.8,29.7,26.9,36.9c-1.3,4-2.7,13.4-3.3,21.4
				c5.5-5.1,36.3-27.3,57.1-33.6c7.8-2.4,20.8-5.3,30.8-5.3c5.8,0,8.6,0.8,9.9,1.4c0.6,0.3,0.8,0.9,0.4,1.4c-1,1.4-3.6,3.5-9.4,5.3
				c-7,2.2-12.6,3.7-23.4,4.7c-2.2,0.2-5.2,0.5-10.3,0.6c-5.5,0.2-7.4,0.2-10.2,0.1c1.2,3.9,2.4,5.8,4.3,8.4c1,1.4,2.3,2.8,3.9,4.1
				c6.9,5.4,22.1,10.2,37.6,10.2c6.3,0,12.6-0.6,18.7-1.8c16-3.2,28.3-15.2,40.2-26.8c11.4-11.1,22.1-21.5,33.8-22.1
				c0.7-0.1,1.3-0.1,2-0.1c8.7,0,14.2,2.8,21.1,6.3c9.2,4.6,20.6,10.4,41,10.4c1.7,0,3.4-0.1,5.1-0.1c28.1-1.2,44.3-14.6,63.1-30
				c9.5-7.9,19.3-15.9,32.2-23.9c8.3-5.2,17.8-7.8,28.2-7.8c25.6,0,46.8,13.4,49.1,14.9c5,3.1,8.7,5.5,12.6,8.8
				C506.5,160.7,505.6,152.8,504,147.9z M309.3,136.5c-1.7,0-3.4-0.1-5.2-0.1c-12.4-0.6-20.8-4.8-25.4-8.3c-5.9-4.5-6.9-7.6-7-9.6
				c-0.3-6.3,5.5-9.8,14.6-10.6c1.1-0.1,2.2-0.2,3.3-0.2c7,0,12.2,2.1,19.2,4.9c8.4,3.4,19,7.7,36.1,9.2c2.1,0.2,4.3,0.3,6.3,0.3
				c4.6,0,9.2-0.4,13.5-1.2C342.5,131.8,328,136.5,309.3,136.5z"/>
		</g>
		<path class="st2" d="M13.6,118.5c0,0,15.7-40.1,56.8-55.7c26.8-10.1,46.2-10.6,54.9-11.4c10.5-1,3.7-12.4-6.3-12.7
			C97.4,38,74.5,54.3,74.5,54.3s24.7-34.8,63.9-34.7c28.7,0.1,41.9,12.3,60,16.3c13.2,3,33.6,5.4,46.5-5.9
			c-2.7,6.1-8,16.5-23.2,21.7c-23.8,8.1-7.2,20.7,3,20.9c17.8,0.3,22.1-23.6,63.1-20.3c27.7,2.2,47.2,25.5,64.5,32.5
			c21.4,8.6,55.2,3.2,68.7-6.3c-3.9,6.7-36,39.1-75.2,35.8c-32-2.7-38.5-15.8-60-14c-16.3,1.4-21.4,10.5-21.9,17.9
			c-0.7,10,13.3,25.3,40.1,26.5c28.3,1.2,46.9-6.8,78.5-23.3c32.7-17,67.2-7.1,82.2-0.2c27.7,12.9,33.3,29.2,33.3,29.2
			s-46.6-32.5-85.6-8.2c-39.1,24.2-52.8,51.1-91.2,52.8c-39.4,1.7-42.8-17.7-69.3-16.5c-28.4,1.3-46.7,43.3-75.3,49
			c-18,3.6-39,1.4-51.6-7.2c16.8,1.3,50-2.5,50.5-17c0.6-16.3-37.2-9.7-52.2-4.7c-25.7,8.6-44.8,25.1-44.8,25.1s1.2-3.7,3.4-7.8
			c-14.6-14-51.6-55.2-43.4-115.1C28.4,105,13.6,118.5,13.6,118.5z"/>
	</g>
	<g>
		<path class="st3" d="M84.1,136.9c10.9-5.5,24.1-11,39.2-15.4c-2.3-16.8-0.5-32.8,3.5-47.2c0.1-0.3,0.2-0.6,0.3-0.8
			c-16.2,1.3-30.7,4.2-43.5,7.8C80.3,97.9,79.5,116.8,84.1,136.9z"/>
		<path class="st3" d="M166.8,113c-16,1.6-30.5,4.6-43.6,8.4c0,0.1,0.1,0.2,0.1,0.3c2.5,17.5,8.1,34.1,15,48.8
			c13.2-5.9,27.6-10.8,37.5-13.3c0.1,0,0.2-0.1,0.2-0.1s0,0,0-0.1C171.5,145.9,168.4,131.6,166.8,113z"/>
		<path class="st3" d="M250.6,119.3c-12.8-3.3-27.1-5.9-43.3-6.9c-0.2,0-0.3,0-0.4,0c-0.3,11.7,0.7,24.8,3.6,39
			c13.4-1.7,23.5-1.8,38.6-1.2c0.2,0,0.3,0.1,0.5,0.1C248.9,139.5,249.4,129.1,250.6,119.3z"/>
		<path class="st3" d="M309.4,146c-1.8,0-3.7-0.1-5.6-0.1c-5.7-0.3-11-1.1-15.9-2.6c-0.6,4.9-1.1,10-1.6,15.3
			c14.6,5,21.9,7.4,40.4,7.2c2-7.8,3-14.4,4-21.9C323,145.7,318.2,146,309.4,146z"/>
		<path class="st3" d="M84.1,136.9c-20.8,10.5-33.7,21-37.5,24.2c1.8,4.7,3.8,9.2,6.2,13.8c9.4,18.3,21.4,31.7,29.8,39.8
			c6.2-9,13.4-17.3,24.3-25.8c-9.6-13.8-17.9-30.7-22.8-51.9V136.9z"/>
		<path class="st3" d="M193.7,193.8c5.6-3,11.6-5.7,17.6-7.5c3.2-1,6.1-1.8,8.9-2.5c-4.5-11.3-7.7-22.1-9.7-32.4
			c-13.1,1.2-25,3.4-34.4,6C180.5,168.2,186.2,181.2,193.7,193.8z"/>
		<path class="st3" d="M253.4,177c0.2,0,0.4,0,0.6,0c10.9,0,17.9,3.6,25.4,7.3c1.8,0.9,3.7,1.9,5.8,2.8c0.1-10.3,0.5-19.7,1.2-28.5
			c-9.8-3.1-19.1-6.7-36.9-8.3C250,159,251.3,168,253.4,177z"/>
		<path class="st3" d="M263,122.9c-0.5-1.7-0.7-3.3-0.6-4.8c0.3-3.4,2.1-13.5,14.9-17.6c-7-3.1-14.4-5.8-21.6-8.3
			c-2.2,8.4-4.1,17.5-5.3,27.1C254.9,120.4,259,121.6,263,122.9z"/>
		<path class="st3" d="M312.4,104.3c7.2,2.9,12,5.1,23.5,7.2c1.1-6.3,1.7-10.2,2.1-16.3c-4.1-1.2-12.7-5.9-18.4-8.4
			c-6.7-2.9-13-5.7-18.8-7.9c-1.6,6.8-3.2,13.5-4.7,20.1C301.8,100,306.8,102.1,312.4,104.3z"/>
		<path class="st3" d="M166.8,112.6c0,0.2,0,0.3,0.1,0.4c12.5-1.2,25.9-1.6,40.1-0.7c0.3-12.8,2-23.9,4-32.7
			c-14.1-3.1-27.5-5-40.1-6.1C167.4,85.4,165.6,98.5,166.8,112.6z"/>
		<path class="st3" d="M170.9,73.5c0.6-2,1.1-3.9,1.8-5.7c2.8-8.2,6.1-15.2,9.6-21.3c-15.3-2.7-28.4-4.3-39.1-5.1
			c-7.1,10.3-13,21.2-16.2,32C140.4,72.3,155,72.2,170.9,73.5z"/>
		<path class="st3" d="M214.7,53.2c1.7-1,3.8-1.9,6.5-2.8c10.8-3.7,16.4-9.9,20.1-16.3c-6.1,3.6-13.7,5.4-22.7,5.4
			c-6.2,0-12.9-0.8-20.5-2.5c-2.8-0.6-5.4-1.4-8-2.4c-2.5,3.4-5.2,7.3-7.7,11.9C192.2,48.3,203.1,50.5,214.7,53.2z"/>
		<path class="st3" d="M176.5,204.4c-0.7,4.5-4.1,7.8-8.9,10.4c3.9,4.2,7.6,7.7,11.2,10.7c9.2-2.6,17.5-9.2,25.5-16.5
			c-3.8-4.9-7.4-10-10.5-15.2C187,197.3,181,201.2,176.5,204.4z"/>
		<path class="st3" d="M107.2,188.6c-0.1,0.1-0.2,0.2-0.3,0.3c2.8,3.9,5.7,7.7,8.6,11.1c2.4-1,4.8-1.9,7.3-2.7
			c6.7-2.3,17.4-4.7,27.3-5.5c-4.1-6.5-8.1-13.6-11.7-21.2C127.1,175.7,118.5,180.1,107.2,188.6z"/>
		<path class="st3" d="M223.3,190.9c5.4-4.7,10.9-8.7,16.9-11.2c-5.1,0.7-11.8,1.9-20,4C221.2,186.1,222.2,188.5,223.3,190.9z"/>
		<path class="st3" d="M333.9,165.2c-2.5,0.3-5,0.5-7.3,0.6c-2.4,9.6-3.8,15.2-7.7,27.9c0.1,0,0.3,0,1.8-0.1
			c14.4-0.6,25.2-4.8,35.2-11.1c2.4-7.7,4.4-15.7,5.9-23.8C353.9,161.7,344.9,163.9,333.9,165.2z"/>
		<path class="st3" d="M38.5,100.7c12.9-8.5,27.1-14.3,45.1-19.4c1.7-8.4,4-16.3,6.7-23.4C84.4,59.4,77.9,61.4,71,64
			c-11.8,4.5-21.4,11-29,17.8c-1.2,5.6-2.3,11.5-3.3,17.5L38.5,100.7z"/>
		<path class="st3" d="M300.6,79.1c1.6-6.8,3.2-13.8,4.9-21.1c-5.6-2.3-11.6-4-18-4.6c-2.5-0.2-5-0.3-7.4-0.3
			c-3.8,0-7.3,0.3-10.4,0.7c-1.8,3.8-3.7,8.1-5.5,12.9C275.9,70.4,288.1,74.5,300.6,79.1z"/>
		<path class="st3" d="M119,37.3c3.6,0.2,6.9,1.6,9.2,3.6c4.2,0,9.2,0.2,14.9,0.6c4.5-6.5,9.4-12.8,14.5-18.6
			c-5.6-1.3-11.9-2.1-19.3-2.1h-0.2c-13.7,0-25.6,4.5-34.9,9.8c-1.8,3.1-3.8,6.6-5.8,10.5c6.3-2.2,13.2-3.8,20.1-3.8
			C118,37.3,118.5,37.3,119,37.3z"/>
		<path class="st3" d="M224.8,73.8h-0.3c-3.6-0.1-7.8-1.5-11-3.7c-0.9,2.8-1.8,6-2.6,9.6c0.2,0.1,0.4,0.1,0.5,0.1
			c9.1,2,26.3,6.3,44.4,12.4c2.5-9.4,5.4-18,8.4-25.4c-5.4-1.7-10.7-3.3-15.8-4.8c-2.1,1.3-3.9,2.7-5.7,3.9
			C237,70.2,232,73.8,224.8,73.8z"/>
	</g>
</g>
</svg>
