<?xml version="1.0" encoding="utf-8"?>
<!-- Generator: Adobe Illustrator 24.0.0, SVG Export Plug-In . SVG Version: 6.00 Build 0)  -->
<svg version="1.1" id="圖層_1" xmlns="http://www.w3.org/2000/svg" xmlns:xlink="http://www.w3.org/1999/xlink" x="0px" y="0px"
	 viewBox="0 0 256 198" style="enable-background:new 0 0 256 198;" xml:space="preserve">
<style type="text/css">
	.st0{fill:#231815;}
	.st1{fill:#F3E4E2;}
	.st2{fill:#FFFFFF;}
	.st3{fill:#D76C62;}
	.st4{fill:#B45950;}
	.st5{fill:#D8695F;}
	.st6{fill:#DE7B6B;}
	.st7{fill:#DE9479;}
	.st8{fill:#DF9579;}
	.st9{fill:none;stroke:#FFFFFF;stroke-width:0.75;stroke-miterlimit:10;}
	.st10{fill:none;stroke:#FFFFFF;stroke-width:0.5;stroke-miterlimit:10;}
	.st11{fill:none;stroke:#FFFFFF;stroke-miterlimit:10;}
	.st12{fill:#D76960;}
	.st13{fill:#D46A5D;}
	.st14{fill:#D46C5F;}
</style>
<g>
	<path class="st0" d="M100,149.6"/>
	<polygon class="st1" points="129,197.7 2.1,102.2 124.3,0 256,102.2 	"/>
	<g>
		<g>
			<path class="st2" d="M191.2,74.7c0,0,21.8-4.4,23.6-3.6l-4.5,3.2l-3.3,0.5l0.4-1.2l-5.6,1.7L191.2,74.7"/>
			<path class="st2" d="M189,70c0,0,21.8-4.4,23.6-3.6l-4.5,3.2l-3.3,0.5l0.4-1.2l-5.6,1.7L189,70"/>
			<path class="st3" d="M181.7,79.2c-2.1-0.1-5.4-1.1-7.5-1.2c-0.1,0-0.1,0-0.2,0c-5-0.2-9.9-0.5-14.9-0.5c-9.7,0-19.6,0.8-29,4.4
				c-4.2,1.6-8.4,3.8-11.9,7c-3.8,3.5-8,9.6-7.7,15.3c0.1,2.3,1.4,4.3,3,5.7c4.6,4.4,11.1,5.4,17,7.7c1.1,0.4,2.4,1.3,2.3,2.6
				c-0.1,0.9-0.7,1.5-1.3,2c-2.1,1.7-4.6,2.8-7,3.8c-8,3.2-16.3,5.6-24.6,7.2c-0.3,0-0.6,0.1-0.7,0.4c-0.1,0.2-0.1,0.3-0.1,0.5
				c-0.1,2.7-1.3,5.1-2.4,7.4c-0.9,1.8-1.9,3.6-3,5.3c-0.4,0.7-1.7,2.4,0,1.6c4.3-2.2,9-3.2,13.5-4.7c4.7-1.6,9.5-3.2,14.1-5
				c5.3-2,10.9-3.6,16.2-5.9c3.9-1.7,11-3,13.3-7.3c1.2-2.1,0.7-5.7-0.5-7.6c-1.2-2-3.1-3.2-5.1-4.1c-4.3-1.9-9-2.2-13.5-3.5
				c-2.1-0.6-5.8-1.6-6.9-4.2c-3.4-8.3,16.8-14.6,21.2-15.7c9.2-2.2,18-3.5,26.7-0.3"/>
			<path class="st4" d="M109,102c0,0-2.8,15.7,16.1,16.3C125.1,118.3,103.1,123.2,109,102z"/>
			<path class="st2" d="M115.8,95.5c0,0-1.3,8.1,5.7,8.9c0,0,0,7.9,7.6,8.2C129,112.5,107.1,113,115.8,95.5z"/>
			<path class="st5" d="M94.3,82.4c0,0,50.9-66.5,123.1-29.9c0,0-76.8-53.5-156.7,26.8"/>
			<path class="st6" d="M198.7,46c0,0-53.9-15.7-101.8,36.5c0,0,6.3,1,9.8,4.5c1.1,1.1,2.1-0.8,2.2-1
				C113.2,79.8,141.4,41.4,198.7,46z"/>
			<path class="st7" d="M112.6,87.3c0,0,42.9-48.5,79-37.2c0,0-34.6-0.6-59,28.4C132.6,78.4,122.6,80.7,112.6,87.3z"/>
			<path class="st8" d="M143,75.8c0.3-0.1,0.8-0.8,1-1c1-0.9,2-1.8,3-2.6c3.5-2.9,7.3-5.5,11.3-7.8c5.4-3.1,11.1-5.6,17.1-7.2
				c2.7-0.8,5.5-1.3,8.4-1.7c1.4-0.2,2.9-0.3,4.3-0.4c1.4-0.1,2.8-0.2,4.2-0.1c0,0.5-0.4,0.9-0.6,1.3c-0.4,0.7-0.8,1.5-1.2,2.2
				c-1.1,2-2.2,4.1-3.3,6.1c-1.7,3.2-3.4,6.4-5.1,9.7c0,0,0,0.1-0.1,0.1C182.1,74.4,165.3,71,143,75.8z"/>
			<path class="st9" d="M124.3,81.7c0,0,31.2-38.1,67.4-31.6"/>
			<g>
				<path class="st2" d="M130.7,67.3c0.9,0.6,1.7,1.4,2.3,2.3c0.3,0.5,0.6,0.9,0.8,1.5c0.2,0.6,0,1.3-0.5,1.8l-0.4-0.6
					c1.6-0.6,3.3-1.2,5-1.5c0.9-0.2,1.7-0.3,2.6-0.3c0.9,0,1.8,0.1,2.6,0.5c-0.8-0.2-1.7-0.2-2.5-0.1c-0.8,0.1-1.7,0.3-2.5,0.5
					c-1.7,0.4-3.3,0.9-4.9,1.5l-1.8,0.6l1.4-1.2c0.3-0.3,0.4-0.7,0.3-1.2c-0.1-0.5-0.3-0.9-0.5-1.4
					C132.1,68.9,131.4,68.1,130.7,67.3z"/>
			</g>
			<g>
				<path class="st2" d="M144,58.2c0.6,0.6,1.2,1.3,1.6,2c0.2,0.4,0.4,0.8,0.5,1.3c0,0.2,0.1,0.5,0,0.8c0,0.1-0.1,0.3-0.2,0.4
					c-0.1,0.1-0.2,0.2-0.3,0.3l-0.2-0.6c1.5-0.2,3-0.3,4.5-0.3c0.7,0,1.5,0,2.2,0.1c0.7,0.1,1.5,0.3,2.2,0.6
					c-0.7-0.2-1.5-0.2-2.2-0.2c-0.7,0-1.5,0-2.2,0.1c-1.5,0.1-2.9,0.2-4.4,0.4l-1.6,0.2l1.4-0.8c0.2-0.1,0.3-0.4,0.3-0.8
					c0-0.4-0.2-0.8-0.3-1.1C144.9,59.7,144.5,59,144,58.2z"/>
			</g>
			<g>
				<path class="st2" d="M156.6,53c0.3,0.5,0.6,1.1,0.6,1.7c0,0.6-0.2,1.3-0.5,1.8l-0.3-0.5c1.3-0.1,2.7-0.1,4,0.2
					c0.7,0.1,1.3,0.3,1.9,0.5c0.6,0.3,1.2,0.6,1.7,1.1c-0.6-0.3-1.2-0.5-1.8-0.6c-0.6-0.1-1.3-0.2-1.9-0.3c-1.3-0.1-2.6-0.2-3.9-0.2
					l-0.7,0l0.4-0.5c0.3-0.4,0.6-0.9,0.6-1.4C156.8,54.1,156.7,53.5,156.6,53z"/>
			</g>
			<g>
				<path class="st2" d="M84.2,53.9c0.4,1.4,0.6,2.8,0.9,4.2c0.2,1.4,0.3,2.8,0.4,4.2c0.1,1.4,0,2.9-0.1,4.3
					c-0.1,1.5-0.4,2.9-0.9,4.4l-2.1-1.7c1.1-0.7,2.2-1.2,3.4-1.8c1.1-0.5,2.3-1,3.5-1.3c2.4-0.8,4.8-1.2,7.3-1.4
					c2.5-0.2,4.9-0.1,7.4,0.3c2.4,0.4,4.8,1.2,6.9,2.2c-2.4-0.2-4.7-0.5-7.1-0.4c-1.2,0-2.3,0.1-3.5,0.1c-0.6,0-1.1,0.1-1.7,0.2
					l-0.9,0.1l-0.9,0.1c-2.3,0.4-4.5,0.9-6.7,1.6c-1.1,0.4-2.2,0.7-3.2,1.2c-1,0.4-2.1,1-3,1.4l-3.7,2l1.6-3.7
					c0.5-1.1,0.8-2.4,1.1-3.7c0.3-1.3,0.4-2.7,0.6-4C83.8,59.6,84,56.8,84.2,53.9z"/>
			</g>
			<g>
				<path class="st2" d="M75.9,78.8c2-2.6,4.2-5,6.4-7.4c2.3-2.3,4.6-4.6,7.1-6.8c4.9-4.3,10.2-8.2,15.8-11.6
					c11.1-6.9,23.5-11.7,36.4-14l2.4-0.4c0.8-0.1,1.6-0.3,2.4-0.3l4.9-0.5c3.3-0.1,6.5-0.4,9.8-0.2c3.3,0,6.5,0.3,9.8,0.6
					c1.6,0.2,3.2,0.5,4.9,0.7l2.4,0.4c0.8,0.1,1.6,0.3,2.4,0.5l4.8,1.1c1.6,0.4,3.1,0.9,4.7,1.3c3.2,0.8,6.2,2,9.3,3.1
					c1.5,0.5,3,1.2,4.5,1.8l4.5,2c2.9,1.4,5.8,2.9,8.7,4.4c-3-1.4-5.9-2.8-8.8-4.2l-4.5-1.8c-1.5-0.6-3-1.2-4.6-1.7
					c-3.1-1-6.1-2.2-9.3-3c-1.6-0.4-3.1-0.9-4.7-1.3l-4.8-1c-0.8-0.2-1.6-0.4-2.4-0.5l-2.4-0.3c-1.6-0.2-3.2-0.5-4.8-0.7
					c-3.2-0.3-6.5-0.6-9.7-0.6c-3.2-0.1-6.5,0.1-9.7,0.3l-4.8,0.5c-0.8,0.1-1.6,0.2-2.4,0.3l-2.4,0.4c-6.4,1.1-12.7,2.8-18.7,5.1
					c-6.1,2.3-11.9,5.2-17.5,8.5C100,57,94.7,60.8,89.7,65c-2.5,2.1-4.9,4.3-7.2,6.6C80.2,73.9,77.9,76.2,75.9,78.8z"/>
			</g>
			<g>
				<path class="st2" d="M97.3,47.4c0.6,0.8,1.2,1.6,1.6,2.5c0.4,0.9,0.8,1.9,1,2.9c0.2,1,0.2,2.1,0,3.2c-0.2,1.1-0.6,2.1-1.2,3
					l-0.9-1.4c2-0.5,3.9-0.8,5.9-1c2-0.2,4-0.3,5.9-0.2c2,0.1,4,0.4,5.9,0.8c1.9,0.5,3.8,1.2,5.5,2.3c-1.9-0.5-3.8-0.9-5.7-1.1
					c-1.9-0.2-3.8-0.2-5.7-0.2c-1.9,0.1-3.8,0.1-5.7,0.4c-1.9,0.2-3.8,0.5-5.7,0.8l-2.2,0.4l1.3-1.8c0.5-0.7,0.9-1.4,1.2-2.3
					c0.2-0.8,0.3-1.7,0.3-2.7C98.6,51.1,98.1,49.2,97.3,47.4z"/>
			</g>
			<g>
				<path class="st2" d="M114.1,40.9c0.3,0.6,0.5,1.3,0.7,2c0.1,0.7,0.3,1.4,0.2,2.1c0,0.7-0.1,1.4-0.4,2.1
					c-0.2,0.7-0.6,1.4-1.1,1.9l-0.3-0.7c3.6-0.5,7.2-0.5,10.8-0.1c0.9,0.1,1.8,0.3,2.7,0.4c0.9,0.2,1.8,0.4,2.6,0.7
					c1.7,0.6,3.4,1.4,4.7,2.7c-1.5-1.1-3.2-1.7-4.9-2.1c-1.7-0.4-3.5-0.7-5.2-0.8c-1.8-0.2-3.5-0.2-5.3-0.2c-1.8,0-3.6,0.1-5.3,0.2
					l-1.1,0.1l0.8-0.8c0.4-0.5,0.8-1,1.1-1.6c0.2-0.6,0.4-1.3,0.5-1.9C114.6,43.6,114.5,42.2,114.1,40.9z"/>
			</g>
			<g>
				<path class="st2" d="M128.6,36.2c0.7,0.9,1.3,1.9,1.5,3.1c0.1,0.6,0.1,1.2-0.1,1.8c-0.2,0.6-0.6,1.1-1.1,1.5l-0.2-0.5
					c1.7-0.3,3.4-0.2,5.2-0.1c1.7,0.1,3.4,0.4,5.1,0.9c1.7,0.4,3.3,1.2,4.7,2c1.5,0.9,2.8,2.1,3.9,3.4c-1.3-1.1-2.6-2.2-4.1-3
					c-0.4-0.2-0.8-0.4-1.1-0.5c-0.4-0.2-0.8-0.4-1.2-0.5c-0.4-0.1-0.8-0.3-1.2-0.4l-1.2-0.3c-3.2-0.8-6.7-1.1-10-0.8l-1,0.1l0.8-0.6
					c0.4-0.3,0.8-0.7,1-1.2c0.2-0.5,0.2-1,0.2-1.6c0-0.5-0.2-1.1-0.4-1.6C129.1,37.2,128.8,36.7,128.6,36.2z"/>
			</g>
			<path class="st10" d="M144.1,33.5c0,0,0.8,3-0.6,4.4c0,0,14.6,0,18.3,3.4"/>
			<path class="st5" d="M77.5,74.8c0,0,2.8,0.4,3.3,0.5c0.5,0.1-5.2,4.5-5.2,4.5L74,78.1L77.5,74.8z"/>
			<path class="st11" d="M102.5,84.9c0,0,29.6-47.2,96.2-38.9"/>
			<g>
				<path class="st2" d="M104.9,72.1c0.6,0.2,1.2,0.6,1.7,0.9c0.5,0.4,1,0.8,1.5,1.4c0.4,0.5,0.8,1.2,0.8,2c0,0.8-0.3,1.5-0.8,2.1
					l-0.6-0.8c0.8-0.4,1.5-0.6,2.3-0.7c0.8-0.1,1.6-0.1,2.4,0c0.8,0.1,1.6,0.5,2.2,0.9c0.7,0.5,1.2,1.1,1.5,1.8
					c-0.6-0.5-1.1-1-1.8-1.3c-0.7-0.3-1.3-0.5-2.1-0.6c-0.7-0.1-1.4,0-2.1,0.1c-0.7,0.1-1.4,0.4-2.1,0.6l-1.7,0.7l1.1-1.5
					c0.3-0.4,0.6-0.9,0.6-1.4c0-0.5-0.2-1.1-0.5-1.6C106.9,73.8,105.9,72.9,104.9,72.1z"/>
			</g>
			<g>
				<path class="st2" d="M114.5,64.2c1,0.5,1.9,1.1,2.6,2c0.3,0.4,0.7,1,0.7,1.7c0,0.7-0.4,1.2-0.8,1.7l-0.3-0.6
					c0.8-0.2,1.5-0.3,2.3-0.4c0.8-0.1,1.6-0.1,2.4,0.1c0.8,0.1,1.6,0.4,2.3,0.7c0.7,0.4,1.3,0.9,1.7,1.6c-0.6-0.5-1.2-0.9-1.9-1.2
					c-0.7-0.3-1.4-0.4-2.2-0.5c-0.7-0.1-1.5,0-2.2,0c-0.7,0.1-1.5,0.2-2.2,0.4l-1.3,0.3l0.9-0.9c0.3-0.3,0.6-0.7,0.6-1.1
					c0-0.4-0.1-0.9-0.4-1.3c-0.3-0.4-0.6-0.8-1-1.2C115.3,64.9,114.9,64.6,114.5,64.2z"/>
			</g>
			<g>
				<path class="st2" d="M128.3,55.2c0.4,0.3,0.7,0.6,1,1c0.3,0.4,0.6,0.8,0.8,1.2c0.2,0.5,0.3,1,0.1,1.5c-0.1,0.5-0.4,1-0.8,1.3
					l-0.3-0.6c0.8-0.2,1.7-0.2,2.5-0.2c0.8,0,1.7,0,2.5,0.2c0.8,0.2,1.7,0.4,2.4,0.9c0.7,0.4,1.3,1.1,1.7,1.8
					c-0.5-0.7-1.2-1.1-1.9-1.5c-0.7-0.4-1.5-0.5-2.3-0.6c-1.6-0.2-3.2-0.2-4.8,0.1l-1,0.1l0.7-0.7c0.3-0.3,0.6-0.6,0.7-1
					c0.1-0.4,0.1-0.8,0-1.2C129.4,56.7,128.9,55.9,128.3,55.2z"/>
			</g>
			<g>
				<path class="st2" d="M139.7,49.8c0.8,0.3,1.6,0.6,2.3,1.2c0.3,0.3,0.7,0.6,0.9,1.1c0.1,0.3,0.1,0.6,0,0.8
					c-0.1,0.3-0.3,0.4-0.5,0.6l-0.1-0.6c1.4,0.3,2.7,0.7,3.9,1.3c0.6,0.3,1.3,0.6,1.8,1.1c0.5,0.4,1.1,1,1.1,1.8
					c-0.2-0.7-0.8-1.1-1.3-1.4c-0.6-0.3-1.2-0.6-1.8-0.8c-0.6-0.2-1.3-0.5-1.9-0.7c-0.6-0.2-1.3-0.4-1.9-0.6l-0.7-0.2l0.6-0.4
					c0.3-0.2,0.4-0.4,0.4-0.7c-0.1-0.3-0.3-0.6-0.6-0.9C141.1,50.8,140.4,50.3,139.7,49.8z"/>
			</g>
			<g>
				<path class="st2" d="M153.1,45c0.5,0.6,0.9,1.3,1.2,2c0.1,0.4,0.3,0.8,0.3,1.2c0,0.2,0,0.5-0.2,0.7c-0.1,0.1-0.2,0.2-0.3,0.3
					c-0.1,0.1-0.2,0.1-0.4,0.2l-0.1-0.7c1.3,0.2,2.6,0.4,3.9,0.8c0.6,0.2,1.3,0.4,1.9,0.7c0.6,0.3,1.2,0.7,1.5,1.3
					c-0.4-0.5-1.1-0.7-1.7-0.9c-0.6-0.2-1.2-0.3-1.9-0.5c-1.3-0.3-2.5-0.5-3.8-0.7l-1.9-0.3l1.8-0.4c0.2,0,0.3-0.2,0.4-0.6
					c0-0.3,0-0.7-0.1-1C153.7,46.4,153.4,45.7,153.1,45z"/>
			</g>
			<polygon class="st2" points="167.5,59.1 170.9,62.3 169.8,57.1 			"/>
			<polygon class="st2" points="154.4,64.4 164.3,68.1 152.3,66.2 			"/>
			<path class="st8" d="M192.4,55c0,0,37.3,3,16.7,19c0,0-18.2,1.3-26.9,0.4"/>
			<polygon class="st2" points="184.3,75.2 152.6,22.6 194.2,76.3 			"/>
			<polygon class="st2" points="193.7,54.2 192.3,61.4 197.2,53.8 			"/>
			<polygon class="st2" points="214.8,60.9 206.1,65.1 217.3,63.3 			"/>
			<path class="st12" d="M42.7,162.6c8.6-2.9,17.2-5.4,25.9-7.7c3.1-0.8,6.3-1.6,9.4-2.3c3-0.7,5.8-1.2,9-2.6
				c0.7-0.3,1.2-0.9,1.7-1.4C81.4,149,74,148,67,145.6c-3.1-1-6.5-2.9-7.1-6.5c-0.7-4.4,3.1-8.1,6.5-10.4
				c12.6-8.3,27.4-12.4,38.2-23.7c3.1-3.2,5.9-7.8,4.7-12.2c-1.1-4-5.1-5.8-8.7-6.9c-12.2-3.6-25-4.7-37.5-6.8S38,74,27.3,66.8
				c4.1,7.3,8.4,15.2,8.3,24.1c0,6.8-2.6,13.4-4.9,19.8c-8.4,22.8-15.5,46.8-30.6,64.6c7.6-2.7,15.4-4.9,23-7.6
				c1.8-0.7,3.8-1.4,5.2-2.9c2.9-3,3.1-7.9,4.5-11.8c1.8-4.7,3.1-9.6,4.6-14.4c3.1-10,6.2-20.1,9.4-30.1c1.1-3.4,2.1-6.8,3.2-10.2
				c0.1-0.4,0.3-0.9,0.7-1.2c0.3-0.2,0.8-0.2,1.1-0.1c13,1.8,26,3.6,39,5.3c-13.2,7-26.3,14.1-39.5,21.1c-1.2,0.7-2.5,1.3-3.4,2.5
				c-0.9,1.1-1.3,2.6-1.7,4.1"/>
			<g>
				<path class="st2" d="M27.6,99c0,0,7.2,3.7,11.1,5.2L36,114.6L24.5,108L27.6,99z"/>
				<path class="st2" d="M44.9,119.9l-8.9-5.3l-1.9,9l10.7,7.1C44.8,130.7,45.4,121.5,44.9,119.9z"/>
				<polygon class="st2" points="34.1,123.6 31.8,134.3 21.2,127.2 24.8,117 				"/>
				<polygon class="st2" points="31.8,134.3 42.1,141.3 41.6,153.2 30.4,142.3 				"/>
				<polygon class="st2" points="30.4,142.3 30.5,165 16.9,146.7 20.2,134.2 				"/>
			</g>
			<path class="st4" d="M76.6,125.1c0,0-22.5,13.6-4.5,18.9c0,0,6.2,2,12.1,1.5C84.2,145.5,56.9,143.2,76.6,125.1z"/>
			<path class="st0" d="M159.8,113.8"/>
			<path class="st2" d="M59.5,78.6c0,0,32.6,5.1,38.7,6.4l-2.5-4.2c0,0-21.7-1.3-38.5-5.2L59.5,78.6z"/>
			<path class="st2" d="M96.3,82.5c0,0,12.5,3.1,13.4,4.4c0.9,1.3-1.3,1.7-1.3,1.7s-4.7-3.4-9.1-3.9l-2.3-1.3L96.3,82.5z"/>
			<polygon class="st4" points="24,129 21.7,135.3 30.4,142.3 			"/>
			<polygon class="st4" points="34.1,123.6 37.4,138.1 31.8,134.3 			"/>
			<polygon class="st4" points="30.4,111.4 34.1,123.6 27.7,119.1 			"/>
			<polygon class="st4" points="30.4,142.6 33,152.1 30.5,160.7 			"/>
			<path class="st4" d="M27.3,66.8L50.5,97c0,0-0.4,0.2-1.2,2.8s-0.1,0.3-0.1,0.3l-13.7-8.9C35.6,91.2,32.1,71.7,27.3,66.8z"/>
			<path class="st4" d="M16.9,146.7l6,21c0,0,3.9-0.7,6.3-4.2L16.9,146.7z"/>
			<path class="st4" d="M47.4,126.6l16.5,29.5c0,0,21.4-5.5,23.2-6.2l1.4-1.1c0,0-10.4-0.3-14.7-1.4c0,0-14.9-1.9-13.9-9.8
				c0,0-6-10.8-2.1-17.8C57.7,119.9,48.6,123.9,47.4,126.6z"/>
			<polygon class="st4" points="47.4,126.6 61.1,156.9 58.8,157.5 47,127.3 			"/>
			<polygon class="st4" points="44.3,148.5 51,159.9 42.7,162.6 			"/>
			<polygon class="st4" points="38.8,104.2 43.4,119 35.6,114.4 			"/>
			<polygon class="st4" points="99.8,133.2 108.4,143.2 119.7,139.2 102.8,132.6 			"/>
			<polygon class="st4" points="105.4,132 122,138.3 124.6,137.3 106.4,131.8 			"/>
			<path class="st4" d="M95.8,143l3.2,3.1c0,0-5.2,1.8-5.9,2.4c0,0-1.2,0.6,0.2-1.4L95.8,143z"/>
			<path class="st4" d="M119.3,88c0,0-2.3,13.8,5.6,13.9c0,0-2.6,5.6,5,7.8c0,0-0.3,6.6,2.3,9c0,0-0.6-1-7.6-3
				c-7-1.9-9.5-4-12.3-6.9c-2.8-2.9-2.9-8.4,1.6-15C113.9,93.8,117.7,88.7,119.3,88z"/>
			<path class="st4" d="M170.7,91.9"/>
			<g>
				<path class="st13" d="M211.8,72.1c0,0-22.1,6.5-24.6,7.9l-6.1,11.6l-7.6,1.5l-11.8,32.5l64.1-17.8l10.2-12l-55.4,15.7l11.8-29
					l12.8-5.4l-10.4,27.4l44.7-11.7l5.4-5l-42.8,11L211.8,72.1z"/>
				<polygon class="st4" points="238,94.9 227.5,108 231.7,106.4 241.5,94.1 				"/>
				<polygon class="st4" points="163.3,110.7 158.8,125.8 154.4,127 164.1,107.3 				"/>
				<polygon class="st2" points="224.5,100.6 222,104.5 227.9,102.8 231.7,98.2 				"/>
				<polygon class="st2" points="217.6,102.8 215.6,106.6 220.7,104.9 223,101 				"/>
				<polygon class="st2" points="213.2,104 210.9,108 214.5,106.8 216.6,103.1 				"/>
				<polygon class="st4" points="173.5,93.1 178,121.1 161.7,125.6 				"/>
				<polygon class="st4" points="200.9,88.4 202.5,97.8 202.2,98.7 202.8,98.5 203.8,102.1 199.5,103.2 194.9,104.4 				"/>
				<polygon class="st4" points="175.3,92.7 181.3,120.2 178.6,120.9 174.6,92.9 				"/>
			</g>
			<path class="st2" d="M138.9,115.2c0,0,14.1,6.2,1.1,12.4C140.1,127.6,159.9,121.2,138.9,115.2z"/>
			<path class="st14" d="M171.2,73.3c0,0,5.4,0.2,6.6,0.5c0,0,3,0.4,3.3,0.4s1.6,0.3,1.9,0.3l0.8,0.1l-4.7-7.9c0,0-7.3,1.7-9.6,6.6"
				/>
			<path class="st14" d="M186.5,66.3c0,0,15.3,0.8,12.5,8.2l-6,0.2L186.5,66.3z"/>
			<path class="st2" d="M167.8,73.6"/>
			<path class="st2" d="M178.5,65.6c0,0-7.2,1.4-10.4,7.6l-2.9,0c0,0,3.2-6.1,13.1-8.1"/>
			<path class="st2" d="M185.3,64.8c0,0,8,0,12.8,3.2s2.4,6.4,2.4,6.4l1.9-0.1c0,0,2.9-6.6-9.2-9.2c0,0-6.2-1-8.3-0.8"/>
			<path class="st3" d="M143,75.8c0,0,6.4-6,11.7-9.2l1.1,0.2c0,0-10.5,7.2-9.7,8.4L143,75.8z"/>
			<path class="st3" d="M156.8,65.3C156.8,65.3,156.9,65.3,156.8,65.3c1.1-0.6,9.6-5.4,11.3-5.6l0.4,0.4l-10.8,5.6"/>
			<polygon class="st3" points="170.2,58.9 173.6,57.7 174.2,58.5 170.3,59.3 			"/>
			<path class="st3" d="M179.2,56.9c0,0,11-2.2,14.3-1.6l0-0.2c0,0-6.2-0.5-14.7,1.2L179.2,56.9z"/>
			<path class="st3" d="M196.1,55.6c0,0,16.6,3.4,15.9,6.6l1.5-0.8c0,0-1.6-1.6-4.8-3c-3.2-1.3-8.8-2.7-12.5-3.1L196.1,55.6z"/>
			<g>
				<path class="st2" d="M176.6,75.1c0.8-1.8,2.3-3.3,4.2-4.1c0.9-0.4,1.9-0.7,2.9-0.8c1-0.1,2-0.1,3,0c2,0.2,4,0.6,5.8,1.5
					c0.9,0.5,1.8,1,2.4,1.9c0.3,0.4,0.5,1,0.4,1.5c0,0.3-0.2,0.5-0.3,0.7c-0.1,0.2-0.3,0.4-0.5,0.5c0.3-0.4,0.6-0.8,0.5-1.3
					c0-0.4-0.2-0.8-0.5-1.2c-0.6-0.7-1.5-1.1-2.3-1.5c-1.8-0.7-3.6-1.1-5.5-1.2c-1.9-0.2-3.8-0.1-5.5,0.6
					C179.3,72.4,177.7,73.6,176.6,75.1z"/>
			</g>
			<path class="st4" d="M75.9,78.9c0,0,9.4-15.7,33.2-11.5L95.8,80.8C95.8,80.8,76.7,79.5,75.9,78.9z"/>
			<path class="st4" d="M84.6,68.7l1-0.4c0,0,8.3-8.1,11.5-9.7c0,0,2.9-2.8,1.3-8.3l-9.8,5.9C88.6,56.1,88.9,64.4,84.6,68.7z"/>
			<path class="st4" d="M99.3,57.3c0,0,25.7-6.6,33.9-5.9l-13.1,7.8C120.1,59.1,116.2,55.3,99.3,57.3z"/>
			<path class="st4" d="M113.9,48.3c0,0,8.1-5.3,9.4-8.6l-8.7,3C114.6,42.7,115.7,45.3,113.9,48.3z"/>
			<path class="st4" d="M132.6,41.9c0,0,16.5-3.8,19.2-3.3c0,0,7.9,0.4,10.6,3.6C162.4,42.2,140.7,41.1,132.6,41.9z"/>
			<path class="st4" d="M150.6,35.1c0,0,9.7,0.2,11.1,2.6l-1.6-2.6C160.1,35.1,155.3,34.8,150.6,35.1z"/>
			<path class="st4" d="M173.4,36.3c0,0,26.3,7.1,31.6,10.7c0,0-1.8-2.1-2.7-2.5C202.3,44.6,189.3,38.7,173.4,36.3z"/>
			<path class="st4" d="M102.6,84.2l5.3-6.8c0,0,1.3-1.8-1.7-4.2l-4.6,4.3l-4.7,4.9C96.9,82.5,101.5,83.6,102.6,84.2z"/>
			<path class="st4" d="M108.8,77.5c0,0,10.6-7.3,14.8-7.8c0,0-1.5-1.3-6.7-0.4C116.9,69.4,109.1,76.6,108.8,77.5z"/>
			<path class="st4" d="M129.3,56.7c0,0,1,1.9-0.1,2.9l-8.5,5.9c0,0,2.9-4.7,2-4.9L129.3,56.7z"/>
			<path class="st4" d="M130.4,59.6c0,0,10.1-5.6,11.9-6.1c0,0,3.6,1,4,1.4l-5.9,3C140.5,57.9,135.8,57.7,130.4,59.6z"/>
			<path class="st4" d="M153.8,47c0,0,0,0.7-3.1,2.6l3.2-1C153.9,48.7,154.3,48.3,153.8,47z"/>
			<path class="st4" d="M155.1,49.1c0,0,8.4-0.5,12.7-1.3L159,50C159,50,156.2,49.1,155.1,49.1z"/>
			<path class="st4" d="M170.8,46.1l14.5-0.4c0,0-10.9,0.7-13.7,1.4L170.8,46.1z"/>
			<path class="st4" d="M125.7,80.6c0,0,5.2-6,7.7-7.9c0,0,5.4-1.8,6.3-1.6l-7.1,7.4L125.7,80.6z"/>
			<path class="st4" d="M135.1,67c0,0,0.4,2.8-1.4,4.6c0,0,11.1-9.1,11.8-9.3c0,0,0.3-0.7-0.5-2.1L135.1,67z"/>
			<path class="st4" d="M156.5,56.5l-5.4,3.1c0,0,3.5-0.8,3.5,0.1c-0.1,0.8-1.4,1.6-1.4,1.6s7.9-4.4,8.5-4.3
				C161.6,56.9,158.4,56.4,156.5,56.5z"/>
			<path class="st4" d="M161.7,52l8-1l-0.7-1.2C169,49.8,163.4,51.3,161.7,52z"/>
			<path class="st4" d="M174.2,50.5l1.4,1.8c0,0,8.4-2,14.6-2.1c0,0-5.7-0.9-11-0.4C179.2,49.8,175.3,50.2,174.2,50.5z"/>
			<path class="st4" d="M155.6,67.5l8,1.1l-13.5,3C150.1,71.6,154.7,67.4,155.6,67.5z"/>
			<path class="st4" d="M162.1,64.7l5.5-3.4l2.7,1.9C170.3,63.2,166.4,63,162.1,64.7z"/>
			<path class="st4" d="M180.8,57.5c0,0,5.8-1.5,11.2-1.6l-5,2.5C186.9,58.4,184.8,57.3,180.8,57.5z"/>
			<path class="st4" d="M196.7,56.9c0,0,12.1,1.8,14.1,4.6c-0.6,0-1.1,0.1-1.7,0.1c-0.8,0.1-2,0.4-2.7,0c-0.2-0.1-0.4-0.2-0.6-0.4
				c-1.6-1.2-3.2-2.4-5.2-3.1C199.3,57.7,198,57.3,196.7,56.9z"/>
			<path class="st4" d="M208.2,65.5c0,0,4.7-0.2,6.1-1.1c0,0-0.7,5-2.7,6.8s0,0,0,0l0,0C211.7,71.2,212.4,66.6,208.2,65.5z"/>
		</g>
		<path class="st2" d="M191.2,74.7c0,0,21.8-4.4,23.6-3.6l-4.5,3.2l-3.3,0.5l0.4-1.2l-5.6,1.7L191.2,74.7"/>
	</g>
</g>
</svg>
