<svg xmlns="http://www.w3.org/2000/svg" xmlns:xlink="http://www.w3.org/1999/xlink" viewBox="0 0 425.69 140.59"><defs><style>.aa7ff649-a44a-416a-8ecb-51cdebe5a900{fill:none;}.eed501af-454e-4abc-a78e-5fabae58d2d2{clip-path:url(#ecb6e8c7-51e3-421d-a76f-d839f1819ffe);}.a8bdee9f-53e6-4754-ac00-006bb2726a9c,.baf50dd6-cca4-48d7-9ea7-4182a7bc4741{opacity:0.65;}.a8bdee9f-53e6-4754-ac00-006bb2726a9c{fill:#ffce31;isolation:isolate;}</style><clipPath id="ecb6e8c7-51e3-421d-a76f-d839f1819ffe"><rect class="aa7ff649-a44a-416a-8ecb-51cdebe5a900" width="425.69" height="140.59"/></clipPath></defs><title>資產 1</title><g id="fa1c8eac-e36d-4bf1-b7d0-29df713cb0b2" data-name="圖層 2"><g id="a4f913fa-674a-40a6-974c-21db1ba3cb18" data-name="圖層 1"><g class="eed501af-454e-4abc-a78e-5fabae58d2d2"><g class="baf50dd6-cca4-48d7-9ea7-4182a7bc4741"><path class="a8bdee9f-53e6-4754-ac00-006bb2726a9c" d="M100.09,45.91h-50L74.7,0h50Z"/><path class="a8bdee9f-53e6-4754-ac00-006bb2726a9c" d="M200.41,45.91h-50L175,0h50Z"/><path class="a8bdee9f-53e6-4754-ac00-006bb2726a9c" d="M300.72,45.91h-50L275.34,0h50Z"/><path class="a8bdee9f-53e6-4754-ac00-006bb2726a9c" d="M401,45.91H351L375.65,0h50Z"/><path class="a8bdee9f-53e6-4754-ac00-006bb2726a9c" d="M150.25,45.91h-50l-25,47.35h50Z"/><path class="a8bdee9f-53e6-4754-ac00-006bb2726a9c" d="M250.57,45.91h-50l-25,47.35h50Z"/><path class="a8bdee9f-53e6-4754-ac00-006bb2726a9c" d="M350.87,45.91h-50l-25,47.35h50.07Z"/><path class="a8bdee9f-53e6-4754-ac00-006bb2726a9c" d="M50,140.59H0L25,93.26h50Z"/><path class="a8bdee9f-53e6-4754-ac00-006bb2726a9c" d="M150.35,140.59h-50l25-47.33h50.05Z"/><path class="a8bdee9f-53e6-4754-ac00-006bb2726a9c" d="M250.67,140.59h-50l25-47.33h50Z"/><path class="a8bdee9f-53e6-4754-ac00-006bb2726a9c" d="M351,140.59H301l25-47.33h50Z"/></g></g></g></g></svg>