<svg xmlns="http://www.w3.org/2000/svg" viewBox="0 0 512.03 214.2"><defs><style>.a{fill:#fff;}.b{fill:#f26522;}.c{fill:#f7941e;}.d{fill:#fff200;}.e{fill:#1a1a1a;}.f{fill:#2e2e2f;}.g{fill:#6d6e71;}.h{fill:none;}.i{fill:gray;}</style></defs><title>hot-tire</title><path d="M204.33,196c-1.8-1.8-5.4-2.8-10.3-2.8-1,0-2.1,0-3.2.1-4.3.3-13.1,1.7-22.5,3.1-10.7,1.6-21.7,3.3-28.6,3.9-14.8,5.3-33.1,8.3-51.6,8.3-22.1,0-42.2-4.2-55.4-11.6-26.4-14-38.1-49.6-30.4-93,.1-.4.1-.9.2-1.3l.9-4.2h.1c10.4-41.1,35.3-74.3,65.6-87.4,15.5-7,37-11.1,58.8-11.1,22.1,0,42.2,4.2,55.4,11.6a45.29,45.29,0,0,1,11,8.1c9.7-4.8,23.5-10,38.7-10,1.6,0,3.3,0,4.9.1a63.2,63.2,0,0,1,39.8,17.5c8.3,7.9,21.9,8.7,27.4,8.7,1.9,0,3.1-.1,3.1-.1l28.1-2.5-22.5,17.1-2.3,1.7c2,.7,4,1.5,6.1,2.4,4.1,1.8,8.5,3.3,13,2.8,27-2.8,41.4-20.7,41.4-20.7l-.4,17.6c0,1-.7,21.5-13.8,31,.8.1,1.7.3,2.7.4,3,.3,6.1.4,9.1.4,13.1,0,24.3-2.7,35.2-5.3,11.1-2.6,21.6-5.1,33.6-5.1,13.5,0,37.1,8.2,49.2,15.5L512,106l-28.7.2c-.3,0-34,.5-52,16.1a102.07,102.07,0,0,1-33.1,19.3l-9.8,9c-10.5,9.6-32.5,19.5-51.2,19.5h-1.6c-19.6-.5-29.8-4.7-38.8-8.4a77.07,77.07,0,0,0-8.6-3.2l-9.1,8.2a77.81,77.81,0,0,1-46.8,17.6c-.7,6.4-3.5,16.9-14.5,22.9l-12.8,7C204.93,213.5,208.53,200.2,204.33,196Z"/><path class="a" d="M485.23,94.4c-11.4-6.9-34.4-15-47.1-15-11.5,0-21.8,2.4-32.6,5-11.1,2.7-22.6,5.4-36.2,5.4-3.1,0-6.3-.1-9.5-.4-7.1-.7-10.8-2.9-12.3-4.3.2-.1.3-.1.5-.2,18.3-4.5,19.2-30,19.2-31.1l.2-8.8s-12.7,13.4-37.1,16.1c-5.1.6-10.1-1.1-14.7-3.1a60.48,60.48,0,0,0-14.9-4.5,71.79,71.79,0,0,0,10.4-6.5l11.3-8.5-14,1.3s-1.3.1-3.4.1c-6,0-20.9-1-30.2-9.8a59.53,59.53,0,0,0-37.2-16.4c-1.5-.1-3.1-.1-4.7-.1-16.2,0-30.8,6.2-39.5,10.9a44.23,44.23,0,0,0-12.1-9.5c-12.5-7-32-11.1-53.4-11.1s-42.1,4-57.2,10.8c-29.8,12.9-54.4,46.7-64,87.9-.1.3-.1.5-.2.8v.1h0c-.1.3-.1.7-.2,1-7.4,41.7,3.5,75.7,28.4,88.9,12.5,7,32,11.1,53.4,11.1,18.3,0,36.3-2.9,50.8-8.2,6.8-.5,18-2.3,28.9-3.9,9.5-1.4,18.4-2.8,22.8-3.1,1.2-.1,2.4-.1,3.5-.1,6,0,10.7,1.3,13.2,4,3.7,4.1,2.2,13.3,2.2,13.3l6.4-3.5c9.8-5.4,12.7-15.7,12.6-23.4h1.9a73.57,73.57,0,0,0,46.1-16.6l8.9-8-12,.9s-.9.1-2.3.1a21.43,21.43,0,0,1-8.1-1.2,39.09,39.09,0,0,1,8.6-2,52.88,52.88,0,0,1,6.6-.4c8.5,0,13.6,2.1,20.1,4.8,8.7,3.6,18.5,7.7,37.4,8.1h1.5c17.5,0,38.8-9.5,48.5-18.4l7.7-7.1h-6.7c8.1-1.6,25.1-6.7,42-21.3,19.2-16.7,54.3-17,54.6-17l14.4-.1Z"/><path d="M190.23,185.3c-10.7.8-45.5,7.2-55.1,7.2a88.93,88.93,0,0,1-10.3-.6c-40.7-5.1-38-43.6-37.1-56.1,2.2-31.3,23.4-77.6,50.3-93.9,18.1-11,34.7-13.4,45.4-13.4,5.6,0,5.1,1.9,7.2,2.3,4.2-2.6,22.1-13.1,42.2-13.1,1.5,0,3,0,4.4.1a55.25,55.25,0,0,1,34.7,15.3c13.7,13,36.8,10.8,36.8,10.8-13.8,10.5-31.9,14.8-49,15.1-.9,0-5.5.1-8.3-2.3a4.91,4.91,0,0,1-1.3-3.9c-1.1.5-2.7,1.2-4.8,2.3-1.5.8-1.4,1.4-1.3,1.7.3,2.6,5.8,7.3,12.8,7.3a10.87,10.87,0,0,0,1.8-.1,64.68,64.68,0,0,0,10.3-2.6c6.8-2.1,14.4-4.4,23.4-4.4A52.56,52.56,0,0,1,314,61.8a39.46,39.46,0,0,0,16.3,3.5c11.5,0,28.8-8.1,32.8-11.4,0,0-.6,23.4-16.1,27.2-2.7.7-4.3,2.3-4.3,3.7-.1,2.4,4.9,7.6,16.6,8.7,3.3.3,6.6.5,9.9.5,14,0,25.8-2.8,37.1-5.5,10.6-2.5,20.6-4.9,31.7-4.9,11.7,0,34.1,7.8,45,14.4,0,0-36.6.2-57.3,18-22.1,19.2-44.5,21.1-44.5,21.1,1.9-2,9.9-12.5.3-12.4-7.6,0-24.8,3-24.6,12.7.1,7.1,25.8,7,25.8,7-9.3,8.5-29.6,17.3-45.7,17.3h-1.3c-18.1-.4-27.6-4.4-35.9-7.8-6.7-2.8-12.4-5.1-21.7-5.1a59.62,59.62,0,0,0-7.1.4c-5.8.6-14.7,3.1-13.8,6,2,6.4,16.3,5.2,16.3,5.2a69.67,69.67,0,0,1-43.4,15.5,47.27,47.27,0,0,1-6.5-.4c1.5,5.9.7,18.5-9.9,24.2C213.83,199.3,214.63,183.4,190.23,185.3Z"/><path class="b" d="M194.33,181.1c17.9,0,20.7,8.5,21.1,12.1,9.5-10,2.6-21.6,2.5-21.8a.78.78,0,0,1,.1-.8,1,1,0,0,1,.9-.3,53.79,53.79,0,0,0,11.4,1.2,64.1,64.1,0,0,0,32.5-9.4c-8-.2-13.5-3.4-13-7.6.5-4.7,8.4-8.3,21-9.7a66.29,66.29,0,0,1,7.5-.4c10.1,0,16.5,2.6,23.2,5.4,8,3.3,17.1,7.1,34.5,7.5,15.7.4,32-7.7,37.7-10.9-16.6-.5-20.4-5.2-20.6-9.1-.3-5.5,6.1-11.2,10.6-13.1s12.5-3.2,19.2-3.2c3.8,0,8.5.4,9.1,2.5.8,2.6-2.6,6.7-5,9.2a121.28,121.28,0,0,0,36.4-20.1C439.63,99.5,463,96.2,471,95.4c-11.3-5.4-21.8-7.9-32.8-7.9-10.6,0-20.4,2.3-30.7,4.8-11.6,2.8-23.6,5.6-38.1,5.6-3.4,0-6.8-.2-10.2-.5-13.4-1.2-20.4-7.5-20.3-12.8.1-3.2,2.6-5.9,7-7.4,9.1-3.2,12-12.7,12.9-17-4.6,3.7-15.6,9-28.2,9a42.88,42.88,0,0,1-18-3.9,48.14,48.14,0,0,0-20.1-4.5c-8.4,0-15.8,2.2-22.2,4.2a66.42,66.42,0,0,1-10.9,2.7,17.7,17.7,0,0,1-2.3.1c-8.7,0-16.2-5.8-16.9-10.8-.3-2.4.9-4.5,3.5-5.8,5-2.6,7.8-3.7,9.3-3.7,2.1,0,1.8,1.9,1.6,3.3-.3,2-.6,3.8,2.7,3.9a102.37,102.37,0,0,0,42-7.9,24.84,24.84,0,0,1-3.8.2c-10.3,0-17.8-5.3-25.7-10.9-8.6-6.1-17.6-12.4-31.4-13.2-1.4-.1-2.8-.1-4.2-.1-22.3,0-39.9,11.3-40,11.4a7.42,7.42,0,0,1-2.5-.5c-.1,0-21.4-7-51.4,11.2-25.9,16-46.3,60.7-48.5,91-1.4,20.4.5,47.8,33.5,51.9a80.56,80.56,0,0,0,9.8.6c9.1,0,17.6-1.6,26.5-3.2a240.76,240.76,0,0,1,28.3-4C191.43,181.2,192.93,181.1,194.33,181.1Z"/><path class="c" d="M103.13,112.6s-13.3,50.2,9.7,62.7c20.9,11.4,46.7,8.9,67.1-.6s18.8-20.4,34.9-20.4c13.7,0,8.8,8.4,23.6,7.3,0,0-11.6-2.7-7.9-9s-3.6-9.5-7.3-8.8c0,0,7.1-1.4,10.4-.1,0,0-3.7-4.2-8.3-4.6,0,0,9.3-2.2,23.7-.9,12,1.1,17.5-10.4,13.8-14.3,0,0,8.7-2.6,15.5,3.6,0,0-2.7-8.8,1.9-9.7,6.1-1.2,22.8-.4,23.5,11.4,0,0,2.8-3.8,1.6-6.8,0,0,6.3,3.5,11.1,1.4s8.4-2.7,16.4-2.1,16.1-5.6,16.4-10.9c0,0-8.6,15.1-38.5,1.1-10.1-4.7-13.5-13.5-41.9-8.2,0,0,4.7-5.1,14.8-4.3,12.5.9,23.3-11.3,23.3-11.3s-17.3,7.1-23.1,3.3c0,0-2.6-2.7,3.2-2.1,0,0-1.4-2.9-6.1-1.7s-9.5-3.6-4.6-7.1c0,0-12.5-4.1-22.3,3.8s-16.4,7.1-19.6-3.3,3.3-21.6-16.6-33c0,0,4.4-1.5,6.6-10.8,1-4.2,11.8-7.9,11.8-7.9s-12.7-2.3-19.6,4.5c-3.8,3.8-14.8,10.8-23.1,2.6,0,0-13.9-.4-43,12.3C123.23,60.9,106.73,99.3,103.13,112.6Z"/><path class="d" d="M140.63,180.2c-10.3,0-19.4-2.1-27.1-6.3-21.6-11.8-9-60.4-8.9-60.9,4.2-15.7,21.2-51.6,46.5-62.5,11.2-4.9,21.9-7.3,31.8-7.3,8.6,0,13.3,1.9,13.4,2l1.9-2.5a4.88,4.88,0,0,1-.3-.7,13.51,13.51,0,0,0,7,2c6.5,0,11.8-4.7,13.2-6.1a19.07,19.07,0,0,1,7.3-4.4c-1.3,1.1-2.9,1.4-4.3,4.9-3.8,9.8-9.5,8.8-9.5,8.8,14.3,8.2,17.3,18.8,18.3,27.2a38,38,0,0,0,1.5,8.3c2,6.7,6.4,10.6,11.9,10.6,3.8,0,7.9-1.8,12.1-5.2a24.69,24.69,0,0,1,14.5-5.6,4.12,4.12,0,0,1,1.2.1c-1.9,1.5-1.9,2.9-1.6,3.9.8,2.5,4.9,3.4,8.2,3.4a12.48,12.48,0,0,0,3.5-.4,1.27,1.27,0,0,1,.6-.1.35.35,0,0,1-.1.2,3.28,3.28,0,0,0,.8,3.3l.3.2a10.94,10.94,0,0,0,5.9,1.4,33.09,33.09,0,0,0,6.8-.8c-3.8,2-8.2,3.6-11.9,3.6a8.52,8.52,0,0,1-2.3-.3,13.42,13.42,0,0,0-3.5-.4C269,96.7,262,107,262,107c8-3,17.4-3,22.4-3,11.3,0,15,4.1,20.3,7.9,1.3.9,9.2,6,17.8,7.5,0,0-6.5,3-7.1,3.2a10.8,10.8,0,0,1-2.8.5,15.06,15.06,0,0,1-8.7-2.2c.2.4.7,3.2-.3,3.9-4.2-9.1-16.9-9.6-22.9-9.1-1.3.1-7.7,0-5.1,8.6-7.9-6.1-18.6-2.1-18.6-2.1s9.5,14.8-12.7,13c-10.8-.9-30.3,4.6-30.7,4.7,0,0,12.2.5,13.9,2.1-2.7.2-7.2,2.6-7.3,2.6s6.4-.4,7.9,3.3a4.58,4.58,0,0,1-.5,4.3,5.28,5.28,0,0,0-.4,5.1,4.05,4.05,0,0,0,.5.9c-.4-.3-.7-.6-1.1-.9-2.3-2-5-4.2-12.1-4.2-9.7,0-12.9,2.9-17.4,7a58.63,58.63,0,0,1-16.3,11c-13,5.7-27.3,9.1-40.2,9.1Z"/><path d="M88.13,200.4c-20.7,0-39.4-3.9-51.4-10.6C13.33,177.4,3.23,145,10.33,105c0-.2.1-.5.1-.7a1,1,0,0,0,.1-.3,4.33,4.33,0,0,1,.1-.5c9.3-40.1,33-72.7,61.7-85.1,14.6-6.4,34.9-10.3,55.6-10.3s39.4,3.8,51.4,10.6c23.4,12.4,29.4,44.9,22.3,84.8,0,.2-.1.5-.1.7a1,1,0,0,0-.1.3v.1a1.85,1.85,0,0,1-.2.7c-9.4,40-28.9,72.4-57.5,84.8C129.13,196.6,108.83,200.4,88.13,200.4Z"/><path class="e" d="M195.53,104.3a.37.37,0,0,1,.1-.3h0c6.8-37.5,1.9-68.9-20.1-80.5-10.8-6-28.3-9.9-48.8-9.9s-39.6,3.9-52.8,9.9C47.23,35,25.13,66.4,16.43,104h0a24725056409677.36,24725056409677.36,0,0,0-.2.6h0c-6.8,37.5,2.3,68.9,24.2,80.5,10.8,6,28.3,9.9,48.8,9.9s39.6-3.9,52.8-9.9c26.7-11.6,44.7-43.1,53.4-80.5h0A.37.37,0,0,0,195.53,104.3Z"/><path class="f" d="M115.63,166.5c-27.4,0-62.8-1-90.7-12.3,4,13.8,11.4,24.3,21.9,30,10.3,5.9,27,9.7,46.5,9.7s37.8-3.8,50.4-9.7c14.2-6.3,25.8-18.6,34.7-34.5C158.63,158.9,138.53,166.5,115.63,166.5Z"/><path class="f" d="M129.33,187.6c-29.8,0-45.5-36.6-35.9-83.3S134,21,163.73,21s40.7,36.6,31.1,83.3S159.13,187.6,129.33,187.6ZM145.53,41c-12.1,0-31,26-38.7,63.3s.4,63.3,12.6,63.3,31-26,38.7-63.3S157.73,41,145.53,41Z"/><path d="M131.63,180.2c-25.5,0-38.6-33.4-29.8-75.9s35.7-75.9,61.2-75.9,34.5,33.4,25.7,75.9C179.93,147,157.13,180.2,131.63,180.2Zm15.6-133.6c-10.4,0-26.9,23.7-33.9,57.7s-.4,57.7,10,57.7,26.9-23.7,33.9-57.7S157.63,46.6,147.23,46.6Z"/><path class="g" d="M162.43,31.5c-23.3,0-48.9,32.6-57.2,72.8s3.8,72.8,27.1,72.8,44.8-32.6,53.1-72.8S185.73,31.5,162.43,31.5Zm-39.8,133.6c-14,0-19.7-27.2-12.7-60.9s23.9-60.9,37.9-60.9,19.7,27.2,12.7,60.9S136.63,165.1,122.63,165.1Z"/><path d="M146.63,40.2c-16.1,0-35.1,28.7-42.4,64.1s-.2,64.1,15.9,64.1,35.1-28.7,42.4-64.1S162.73,40.2,146.63,40.2Z"/><path class="h" d="M122.83,90.1c17.7-30.3,47-49.7,52.6-53.2-2.5-2.9-6.7-4-12.5-3.3a31.86,31.86,0,0,0-7.4,1.8c-23.8,18.5-38.4,45.8-43.6,56.7a17.5,17.5,0,0,1,7.3-2.4A10.49,10.49,0,0,1,122.83,90.1Z"/><path class="h" d="M123.23,116.3c-.1.1-.1.2-.2.3,2.3,2.8,21.2,24.1,46.9,30.3l7.8-17.1c-6.1-1.2-36.4-6.4-50.9-20.2A22.56,22.56,0,0,1,123.23,116.3Z"/><path class="h" d="M128.73,102.9c22-16.9,52.9-27.4,58.9-29.4l-.8-12.5c-28.9,10.7-53.5,31.3-58.5,35.6A16.11,16.11,0,0,1,128.73,102.9Z"/><path class="h" d="M111.83,124h-.4a8.22,8.22,0,0,1-5.8-1.5,11,11,0,0,1-1.1-1c-.2,9.1.8,37.1,17.3,53,1,.2,7.5,3.6,11.8,3,4.9-.6,8.6-.9,12.2-4-4.5-3-27.3-22.2-30.8-50.4A10.33,10.33,0,0,1,111.83,124Z"/><path class="i" d="M126.43,107.6a10.93,10.93,0,0,0,.5-1.7.37.37,0,0,1,.1-.3c24.3-20,62.1-31.6,62.1-31.6l-.9-14.5c-31,10.9-57.2,33.4-61.2,36.9a8.7,8.7,0,0,0-3.5-4.9c19.4-34.4,53.8-54.4,53.8-54.4-6.2-8.7-22.4-2.4-22.4-2.4-28.7,22-44,56.5-46.1,61.5-2.5,3-4,7.6-5,11.7-1.2,5-.7,9.4,1.2,12.1a10.48,10.48,0,0,1-1.7-1.4s-2.9,37.2,17.6,56.6c10.2,5.1,18.9,3.1,26.8-2.1,0,0-28.2-19.3-31.5-51.8a21.22,21.22,0,0,0,5.7-5.2l-.3.6s19.8,24.9,49.1,31.4l8.9-19C179.53,129.3,141.93,124.2,126.43,107.6Z"/><path d="M128.23,105.9c20-7,60.8-30.9,61.2-31l1-.3-1-16.5-1.7.6c-28.2,10-52.7,29.5-60.1,35.8a8.19,8.19,0,0,0-2.6-3.2h0c25.3-26.8,52.6-53.3,53-53.5l.9-.6-.5-.7c-2.9-4-8.2-7-15.5-6.1-4.7.6-6.5.9-6.7.9l-.4.2c-28.6,21.9-46.1,58.9-48.3,64.2-2.1,2.6-3.8,6.4-5.1,12a22.67,22.67,0,0,0-.4,8.5l-.2,2.4c-.1,1.5-2.7,37.8,17.9,57.2l.2.2.3.1c.2.1,7.6,3.9,13.5,3.2,6.1-.8,10.7-1.6,15-5.6l.8-.8-.9-.5c-.3-.1-27.6-19.3-31-50.8a18.48,18.48,0,0,0,3.7-3.2c4,4.7,12.4,28.5,48.8,30.6l1.3.3,9.9-20.9-1.3-.2c-.3-.1-37-5.2-52.2-21.1a5.48,5.48,0,0,0,.4-1.2Zm59.2-45.2,1.1,12.6c-6,2-37.7,12.9-59.7,29.6a18.27,18.27,0,0,0-.4-6.3C133.33,92.3,158.53,71.3,187.43,60.7ZM157,33.9a24.38,24.38,0,0,1,8-1.1c5.6.3,8.8,1.9,10.5,4.2-5.7,3.5-35,22.8-52.6,53.2a8.52,8.52,0,0,0-3.6-.4,17,17,0,0,0-7.3,2.4C117.13,81.1,133.23,52.4,157,33.9Zm-11.1,139.7c-3.7,3.2-8.3,3.6-12.3,3.9a17.66,17.66,0,0,1-11.8-3c-16.5-15.9-17.5-43.8-17.3-53a10,10,0,0,0,1.1,1,8.22,8.22,0,0,0,5.8,1.5h.4a11.72,11.72,0,0,0,3.2-.9C118.53,151.2,141.43,170.6,145.93,173.6Zm31.9-43.6L170,147.1c-25.7-6.2-44.6-27.6-46.9-30.3.1-.1.1-.2.2-.3A27.46,27.46,0,0,0,127,110C141.43,123.7,171.63,128.9,177.83,130Zm-52.9-23.9c-1.8,7.4-7.5,13.9-12.8,14.3s-8.1-5.2-6.3-12.7c.8-3.5,2.1-7.2,4.2-9.7a13.18,13.18,0,0,1,8.7-4.6C123.83,93,126.73,98.7,124.93,106.1Z"/></svg>