<?xml version="1.0" encoding="utf-8"?>
<!-- Generator: Adobe Illustrator 24.0.0, SVG Export Plug-In . SVG Version: 6.00 Build 0)  -->
<svg version="1.1" id="圖層_1" xmlns="http://www.w3.org/2000/svg" xmlns:xlink="http://www.w3.org/1999/xlink" x="0px" y="0px"
	 viewBox="0 0 512 512" style="enable-background:new 0 0 512 512;" xml:space="preserve">
<title>speed</title>
<path d="M256,482.8c-16.5,0.1-32.2-6.5-43.8-18.2l-89.5-89.5c-17.8-17.7-23.1-44.4-13.4-67.6v-0.1H81.6c-45,0-81.6-36.6-81.6-81.6
	v-115c0-45,36.6-81.6,81.6-81.6h348.8c45,0,81.6,36.6,81.6,81.6v115.1c0,45-36.6,81.6-81.6,81.6h-27.7v0.1
	c9.6,23.2,4.4,49.9-13.4,67.6l-89.5,89.5C288.2,476.3,272.4,482.8,256,482.8z"/>
<path style="fill:#FFFFFF;" d="M256,471.5c-13.5,0-26.4-5.3-35.9-14.9l-89.5-89.5c-14.6-14.5-18.9-36.3-11-55.3
	c2.4-5.8,5.8-11.1,10.1-15.6H81.6c-38.9-0.1-70.3-31.5-70.4-70.4v-115c0.1-38.9,31.5-70.3,70.4-70.4h348.8
	c38.9,0.1,70.3,31.5,70.4,70.4v115.1c-0.1,38.9-31.5,70.3-70.4,70.4h-48.1c4.3,4.5,7.7,9.8,10.1,15.6c7.9,19,3.6,40.8-11,55.3
	l-89.5,89.5C282.4,466.2,269.5,471.6,256,471.5z"/>
<path d="M256,451.6c-8.2,0-16-3.2-21.8-9L144.7,353c-12-12-12-31.5,0-43.5c5.8-5.8,13.6-9,21.7-9h27.7v-24.3H81.6
	c-27.8,0-50.4-22.6-50.4-50.4v-115c0-27.8,22.6-50.4,50.4-50.4h348.8c27.8,0,50.4,22.6,50.4,50.4v115.1c0,27.8-22.6,50.4-50.4,50.4
	H317.8v24.3h27.7c17,0,30.7,13.8,30.7,30.8c0,8.2-3.3,16-9,21.7l-89.5,89.5C272,448.4,264.1,451.6,256,451.6z"/>
<linearGradient id="SVGID_1_" gradientUnits="userSpaceOnUse" x1="256" y1="-856.7399" x2="256" y2="-609.8" gradientTransform="matrix(1 0 0 -1 0 -471.6)">
	<stop  offset="1.000000e-02" style="stop-color:#FFDE17"/>
	<stop  offset="1" style="stop-color:#ED1C24"/>
</linearGradient>
<path style="fill:url(#SVGID_1_);" d="M430.4,69.4H81.6c-22.8,0-41.4,18.5-41.4,41.3c0,0,0,0.1,0,0.1v115.1
	c0,22.8,18.5,41.4,41.3,41.4c0,0,0.1,0,0.1,0h121.9c-0.2,1.6-0.3,3.2-0.3,4.8v37.4h-36.7c-8.8,0-16.8,5.3-20.1,13.5
	c-3.4,8.2-1.5,17.5,4.7,23.8l89.5,89.5c8.5,8.5,22.2,8.5,30.7,0.1c0,0,0,0,0.1-0.1l89.5-89.5c8.5-8.6,8.5-22.4-0.1-30.9
	c-4.1-4.1-9.6-6.3-15.3-6.4h-36.7v-37.4c0-1.6-0.1-3.2-0.3-4.8h121.9c22.8,0,41.4-18.5,41.4-41.3c0,0,0-0.1,0-0.1V110.8
	C471.8,87.9,453.3,69.4,430.4,69.4z"/>
<path style="fill:#FFFFFF;" d="M273.3,205.1c9.7-5.9,15.9-10.2,19-13.1c5.4-5,8.2-10.6,8.2-16.7c0-5.3-2.2-12.8-12.9-18.1
	c-7.8-3.9-18.1-5.8-31.5-5.8c-14.1,0-24.2,2.4-31,7.3c-6.4,4.7-9.6,11.8-9.6,20.9v2.8c-0.1,2.8,2.1,5,4.9,5.1c0,0,0,0,0,0h20.8
	c2.8-0.1,5-2.3,4.9-5.1c0,0,0,0,0,0v-6.9c0-2.4,0.9-2.9,1.2-3.2c1-0.7,3.7-1.8,10.2-1.8c7.3,0,10.1,1.1,11.3,1.7
	c0.7,0.4,1.5,1.1,1.5,3.4c0,0.2-0.1,2-4.3,5.5c-1.6,1.4-5.4,4.2-14.6,9.9c-7,4.4-12.4,7.9-16.1,10.6c-6.3,4.3-12.2,9-17.9,14.1
	c-1.1,1-1.7,2.3-1.7,3.8V230c-0.1,2.8,2.1,5,4.9,5.1c0,0,0,0,0,0h72.5c2.8-0.1,5-2.3,4.9-5.1c0,0,0,0,0,0v-9.3c0-2.7-2.1-5-4.9-5
	c0,0,0,0,0,0h-35.9c1-0.7,2-1.3,3-2C263,211.6,267.6,208.7,273.3,205.1z"/>
<path style="fill:#FFFFFF;" d="M417.6,104.4c-9.4-6.1-25-9.1-47.6-9.1c-16.4,0-28.8,1.7-38,4.9H169.5c-3.1,0.1-5.7,2.7-5.6,5.8
	c0,0,0,0,0,0v70.2l-29.8-72.5c-0.8-2.1-2.9-3.5-5.1-3.5H85.6c-3.1,0.1-5.7,2.7-5.6,5.8c0,0,0,0,0,0v129.4c-0.1,3.1,2.5,5.7,5.6,5.8
	c0,0,0,0,0,0h32.2c3.1-0.1,5.7-2.7,5.6-5.8c0,0,0,0,0,0v-68.7l27.7,70.9c0.8,2.2,2.9,3.6,5.2,3.6h46c3.1-0.1,5.7-2.7,5.6-5.8
	c0,0,0,0,0,0V129.1H310v68.6c0,15,5.3,26.2,15.6,33.2c10.1,6.8,25.3,10.2,46.5,10.2c21.8,0,36.9-2.9,46-8.9s13.8-16.3,13.8-30.3
	v-67.7C432,120.5,427.1,110.4,417.6,104.4z M388.9,134.4v67.5c0,2.9-0.4,6.7-2.4,8.6c-1.3,1.2-4.9,3.4-14.4,3.4
	c-9.8,0-14.3-2-16.2-3.6c-1.3-1.1-3-3.2-3-8.3v-67.5c0-6,2.2-7.8,2.9-8.3c2.1-1.6,6.6-3.6,16.4-3.6c9.5,0,13.1,2,14.5,3.3
	C388.5,127.5,388.9,131.4,388.9,134.4z"/>
<path style="fill:#FFF200;" d="M315.7,363.6c3.3,31.4-40,36.7-40,36.7c6.2-7.3,10-16.3,10.9-25.8c4-33.5-25.4-40.2-43.3-53.8
	c-22-16.8,2.1-31.2,2.1-31.2c-20.9,5.8-26.9,19.1-25.2,34.1c2.1,17.5,28.3,29.7,13,42.3c-8.1,6.6-14,15.6-16.9,25.6
	c-7-19.9-30.1-24.8-30.1-24.8c0.4,0.2,17.6,11.1,11.1,26.4l43.2,43.2c8.5,8.5,22.2,8.5,30.7,0.1c0,0,0,0,0.1-0.1l57.1-57.1
	C325.5,368.3,315.7,363.6,315.7,363.6z"/>
</svg>
