<svg xmlns="http://www.w3.org/2000/svg" viewBox="0 0 512 512"><defs><style>.afbd9b60-a02b-42b3-b6a5-c1b6bff38c56{fill:#ffca00;}</style></defs><title>資產 1</title><g id="bc0bdc73-0f7e-475f-b829-46dfa968cf9a" data-name="圖層 2"><g id="aa1c4247-ad32-4d87-85b9-9dab163310f8" data-name="圖層 1"><circle cx="256" cy="256" r="250.41" transform="translate(-106.04 256) rotate(-45)"/><path class="afbd9b60-a02b-42b3-b6a5-c1b6bff38c56" d="M256,0C114.84,0,0,114.84,0,256S114.84,512,256,512,512,397.16,512,256,397.16,0,256,0Zm0,499.23C121.88,499.23,12.77,390.12,12.77,256S121.88,12.77,256,12.77,499.23,121.88,499.23,256,390.12,499.23,256,499.23Z"/><path class="afbd9b60-a02b-42b3-b6a5-c1b6bff38c56" d="M256,31.57C132.25,31.57,31.57,132.25,31.57,256S132.25,480.43,256,480.43,480.43,379.75,480.43,256,379.75,31.57,256,31.57Zm0,443.74C135.07,475.31,36.69,376.92,36.69,256S135.07,36.69,256,36.69,475.31,135.08,475.31,256,376.93,475.31,256,475.31Z"/><path class="afbd9b60-a02b-42b3-b6a5-c1b6bff38c56" d="M255.05,43.81C138.05,43.81,42.86,139,42.86,256s95.19,212.18,212.19,212.18S467.24,373,467.24,256,372.05,43.81,255.05,43.81Zm0,415.67C142.85,459.48,51.57,368.2,51.57,256S142.85,52.52,255.05,52.52,458.52,143.8,458.52,256,367.25,459.48,255.05,459.48Z"/><path class="afbd9b60-a02b-42b3-b6a5-c1b6bff38c56" d="M255.05,62.29C148.24,62.29,61.34,149.19,61.34,256s86.9,193.71,193.71,193.71S448.76,362.81,448.76,256,361.86,62.29,255.05,62.29Zm0,373.32C156,435.61,75.43,355,75.43,256S156,76.38,255.05,76.38,434.66,157,434.66,256,354.09,435.61,255.05,435.61Z"/><polygon class="afbd9b60-a02b-42b3-b6a5-c1b6bff38c56" points="328.26 236.13 256 236.13 256 236.13 256 236.13 205.94 265.03 311.57 265.03 328.26 236.13"/><path class="afbd9b60-a02b-42b3-b6a5-c1b6bff38c56" d="M272,151.22a17.16,17.16,0,1,0-17.16-17.16A17.15,17.15,0,0,0,272,151.22Z"/><path class="afbd9b60-a02b-42b3-b6a5-c1b6bff38c56" d="M227.61,151.22a17.16,17.16,0,1,0-17.16-17.16A17.15,17.15,0,0,0,227.61,151.22Z"/><path class="afbd9b60-a02b-42b3-b6a5-c1b6bff38c56" d="M365,160.42H353c-3.87,0-6.1,1.26-7.83,4.72l-8.74,17.56-.53,1.05-.53-1.05-8.75-17.56c-1.72-3.46-3.95-4.72-7.82-4.72h-12c-7.35-.12-9.12,5.26-6.16,11.25L322,214.89c2.33,4.69,5.83,6.79,11.06,6.79h5.7c5.23,0,8.73-2.1,11.06-6.79l21.36-43.22C374.15,165.68,372.38,160.3,365,160.42Z"/><path class="afbd9b60-a02b-42b3-b6a5-c1b6bff38c56" d="M175.83,221.68h15.49a7.88,7.88,0,0,0,7.88-7.88V202.05a7.87,7.87,0,0,0-7.76-7.88H167V168.3a7.88,7.88,0,0,0-7.88-7.88H147.33a7.88,7.88,0,0,0-7.88,7.88v41a12.37,12.37,0,0,0,12.37,12.38Z"/><rect class="afbd9b60-a02b-42b3-b6a5-c1b6bff38c56" x="213.85" y="160.42" width="27.52" height="61.26" rx="7.88"/><path class="afbd9b60-a02b-42b3-b6a5-c1b6bff38c56" d="M277.85,160.42H266.1a7.88,7.88,0,0,0-7.89,7.88v45.53a7.89,7.89,0,0,0,7.89,7.85h11.75a7.88,7.88,0,0,0,7.88-7.88V168.3A7.88,7.88,0,0,0,277.85,160.42Z"/><path class="afbd9b60-a02b-42b3-b6a5-c1b6bff38c56" d="M342.44,280a34.75,34.75,0,0,0-5.78-.49H189.33L178.2,298.77l5.55,9.62H326l-8.34,14.45H164.26l-16.64,28.9H301l-8.34,14.45h-65L223.49,359l-20.86,36.12h91.09c17.48,0,35.38-12.41,43.15-28.9a43.76,43.76,0,0,0,2.66-7.22,37.52,37.52,0,0,0,1.21-7.23,31.13,31.13,0,0,0-.3-6.94,52.46,52.46,0,0,0,20-22,43,43,0,0,0,2.66-7.23,37.3,37.3,0,0,0,1.21-7.22c0-.56.06-1.1.06-1.65v-.53C364.37,292.67,355.85,282.28,342.44,280Z"/></g></g></svg>