<svg xmlns="http://www.w3.org/2000/svg" viewBox="0 0 165.78 34.14"><defs><style>.bf85071c-452a-4637-90e5-17f573721316{fill:#005af0;}</style></defs><title>hero_slogan_right</title><g id="e80b44d5-966c-459d-8f6a-5824612be9ed" data-name="圖層 2"><g id="a8138dd1-9def-4dc9-885e-62f5880c3962" data-name="圖層 1"><path class="bf85071c-452a-4637-90e5-17f573721316" d="M6.65,24.56v8.85H3.52V24.56H0V21.44H3.52V8.15c0-.51.26-.77.81-.77H15.42V4.11H.59v-3h32.3v3H18.54V7.38h11c.55,0,.81.26.81.77V21.44h3.3v3.12h-3.3v5.51c0,1.1-.34,3.78-5.22,3.78a25.55,25.55,0,0,1-5.4-.73V29.63a18,18,0,0,0,5,.95c2.42,0,2.45-1.54,2.45-1.76V24.56Zm8.77-10.1v-4H6.9c-.18,0-.25.07-.25.26v3.7Zm-8.77,7h8.77v-4H6.65ZM18.54,10.5v4H27.2v-3.7c0-.19-.11-.26-.29-.26Zm0,10.94H27.2v-4H18.54Z"/><path class="bf85071c-452a-4637-90e5-17f573721316" d="M49.56,14.21a33.34,33.34,0,0,0-5.8-3.42L45.3,8a31.1,31.1,0,0,1,6,3.56Zm-5.8,17a9,9,0,0,0,3.74-2.28,6.46,6.46,0,0,0,1-2.27V20.23a.37.37,0,0,0-.41-.4H44.53V16.7h6.24c.55,0,.81.26.81.78V26.1a6.26,6.26,0,0,0,3.56,3.6c1.39.48,4.48.7,9.25.7,3.45,0,7.82-.11,13.11-.37l-.77,3.53-14.62-.08c-6.09,0-10.06-1.28-11.74-3.82A9.31,9.31,0,0,1,45.26,34ZM50.4,6.76a31.35,31.35,0,0,0-5.8-3.42L46.14.55a30.27,30.27,0,0,1,6,3.56ZM63.66,10.9V6.54H56.72a17,17,0,0,1-3.12,3.74L51.25,8.15C54.15,5.51,55,3.52,56,.07l3,.66-.88,2.83h5.47V.15h3.12V3.56h9.47v3H66.78V10.9H77.09v3H53.52v-3ZM75.59,27.2a.39.39,0,0,1-.44.44H55.69a.39.39,0,0,1-.44-.44V16.92a.39.39,0,0,1,.44-.44H75.15a.39.39,0,0,1,.44.44Zm-3.12-7.74H58.33l-.11.11v4.95l.11.15H72.47c.11,0,.14,0,.14-.15V19.57Z"/><path class="bf85071c-452a-4637-90e5-17f573721316" d="M91.55,15.49,90.63,17l-3-1.14A34.12,34.12,0,0,0,93.13,0l3.12.33a62.93,62.93,0,0,1-1.72,8.07v25.7h-3ZM114.2,27.28H96.44V24.45H114.2V22.29l-17.4.84-.33-2.86,10.58-.41V17.81H98c-.47,0-.69-.26-.69-.74V7.23c0-.47.22-.73.69-.73h9V4.63H97.32V1.8h9.73V0h3V1.8h10.83V4.63H110V6.5h9.58a.65.65,0,0,1,.74.73v9.84c0,.74-.44.74-1.07.74L122.1,22l-2.31,1.58-1-1.5-1.55.11v2.31h4.08v2.83h-4.08v3.23a3.42,3.42,0,0,1-1.57,3,4.75,4.75,0,0,1-2.28.48,18.33,18.33,0,0,1-3.78-.52V30.36a13,13,0,0,0,3.34.59c1.06,0,1.28-.33,1.28-1.21ZM107.05,10.9V9.07h-6.69c-.11,0-.11.07-.07.14V10.9Zm0,4.37v-2h-6.76v1.8c0,.11,0,.15.07.18ZM105,33.12a42.43,42.43,0,0,0-3.45-3.49l2.17-2a35.09,35.09,0,0,1,3.6,3.64Zm5.07-24V10.9h7.34V9.21c0-.1,0-.14-.15-.14Zm0,4.22v2h7.19l.15-.18v-1.8Zm6.28,5.18.84-.66H110v1.94l6.94-.33Z"/><path class="bf85071c-452a-4637-90e5-17f573721316" d="M158.22,16.23H132.3V13.11h33.48v3.12H161.3V29.48a4.35,4.35,0,0,1-.73,2.39c-.7,1-1.58,2.09-5.07,2.09a22.52,22.52,0,0,1-5.06-.63l-.11-3.52a19.55,19.55,0,0,0,5.21,1c1.5,0,2.68-.59,2.68-1.91Zm6.53-4.15c-6.71.15-12-2-15.86-6.46-3,4.48-8.62,6.35-15.12,6.75l-1-3.08L137.15,9c3.74-.45,6.49-1.69,8.22-3.68H133.88V2.2h13.25l.81-2.2,3,1-.44,1.24h13.44V5.32H152.46c2.64,2.61,6.9,3.89,12.88,3.64Zm-10.24,16.7a.39.39,0,0,1-.44.44H135.6c-.29,0-.4-.14-.4-.44V19.05c0-.29.11-.4.4-.4h18.47c.29,0,.44.11.44.4Zm-3.12-7.16H138.28l-.11.11V26.1l.11.15h13.11c.11,0,.15,0,.15-.15V21.73Z"/></g></g></svg>