<svg xmlns="http://www.w3.org/2000/svg" xmlns:xlink="http://www.w3.org/1999/xlink" viewBox="0 0 642.77 282.91"><defs><style>.eccc8503-ee6a-4542-92d8-7b99d7da00e2{fill:#fff;}.a266ab94-bbd2-4137-aff5-1f0b2b7f12ba,.a363ce9e-a699-47e0-9d2d-0d623ed7fc80,.b2a62d59-69f1-4e15-b76c-6a8d308bdd0e,.b6a349e6-7d0f-4503-bab8-8f58c8c7acb5,.b7f3bdf0-4a41-4a8e-8cbe-bd1c8e5154a3,.b8d0cc96-9f4a-4f30-8411-c55eecf9e5fa,.bc3e4ebd-6cee-420c-85ea-f7fd33caa1b4,.bdb7188c-3038-45ec-a723-a1580228252a,.f0011561-fce6-4626-a50e-090db55677e2,.f3529273-5b61-46ef-b313-faeec502b3cb,.f948eaaa-836a-4f9c-b967-a798d1b4cadc,.fc5d34ca-71d0-4d24-a903-1330cbf2de19{stroke-miterlimit:10;stroke-width:1.36px;}.a266ab94-bbd2-4137-aff5-1f0b2b7f12ba{fill:url(#b579b154-8315-4628-8c1d-02496f9f9438);stroke:url(#a4463098-e726-4adf-bff0-ab5dff5342a6);}.bc3e4ebd-6cee-420c-85ea-f7fd33caa1b4{fill:url(#a0642d5b-1152-4449-aab9-45f6c34db7c5);stroke:url(#b28e0d06-bc38-48ed-99e0-5ca9da7f345f);}.f948eaaa-836a-4f9c-b967-a798d1b4cadc{fill:url(#a484747e-b212-4e50-8e08-b795ca5ece3c);stroke:url(#b0f31a5d-6ca8-4c92-a59d-49636025f681);}.a363ce9e-a699-47e0-9d2d-0d623ed7fc80{fill:url(#ee91c3f1-b0da-47ed-9cd6-58cd3d580b47);stroke:url(#f6a39f77-cd6c-42e6-94e8-9f58cf47efda);}.f0011561-fce6-4626-a50e-090db55677e2{fill:url(#a70dd2ac-dd9c-4855-8723-cea649ca34cf);stroke:url(#f5d3eee9-dc41-4bd4-b419-08de0c4e9fc9);}.f3529273-5b61-46ef-b313-faeec502b3cb{fill:url(#afee3045-b251-4d0d-98ea-4570de6f5c1b);stroke:url(#ac6a60a7-ecaf-4f74-ba3e-a088b1a139ba);}.fc5d34ca-71d0-4d24-a903-1330cbf2de19{fill:url(#fcdd89f0-16e2-46a8-b1d9-4654fa5b6f52);stroke:url(#acd3cdd0-e519-4235-afa5-ed3b28039029);}.b8d0cc96-9f4a-4f30-8411-c55eecf9e5fa{fill:url(#aa6448e1-1806-4cb6-b8e9-7ab8236ab8a9);stroke:url(#ee6b665c-9308-4648-9e7c-858f9ae44df5);}.b6a349e6-7d0f-4503-bab8-8f58c8c7acb5{fill:url(#b0f40dd9-18ed-4149-a76d-60b5adcd2d0b);stroke:url(#bf66d4b1-171f-4d5b-9e1d-2fdd1a1d0971);}.bdb7188c-3038-45ec-a723-a1580228252a{fill:url(#e0995363-04dc-4545-9b36-991ff34e27f5);stroke:url(#a7a6214e-754e-48e9-a3de-7f45e1289c4a);}.b2a62d59-69f1-4e15-b76c-6a8d308bdd0e{fill:url(#f7f3cfaa-3c05-4f17-8580-349c8442aa0c);stroke:url(#bbf96569-862b-4ad9-9700-2c326e12e383);}.b7f3bdf0-4a41-4a8e-8cbe-bd1c8e5154a3{fill:url(#b8f6c183-8faf-4d0b-a45c-a6a70647267e);stroke:url(#b190d6b8-c1f7-452c-a614-6318da8f4b58);}</style><linearGradient id="b579b154-8315-4628-8c1d-02496f9f9438" x1="134.71" y1="36.69" x2="134.71" y2="247" gradientUnits="userSpaceOnUse"><stop offset="0" stop-color="#fff"/><stop offset="0.25" stop-color="#c4c4c4"/><stop offset="0.5" stop-color="#4d4d4d"/><stop offset="0.74" stop-color="#cfcfcf"/><stop offset="1" stop-color="#fff"/></linearGradient><linearGradient id="a4463098-e726-4adf-bff0-ab5dff5342a6" x1="134.71" y1="133.78" x2="134.71" y2="88.1" gradientUnits="userSpaceOnUse"><stop offset="0" stop-color="#fff"/><stop offset="0.25" stop-color="#c4c4c4"/><stop offset="0.5" stop-color="#fff"/><stop offset="0.74" stop-color="#cfcfcf"/><stop offset="1" stop-color="#fff"/></linearGradient><linearGradient id="a0642d5b-1152-4449-aab9-45f6c34db7c5" x1="92.67" y1="36.69" x2="92.67" y2="247" xlink:href="#b579b154-8315-4628-8c1d-02496f9f9438"/><linearGradient id="b28e0d06-bc38-48ed-99e0-5ca9da7f345f" x1="92.67" y1="85.21" x2="92.67" y2="45.8" xlink:href="#a4463098-e726-4adf-bff0-ab5dff5342a6"/><linearGradient id="a484747e-b212-4e50-8e08-b795ca5ece3c" x1="192.38" y1="36.69" x2="192.38" y2="247" xlink:href="#b579b154-8315-4628-8c1d-02496f9f9438"/><linearGradient id="b0f31a5d-6ca8-4c92-a59d-49636025f681" x1="192.38" y1="85.21" x2="192.38" y2="45.8" xlink:href="#a4463098-e726-4adf-bff0-ab5dff5342a6"/><linearGradient id="ee91c3f1-b0da-47ed-9cd6-58cd3d580b47" x1="123.45" y1="36.69" x2="123.45" y2="247" xlink:href="#b579b154-8315-4628-8c1d-02496f9f9438"/><linearGradient id="f6a39f77-cd6c-42e6-94e8-9f58cf47efda" x1="123.45" y1="253.8" x2="123.45" y2="139.3" xlink:href="#a4463098-e726-4adf-bff0-ab5dff5342a6"/><linearGradient id="a70dd2ac-dd9c-4855-8723-cea649ca34cf" x1="360.38" y1="36.69" x2="360.38" y2="247" xlink:href="#b579b154-8315-4628-8c1d-02496f9f9438"/><linearGradient id="f5d3eee9-dc41-4bd4-b419-08de0c4e9fc9" x1="360.29" y1="176.77" x2="360.29" y2="38.57" xlink:href="#a4463098-e726-4adf-bff0-ab5dff5342a6"/><linearGradient id="afee3045-b251-4d0d-98ea-4570de6f5c1b" x1="315.61" y1="36.69" x2="315.61" y2="247" xlink:href="#b579b154-8315-4628-8c1d-02496f9f9438"/><linearGradient id="ac6a60a7-ecaf-4f74-ba3e-a088b1a139ba" x1="315.71" y1="204.69" x2="315.71" y2="151.08" xlink:href="#a4463098-e726-4adf-bff0-ab5dff5342a6"/><linearGradient id="fcdd89f0-16e2-46a8-b1d9-4654fa5b6f52" x1="242.92" y1="36.69" x2="242.92" y2="247" xlink:href="#b579b154-8315-4628-8c1d-02496f9f9438"/><linearGradient id="acd3cdd0-e519-4235-afa5-ed3b28039029" x1="242.84" y1="198.2" x2="242.84" y2="146.86" xlink:href="#a4463098-e726-4adf-bff0-ab5dff5342a6"/><linearGradient id="aa6448e1-1806-4cb6-b8e9-7ab8236ab8a9" x1="382.28" y1="36.69" x2="382.28" y2="247" xlink:href="#b579b154-8315-4628-8c1d-02496f9f9438"/><linearGradient id="ee6b665c-9308-4648-9e7c-858f9ae44df5" x1="382.26" y1="195.05" x2="382.26" y2="144.39" xlink:href="#a4463098-e726-4adf-bff0-ab5dff5342a6"/><linearGradient id="b0f40dd9-18ed-4149-a76d-60b5adcd2d0b" x1="283.11" y1="36.69" x2="283.11" y2="247" xlink:href="#b579b154-8315-4628-8c1d-02496f9f9438"/><linearGradient id="bf66d4b1-171f-4d5b-9e1d-2fdd1a1d0971" x1="282.98" y1="144.81" x2="282.98" y2="29.22" xlink:href="#a4463098-e726-4adf-bff0-ab5dff5342a6"/><linearGradient id="e0995363-04dc-4545-9b36-991ff34e27f5" x1="567.1" y1="36.69" x2="567.1" y2="247" xlink:href="#b579b154-8315-4628-8c1d-02496f9f9438"/><linearGradient id="a7a6214e-754e-48e9-a3de-7f45e1289c4a" x1="567.02" y1="142.3" x2="567.02" y2="83.66" xlink:href="#a4463098-e726-4adf-bff0-ab5dff5342a6"/><linearGradient id="f7f3cfaa-3c05-4f17-8580-349c8442aa0c" x1="512.78" y1="36.69" x2="512.78" y2="247" xlink:href="#b579b154-8315-4628-8c1d-02496f9f9438"/><linearGradient id="bbf96569-862b-4ad9-9700-2c326e12e383" x1="512.58" y1="148.91" x2="512.58" y2="52.64" xlink:href="#a4463098-e726-4adf-bff0-ab5dff5342a6"/><linearGradient id="b8f6c183-8faf-4d0b-a45c-a6a70647267e" x1="492.71" y1="36.69" x2="492.71" y2="247" xlink:href="#b579b154-8315-4628-8c1d-02496f9f9438"/><linearGradient id="b190d6b8-c1f7-452c-a614-6318da8f4b58" x1="492.69" y1="253.75" x2="492.69" y2="152.41" xlink:href="#a4463098-e726-4adf-bff0-ab5dff5342a6"/></defs><title>hero_title</title><g id="ec870827-8cf8-4d5e-931a-ce90b6fa9adf" data-name="圖層 2"><g id="a26f2a6f-5816-4513-b424-10c883fddbf3" data-name="圖層 1"><path d="M35.1,273.82l-17-17.05-2.46-17.25,10.33-20.47,20.22-10.91-7.19-4-.78-2.68A15,15,0,0,0,37,199.11H27.36l-20-24.72,8.78-41.55,19.7-16h.07l5.08-24L27,75.63l5.44-25.76,19.71-16H95.81l13-10.52h29.53l6.91,8.52,10.51-8.52h29.73L194,33.89h43.89l4.6,5.69,7.27-5.9h14.95L267,22.77l19.7-16h27.19l15.16,18.7,11.54-9.36h83.07l11.41,14.07H615.41l20,24.72L629.83,81.5l-19.7,16h-3c4.4,3.66,8.37,7.15,11.7,10.3l2.18,2.06-.56,30.11L597,160.54l-3.28-.17-10.24,48.47,8,2.13,14.07,13.8,4.76,16.68-7.53,21.76-13,9.42-16.57,3.14-183.8-47-8.31-13.94-9.86-4.76a51.6,51.6,0,0,1-4.26,4.36c-12.47,11.25-27.27,12.69-38.77,12.69H293.9c-24.58,0-35.07-6-41.31-12.58l-21.8,4.21-23.63-13.07L206,199.11H188.61a139.84,139.84,0,0,1-12.33,9.16c-22.44,15.34-100.6,62.53-116.43,67l-.69.2-8.22.56Z"/><path class="eccc8503-ee6a-4542-92d8-7b99d7da00e2" d="M310.67,13.59l16,19.69-1.52,7.2h1l1-4.6,16-12.94h77.42l13.42,16.54L436.91,37H612.17l16,19.68-4.45,21-16,12.94h-20.2a314.59,314.59,0,0,1,26.67,22l-.45,24.1-19.13,16.8-9.73-.52,2.73,3.37L575.5,213.75l12.55,3.33,11.5,11.28,3.68,12.9L597.1,259,587,266.23l-13.59,2.58L393.83,222.87l-8.56-14.35-.8.37-15.21-7.35a44.69,44.69,0,0,1-6.83,7.83c-10.75,9.7-23.93,10.95-34.21,10.95H293.9c-14.56,0-29.25-1.51-38.13-12.46a25.82,25.82,0,0,1-1.66-2.31c-.55.72-1.1,1.42-1.65,2.08l-20.54,4-18.61-10.29-1.91-11.2-2.71,2.2H186.08a123.74,123.74,0,0,1-13.58,10.31C148,219.34,72.22,264.72,58,268.79l-6.79.46L38.3,267.41,24.46,253.57l-1.84-12.89L31,224l29.22-15.76-15.54-8.7a30.07,30.07,0,0,0-4-7.24H30.6l-16-19.69,7.61-36,16-12.94h3.17l6.88-32.57-14-17.22,4.28-20.24,16-12.94H98.22l13-10.52h23.88l9.15,11.28,13.92-11.28h24.08l8.53,10.52h43.89l6.84,8.44,10.68-8.65h18.05l2.95-13.95,16-12.94h21.54M317.15,0H284.31l-3.74,3L264.61,16l-3.75,3-1,4.71-.67,3.17H247.35l-3.74,3-.12.1-2.36-2.92H197.24l-4.45-5.49-4.08-5H153.33l-3.74,3-3.36,2.72-.59-.72-4.08-5H106.38l-3.74,3L93.4,27.1H49.72l-3.75,3L30,43.07l-3.75,3-1,4.72L21,71.06l-1.34,6.33,4.08,5,9.89,12.19L29.73,113l-.08.07L13.69,126l-3.74,3-1,4.71-7.61,36L0,176.15l4.08,5,16,19.69,4.08,5h8.27l.48,1.67-8.3,4.48-3.76,2-1.92,3.81-8.41,16.67-1.92,3.81.6,4.23L11,255.49l.64,4.49,3.2,3.2L28.69,277l3.21,3.2,4.48.65,12.89,1.84,1.42.2,1.43-.1,6.79-.46,1.43-.1,1.38-.39c17.89-5.11,97.24-53.53,118.39-68,4-2.69,7.69-5.36,10.94-8h9.26L201,210l5.72,3.16,18.61,10.3,4.32,2.39,4.84-.94,16-3.09c12.23,10.49,28.59,12,43.4,12h34.32c11.72,0,29-1.5,43.32-14.45l1.22-1.13,3.56,1.72,5.83,9.78,2.87,4.82,5.44,1.39L570.07,282l2.93.75,3-.56,13.6-2.58,3-.57,2.45-1.77L605.06,270l3.48-2.51,1.4-4,6.13-17.71,1.41-4-1.18-4.13-3.68-12.89-1-3.45-2.56-2.52-11.5-11.28L595,204.86l-3.47-.92h-.06l7.71-36.46h.23l4.17-3.66L622.71,147l4.51-4,.11-6,.45-24.11.12-6-4.36-4.12c-1.35-1.28-2.8-2.61-4.33-4l13-10.56,3.74-3,1-4.71,4.45-21,1.34-6.34-4.08-5-16-19.68-4.08-5H438.33l-7.33-9-4.08-5H338.2l-3.74,3-4.39,3.56L321.23,5l-4.08-5Z"/><path class="a266ab94-bbd2-4137-aff5-1f0b2b7f12ba" d="M56.06,133.1H204l9.37-44.33H65.43Zm109.73-28.95h21.86l-2.83,13.36H163Zm-41.28,0h21.25l-2.83,13.36H121.68Zm-41.09,0h20.85l-2.82,13.36H80.6Z"/><polygon class="bc3e4ebd-6cee-420c-85ea-f7fd33caa1b4" points="103.16 84.53 127.04 84.53 135.08 46.48 111.2 46.48 108.97 57 54.53 57 50.26 77.24 104.7 77.24 103.16 84.53"/><polygon class="f948eaaa-836a-4f9c-b967-a798d1b4cadc" points="175.77 77.04 230.41 77.04 234.65 57 180.01 57 182.23 46.48 158.15 46.48 150.11 84.53 174.19 84.53 175.77 77.04"/><path class="a363ce9e-a699-47e0-9d2d-0d623ed7fc80" d="M30.6,176H53.26L57,158.19h44.32c-11.07,8.3-28.15,15.38-51.39,20,3.93,3.45,8.89,11.54,10.41,16.8,5.16-1.42,10.11-2.83,14.91-4.45,3.8,2.78,12.61,11.47,18.89,17.91l-55.4,29.89,1.84,12.89L53.5,253.1c10.58-3,83.16-45.72,109.87-64,14.25-9.5,17.37-14.92,17.37-14.92l-13.34-8.7-4.46,1H119.83c2-1.62,3.92-3.24,5.93-5.06l-14.9-3.24h77.71L184.81,176h23.88l7.61-36H38.21Zm111.77,6.47-28.16,15.2A123,123,0,0,0,97,182.47Z"/><path class="f0011561-fce6-4626-a50e-090db55677e2" d="M318.61,136.69l-18.29,12.59c6.88,8,15.68,19.64,19.57,26.5l19.3-13.73c-3.45-5.33-10-13.34-15.94-20.21h75.51L420.44,39.25H343L321.7,140.12Zm41.22-79.52h35.09l-2.34,11.06H357.49ZM354,85H389l-2.34,11.06H351.61Zm-5.85,27.66h35.09l-2.42,11.44H345.68Z"/><path class="f3529273-5b61-46ef-b313-faeec502b3cb" d="M330.74,184H300.23c-10.3,0-12.05-.76-10.84-6.48l5.44-25.74H272.52L267,177.88c-4.19,19.83,1,26.13,26.9,26.13h34.32c21,0,28.68-6.68,37.31-33.95-6.06-1.14-14.9-4.38-18.72-8C341.6,181.31,339.7,184,330.74,184Z"/><path class="fc5d34ca-71d0-4d24-a903-1330cbf2de19" d="M221.21,187l18.61,10.3c9-11.06,18.13-28,24.8-41.57l-18.52-8C240,161.29,230.21,176.93,221.21,187Z"/><path class="b8d0cc96-9f4a-4f30-8411-c55eecf9e5fa" d="M385.26,145.27l-21.77,9.16c4.74,12.77,11.68,29.55,14.12,39.66l23.46-10.87C398,173.3,390.39,157.1,385.26,145.27Z"/><path class="b6a349e6-7d0f-4503-bab8-8f58c8c7acb5" d="M286.53,144.13,295,104.27c5.53,6.3,11.13,13.16,14.51,17.93l15.65-18.12c-3.62-3.62-19-16.59-25.69-21l1.49-7.06h26.89l4.07-19.26H305l5.68-26.89H289.13l-5.69,26.89H252.17L248.1,76.05h27.65c-10.94,16.59-26.85,33.18-41.41,42.53a59.28,59.28,0,0,1,11.19,15.63c9.27-6.86,18.53-16.4,27.39-27.65L265,144.13Z"/><path class="bdb7188c-3038-45ec-a723-a1580228252a" d="M531.22,99.26C549.79,111,572.49,129,583.85,141.35L603,124.55C591,113.22,568.54,96,549.52,84.48Z"/><path class="b2a62d59-69f1-4e15-b76c-6a8d308bdd0e" d="M436.91,53.32l-4.45,21.05h74.48c-25.54,21.25-60.47,39.05-93.54,50,4.16,4.25,9.84,13.76,12.46,18.62a411.47,411.47,0,0,0,75.45-40.07l-9.58,45.33H515l14.16-67c2.5-2.23,5-4.66,7.53-6.88h71l4.45-21.05Z"/><path class="b7f3bdf0-4a41-4a8e-8cbe-bd1c8e5154a3" d="M556.34,225.54l15.31-72.45H435.45l-8.08,38.24-24-6.36-5.52,22.09L577.48,253l10.07-7.27-3.69-12.89ZM543.7,173.33l-9.78,46.27-14.57-3.87,9-42.4Zm-37.44,0-7.79,36.86-14.76-3.91,7-32.95Zm-52.82,0h15.38L463,200.78l-14.57-3.86Z"/></g></g></svg>