<svg xmlns="http://www.w3.org/2000/svg" viewBox="0 0 165.63 34.33"><defs><style>.e8d4bdc5-b68d-44b9-95c2-de4285710f40{fill:#005af0;}</style></defs><title>hero_slogan_left</title><g id="f2b4daa1-ab9f-44dc-bfb7-4dd2daebd5cd" data-name="圖層 2"><g id="afd9f0d6-13d2-4489-9fa9-cb9aef5fd603" data-name="圖層 1"><path class="e8d4bdc5-b68d-44b9-95c2-de4285710f40" d="M21.66,4.81H11.89V6.09h-3V4.81H0V2H8.92V0h3V2h9.77V0h3V2h8.85V4.81H24.63V6.09h-3ZM.73,23.5V16.85a.49.49,0,0,1,.55-.55H31.43L34,17.58a32.93,32.93,0,0,1-1.8,7.27l-2.79-1a35.06,35.06,0,0,0,1.24-4.26c0-.3-.11-.44-.36-.44H4a.27.27,0,0,0-.29.29V23.5Zm4.74,7.74a39.17,39.17,0,0,0,10-1.39c-2.57-1.18-5.32-2.28-8.19-3.27a37.13,37.13,0,0,1-4.51,2.24L1,26.18c5.73-2,7.6-3.82,9.14-6.39l3.34.62-.55.85H26.1l2.1,1.57A20.89,20.89,0,0,1,24.12,28c-4,3.42-10,5.58-17.77,6.36ZM31.39,14.39a.39.39,0,0,1-.44.44H2.72a.38.38,0,0,1-.41-.44v-7A.37.37,0,0,1,2.72,7H31a.38.38,0,0,1,.44.41ZM11.05,12.3V9.51H5.4c-.11,0-.15,0-.11.11v2.53l.11.15ZM13,25.81c2.24.84,4.18,1.72,5.95,2.57,1.76-.92,4.73-3,4.73-4,0-.22-.07-.33-.22-.33H10.72l-.7.62ZM19.82,12.3V9.51H14V12.3Zm3-2.79V12.3h5.47l.15-.15V9.62l-.15-.11Z"/><path class="e8d4bdc5-b68d-44b9-95c2-de4285710f40" d="M57.78,15.71c-1.14-1.47-2.46-3-4-4.7v9h-3V11.49a32.79,32.79,0,0,1-4.45,6.13l-2.71-1.5a34.1,34.1,0,0,0,6.46-8.81h-5v-3h5.73V.18h3V4.33h5.1v3H53.82C56,9.32,58,11.42,60,13.69Zm-7,7.35a27.05,27.05,0,0,1-4.52,10.35,7.66,7.66,0,0,0-2.31-1.8,21.72,21.72,0,0,0,3.82-9.4Zm2.53-.78h3.12v5.84c0,1.07,0,2.06,2,2.06H64.9a2.6,2.6,0,0,0,2.1-.81A13.28,13.28,0,0,0,67.25,26l3.16.4c-.07,3-.33,4.89-.77,5.51-1.07,1.14-1.43,1.36-3.75,1.36H57.05c-1.95,0-3.82-1.07-3.75-4.66Zm8.56,5.92A50.4,50.4,0,0,0,59,22.65l2.79-1.32c1.5,2.79,2.46,4.74,2.9,5.76Zm13.65-8.93a.38.38,0,0,1-.44.44H61c-.22,0-.37-.14-.37-.44V1.91A.35.35,0,0,1,61,1.54H75.07c.3,0,.44.15.44.37ZM63.47,6.9h9.22V4.48l-.15-.11h-9l-.11.11Zm0,5h9.22V9.58H63.47Zm9.22,2.68H63.47v2.13l.11.15h9c.11,0,.15,0,.15-.15ZM75,32.71A55.83,55.83,0,0,0,70,23.09l2.76-1.54a49,49,0,0,1,5,9.77Z"/><path class="e8d4bdc5-b68d-44b9-95c2-de4285710f40" d="M93.39,17.33a22.06,22.06,0,0,1-3,8.92l-2.75-1.84a18.83,18.83,0,0,0,3.15-10.72V2.79c0-.26.22-1.17.59-1.17h1.1A61.12,61.12,0,0,0,105.1.4l1.06,3a62.21,62.21,0,0,1-12,1.25c-.37,0-.48.19-.48.52v2.2h11.46V12.7A27.2,27.2,0,0,0,109.8,0l2.83.33a55,55,0,0,1-1.22,5.54h9.48V8.66h-1.73c0,2.61-.18,5.25-.4,7.75a22.21,22.21,0,0,1-2.54,9.18,36.56,36.56,0,0,0,5.8,6.68l-2.93,1.62a49,49,0,0,1-4.56-5.62,20.3,20.3,0,0,1-6,5.73l-2.31-2.17A19.09,19.09,0,0,0,113,25.74a21.56,21.56,0,0,1-1.62-3.64,36.1,36.1,0,0,1-1.65-11.6,27.36,27.36,0,0,1-2,3.56l-2.6-1v4.3Zm-.48,3.93a.52.52,0,0,1,.51-.48h11.13c.37,0,.59.48.59.59V33.59H102.2V31.32H96v2.27h-3Zm.77-7.57c0,.22,0,.48,0,.7h8.55V10.32H93.68Zm2.72,9.88A.39.39,0,0,0,96,24v4.52h6.24V24c0-.07-.11-.4-.4-.4Zm16-14.91c0,.7,0,1.36,0,2,0,4.41.66,9,2.2,12a19.67,19.67,0,0,0,1.25-5.18,60.47,60.47,0,0,0,.51-6.5V8.66Z"/><path class="e8d4bdc5-b68d-44b9-95c2-de4285710f40" d="M140.45,17.77V34h-3V19.2a32.34,32.34,0,0,1-2.9,6l-2.87-.84a35.55,35.55,0,0,0,5.07-11.49h-4.33v-3h5V4.77l-4.3.55-.7-2.93a65.42,65.42,0,0,0,11.42-2l.7,2.9-4.15,1V9.91h4.22v3h-4.22v.8a73.53,73.53,0,0,1,5,6l-2.35,1.88Zm13.22,12.52V25.37h-9.29v-3h9.29V17.7L146.1,18l-.55-3.12c7.71.15,14.17-.37,18.95-1.65l.84,3a66.51,66.51,0,0,1-8.66,1.25v4.95h8.95v3h-8.95v4.92h8.66v3H144.78v-3Zm10.94-19.06c0,.3-.15.44-.41.44H146.69c-.26,0-.4-.14-.4-.44V1.36a.37.37,0,0,1,.4-.41H164.2a.37.37,0,0,1,.41.41Zm-3-7.45H149.22l-.11.11V8.7l.11.15h12.41c.11,0,.15,0,.15-.15V3.89Z"/></g></g></svg>