<svg xmlns="http://www.w3.org/2000/svg" viewBox="0 0 329.76 47.08"><defs><style>.e69e9917-bb3c-48d7-8d67-dc5a03f1921c{font-size:16.31px;fill:#fff;font-family:NotoSansCJKtc-Bold-B5pc-H, Noto Sans CJK TC;letter-spacing:0.1em;}</style></defs><title>hero_subtitle</title><g id="b01e337e-883a-443a-b818-da609ac816d8" data-name="圖層 2"><g id="b83ce96f-b670-4ff1-8b13-d2999a94c37d" data-name="圖層 1"><path d="M35.13,37.18c2.25,0,2.81-.86,3.83-5.19a9.51,9.51,0,0,0,3.22,1.44c-1.52,5.59-3,7.26-7.44,7.26H24.92c-5.23,0-6.46-1.22-5.65-5.86L22.79,14.6c-.22.23-.49.45-.7.68a18.53,18.53,0,0,0-1.74-2.48l-.53,3.06H15.09l-1,5.63H18.7l-.63,3.65h-4.6l-1.28,7.39,5.38-1.39-.1,3.65c-6,1.62-12.38,3.33-17.16,4.64L0,35.51c.7-.14,1.41-.32,2.2-.5L4.87,19.69H8.29L5.78,34.16l2.54-.64,3.07-17.66H5.67L8.12,1.76H22.27l-1.73,10A39.54,39.54,0,0,0,28.62,0l3.57,1c-.68,1.3-1.41,2.65-2.17,4H44.57l-.31,1.8C41.58,21.85,40.59,27,39.37,28.57a4.79,4.79,0,0,1-3.26,1.67,29.94,29.94,0,0,1-5.06.09,8.84,8.84,0,0,0-.38-3.56h-6.3L23,34.83c-.34,2,.09,2.35,2.84,2.35ZM17.82,5.36H11.06L9.85,12.3h6.76Zm9.89,3.2a48.66,48.66,0,0,1-3.32,4.33h11.4L33.38,26.77h-.5c.81,0,1.48,0,1.89,0a1.6,1.6,0,0,0,1.41-.63c.79-.9,1.65-5.32,3.84-17.62Zm3.93,7.75H26.19L25,23.39h5.46Z"/><path d="M86.5,37.18c2.25,0,2.81-.86,3.83-5.19a9.51,9.51,0,0,0,3.22,1.44c-1.51,5.59-3,7.26-7.44,7.26H76.29c-5.23,0-6.46-1.22-5.65-5.86L74.16,14.6c-.22.23-.48.45-.7.68a17.65,17.65,0,0,0-1.74-2.48l-.53,3.06H66.46l-1,5.63h4.6l-.64,3.65H64.85l-1.29,7.39,5.38-1.39-.09,3.65c-6,1.62-12.39,3.33-17.17,4.64l-.31-3.92c.7-.14,1.41-.32,2.21-.5l2.66-15.32h3.43L57.15,34.16l2.54-.64,3.08-17.66H57L59.5,1.76H73.64l-1.73,10A39.36,39.36,0,0,0,80,0l3.57,1c-.67,1.3-1.41,2.65-2.17,4H95.94l-.31,1.8C93,21.85,92,27,90.75,28.57a4.83,4.83,0,0,1-3.27,1.67,29.91,29.91,0,0,1-5.06.09,8.66,8.66,0,0,0-.37-3.56H75.74l-1.41,8.06c-.34,2,.09,2.35,2.84,2.35ZM69.19,5.36H62.43L61.22,12.3H68Zm9.9,3.2a50.67,50.67,0,0,1-3.33,4.33h11.4L84.75,26.77h-.5c.81,0,1.48,0,1.89,0a1.62,1.62,0,0,0,1.42-.63c.78-.9,1.64-5.32,3.83-17.62ZM83,16.31H77.56l-1.23,7.08h5.45Z"/><path d="M121.54,6.9l-6.21,35.74h-3.52l1.41-8.07c-3.53.58-7,1.22-9.85,1.71l-.16-3.74,2.58-.36,4.4-25.28h-2l.66-3.78h14.91l-.66,3.78ZM118,6.9h-4.42l-1,5.59h4.42ZM116.45,16H112l-1,5.68h4.42ZM113.84,31l1-5.9h-4.41l-1.14,6.53Zm18.4-15.91c.39,2.39.84,5.55.92,7.39l-2.76.86c0-.63-.06-1.44-.15-2.25-7.78.94-9,1.21-9.74,1.57,0-.85-.11-2.7-.25-3.69a8.12,8.12,0,0,0,3-2.16c.53-.5,1.74-1.72,3.09-3.29a13.31,13.31,0,0,0-4,.72,36.76,36.76,0,0,0-.28-3.83,5.15,5.15,0,0,0,2.07-1.54,45.4,45.4,0,0,0,5.29-7.34l2.88,1.35a65.85,65.85,0,0,1-6.35,8l2.86-.14c1-1.21,2.08-2.61,3-3.92l2.58,1.49a88.12,88.12,0,0,1-9.5,10.59l5.14-.5c-.07-.94-.23-1.8-.35-2.66Zm-.65,8.38-1.18,6.81c-.78,4.46-3,9.51-10.17,12.61A10.28,10.28,0,0,0,118.49,40c4.22-1.76,6.27-4,7.4-6.26H119.8l1.79-10.28H125l-1.17,6.76H127l1.17-6.76Zm12.51-.4c-.07-.63-.19-1.49-.26-2.39-7.77,1.17-9,1.49-9.79,1.89,0-.85-.17-2.66-.27-3.65a6.15,6.15,0,0,0,2.71-2.11,35.66,35.66,0,0,0,3.15-3.61c-3.21.32-4.06.54-4.55.81,0-.81-.18-2.61-.32-3.6a4.18,4.18,0,0,0,2-1.45A41.76,41.76,0,0,0,142,1.81l2.55,1.4a63.79,63.79,0,0,1-5.79,7.39l3.05-.18c.82-1.13,1.72-2.39,2.47-3.61l2.54,1.44a90.44,90.44,0,0,1-8.39,10.46l4.93-.63c-.15-.95-.36-1.85-.52-2.71l2.52-.76a59.26,59.26,0,0,1,1.5,7.43Zm-3.28.72h3.43l-2,11.54h-3.43l.28-1.58H136l-1.55,8.92h-3.61l3.35-19.24h3.6l-1.16,6.71h3.1Z"/><path d="M186.66,36.73h-4.91c3.95,1.13,7.87,2.44,10.51,3.34l-3.84,2.38c-2.78-1.12-7.45-2.79-12.16-4.19l2-1.53h-9.1L171,38.08a57.19,57.19,0,0,1-15.24,4.46,21.42,21.42,0,0,0-2-2.7,69.64,69.64,0,0,0,12.48-3.11h-4.91l1.8-10.36A43.42,43.42,0,0,1,156.87,29a11.29,11.29,0,0,0-2-3,40,40,0,0,0,11.58-5.18h-9.41l.52-3h11.13l.28-1.63h-5.85l.4-2.29h5.85l.31-1.76h-6.49l.42-2.43h6.49l.31-1.76h3.87L174,9.7h9.32l.31-1.76h3.92l-.3,1.76h6.44l-.42,2.43h-6.45l-.3,1.76h6l-.4,2.29h-6l-.29,1.63H197l-.53,3h-8.74a25.34,25.34,0,0,0,9.18,4.5,19.18,19.18,0,0,0-3.17,3.2,24.8,24.8,0,0,1-5.23-2.61ZM163,11.05h-3.83L160.41,4h17.53a18.61,18.61,0,0,0-.67-2.07L181.6.82A17.85,17.85,0,0,1,182.72,4H199l-1.23,7.08h-4l.67-3.83H163.68Zm21.7,13.88H167.27l-.3,1.71h17.44ZM184,28.8H166.59l-.3,1.76h17.44Zm-.67,3.88H165.92l-.31,1.8H183ZM171.13,20.83a28.71,28.71,0,0,1-2.21,1.84H184.6c-.52-.63-1.09-1.21-1.57-1.84Zm2.16-6.94h9.33l.3-1.76h-9.33Zm-.68,3.92h9.32l.29-1.63h-9.33Z"/><polygon points="318.81 37.47 210.06 37.47 214.14 10.28 322.88 10.28 318.81 37.47"/><text class="e69e9917-bb3c-48d7-8d67-dc5a03f1921c" transform="translate(221.3 30.01)">SEASON 2</text></g></g></svg>