<svg xmlns="http://www.w3.org/2000/svg" viewBox="0 0 603.4 375.08"><defs><style>.a,.b,.j,.l{fill:#fff;}.b{stroke:#d76c62;}.b,.g,.h,.i,.j,.l{stroke-miterlimit:10;}.c{fill:#d8695f;}.d{fill:#de7b6b;}.e{fill:#de9479;}.f{fill:#df9579;}.g,.h,.i{fill:none;stroke:#fff;}.g{stroke-width:0.75px;}.h{stroke-width:0.5px;}.j{stroke:#d76960;}.k{fill:#b45950;}.l{stroke:#d46a5d;}.m{fill:#d46c5f;}.n{fill:#d76c62;}</style></defs><title>rsl-color-dark</title><path class="a" d="M469.75,127.75s53.44-10.74,57.8-8.93l-11,7.78-8.16,1.32,1.1-3L495.86,129l-26.11-1.23"/><path class="a" d="M464.42,116.19s53.45-10.73,57.81-8.93l-11,7.78-8.15,1.33,1.1-3-13.65,4.09-26.11-1.24"/><path class="b" d="M424.44,165.41c-21.31-7.91-42.85-4.8-65.36.64-10.82,2.61-60.26,18.12-52,38.33,2.59,6.32,11.53,8.66,16.78,10.21,10.92,3.21,22.48,4,33,8.6,4.87,2.1,9.6,5.13,12.55,9.92s4.09,13.53,1.21,18.73c-5.83,10.53-23,13.74-32.65,17.9-12.91,5.58-26.55,9.56-39.64,14.51q-17.24,6.51-34.64,12.27c-10.95,3.63-22.55,6.09-33,11.45-4.08,2.08-1-2.18.06-3.82a131,131,0,0,0,7.41-12.95c2.84-5.71,5.71-11.57,6-18.12a2.68,2.68,0,0,1,.22-1.22,2.19,2.19,0,0,1,1.7-.94,321.8,321.8,0,0,0,60.33-17.6c6-2.39,12-5.06,17.15-9.32,1.54-1.27,3.11-2.91,3.3-5,.3-3.32-2.88-5.34-5.63-6.4C307,227.12,291,224.75,279.7,213.87c-3.75-3.59-7-8.37-7.3-14-.79-13.95,9.51-28.9,18.77-37.47,8.56-7.92,18.73-13.29,29.12-17.25,23-8.77,47.21-10.84,71-10.75,12.21.05,24.39.66,36.56,1.23l.5,0c5.17.24,13.16,2.67,18.29,3Z"/><path class="a" d="M285.25,178.52s-3.12,19.78,13.84,21.77c0,0,0,19.42,18.49,20C317.58,220.3,264,221.37,285.25,178.52Z"/><path class="c" d="M232.47,146.42S357.05-16.44,533.87,73.16c0,0-188.14-130.93-383.64,65.57"/><path class="d" d="M488.21,57.41S356.28,18.89,238.82,146.79c0,0,15.38,2.42,24,11,2.79,2.78,5.16-2,5.41-2.34C278.81,140.15,347.78,46,488.21,57.41Z"/><path class="e" d="M277.41,158.54S382.51,39.72,470.93,67.42c0,0-84.62-1.51-144.49,69.43A161.48,161.48,0,0,0,277.41,158.54Z"/><path class="f" d="M351.85,130.29c.71-.15,2-1.94,2.53-2.42,2.4-2.22,4.88-4.35,7.41-6.42a203.73,203.73,0,0,1,27.66-19,180,180,0,0,1,41.82-17.66,153.55,153.55,0,0,1,20.46-4.15q5.26-.7,10.56-1a65.79,65.79,0,0,1,10.41-.19c0,1.12-.94,2.17-1.43,3.1l-2.86,5.38-8,15-12.6,23.65-.18.34S406.36,118.63,351.85,130.29Z"/><path class="g" d="M305.88,144.82s76.5-93.18,165.05-77.4"/><path class="a" d="M321.66,109.53a32.17,32.17,0,0,1,2.88,2.72,24.83,24.83,0,0,1,2.5,3.09,11.25,11.25,0,0,1,1.7,3.66,4.65,4.65,0,0,1,0,2.1,3.78,3.78,0,0,1-1.09,1.83l-.35-.56c2-.76,4-1.48,6-2.08s4.1-1.13,6.19-1.59a42.08,42.08,0,0,1,6.33-.87,13.44,13.44,0,0,1,6.29.86,14.39,14.39,0,0,0-6.26-.44,48.74,48.74,0,0,0-6.22,1.08c-2.06.48-4.1,1-6.12,1.66s-4,1.28-6,2l-1.73.65,1.38-1.22a3.39,3.39,0,0,0,.93-3.31,10.65,10.65,0,0,0-1.49-3.52A35.07,35.07,0,0,0,321.66,109.53Z"/><path class="a" d="M354.29,87.35a28.92,28.92,0,0,1,2,2.45,21.76,21.76,0,0,1,1.68,2.67,11.08,11.08,0,0,1,1.14,3,3.81,3.81,0,0,1,0,1.68,2.56,2.56,0,0,1-1,1.46l-.24-.61a92.2,92.2,0,0,1,10.89-.86,49.8,49.8,0,0,1,5.46.18l1.36.15,1.35.25c.45.09.89.23,1.33.34s.85.35,1.27.51a17.93,17.93,0,0,0-5.34-.82c-1.8-.08-3.61,0-5.42,0s-3.61.19-5.41.35-3.61.31-5.4.53l-1.48.18,1.24-.79a2.4,2.4,0,0,0,.79-2.49,10.89,10.89,0,0,0-1-2.89A36.44,36.44,0,0,0,354.29,87.35Z"/><path class="a" d="M385,74.44a8.23,8.23,0,0,1,1.13,4.13,7,7,0,0,1-.34,2.18,7.35,7.35,0,0,1-1,2l-.28-.51a45.46,45.46,0,0,1,9.68.41,24.82,24.82,0,0,1,4.72,1.15,13.36,13.36,0,0,1,4.25,2.29,16.62,16.62,0,0,0-4.39-1.86,33.67,33.67,0,0,0-4.68-.92c-1.58-.22-3.17-.31-4.76-.39s-3.2-.1-4.78,0l-.64,0,.36-.54a7.77,7.77,0,0,0,1-1.78,6,6,0,0,0,.44-2A9.05,9.05,0,0,0,385,74.44Z"/><path class="a" d="M207.77,76.85c.54,3.39.92,6.8,1.16,10.23s.38,6.87.36,10.32a92.58,92.58,0,0,1-.6,10.37,48.7,48.7,0,0,1-2.3,10.3l-2.11-1.7a65.28,65.28,0,0,1,7.61-4.1c1.3-.6,2.61-1.16,3.93-1.71s2.67-1,4-1.47,2.71-.87,4.08-1.27l4.15-1.07c2.8-.56,5.6-1.12,8.45-1.4l2.12-.26c.71-.07,1.42-.08,2.14-.12,1.42,0,2.84-.15,4.27-.16a73.85,73.85,0,0,1,25,4.44,96.87,96.87,0,0,0-16.6-2.21c-2.77-.22-5.55,0-8.32,0-1.38.07-2.76.25-4.13.37-.69.07-1.38.11-2.07.2l-2,.32a87.82,87.82,0,0,0-16.06,4,78.94,78.94,0,0,0-15,6.84L202.18,121l1.56-3.93a46.41,46.41,0,0,0,2.45-9.63,99.27,99.27,0,0,0,1.13-10.08c.27-3.39.37-6.8.45-10.22S207.85,80.28,207.77,76.85Z"/><path class="a" d="M187.4,137.7a210.73,210.73,0,0,1,15.82-18q8.39-8.56,17.45-16.41a293,293,0,0,1,38.72-28.16A269.29,269.29,0,0,1,302.32,54a250.74,250.74,0,0,1,46.12-13c7.88-1.37,15.81-2.4,23.79-3s16-.81,24-.68a267,267,0,0,1,47.59,5.35c31.37,6.27,61.44,18,89.62,33a371.43,371.43,0,0,0-43.78-19.29,302.1,302.1,0,0,0-46-13,266.66,266.66,0,0,0-47.47-5.16c-8-.11-15.94.16-23.88.76S356.45,40.6,348.61,42a250.29,250.29,0,0,0-46,12.74,270,270,0,0,0-42.89,21,293.8,293.8,0,0,0-38.74,28q-9.12,7.76-17.59,16.21A209.07,209.07,0,0,0,187.4,137.7Z"/><path class="a" d="M239.93,60.76a32.59,32.59,0,0,1,3.41,6.35,30.18,30.18,0,0,1,2,7,22.33,22.33,0,0,1-.18,7.38,19.07,19.07,0,0,1-3,6.86L241.22,87a115.22,115.22,0,0,1,14.23-2.31,119.22,119.22,0,0,1,14.39-.55,88.19,88.19,0,0,1,14.32,1.62,58.34,58.34,0,0,1,6.93,2,50.58,50.58,0,0,1,6.61,2.8,69.56,69.56,0,0,0-6.8-2.15c-2.28-.66-4.64-1-6.95-1.43a113.35,113.35,0,0,0-14.13-1c-4.73,0-9.46.25-14.17.74a136.27,136.27,0,0,0-14,2.07l-2.19.44,1.25-1.85a18.56,18.56,0,0,0,2.91-6.14,22.37,22.37,0,0,0,.51-6.89,33.67,33.67,0,0,0-1.42-6.91A39.14,39.14,0,0,0,239.93,60.76Z"/><path class="a" d="M281,44.86a26.16,26.16,0,0,1,1.39,4.93,24.56,24.56,0,0,1,.43,5.14,18.23,18.23,0,0,1-.95,5.11,14,14,0,0,1-2.71,4.49l-.35-.7c4.4-.51,8.8-.75,13.21-.83a110.13,110.13,0,0,1,13.22.55c2.2.23,4.39.52,6.56.93s4.32,1,6.44,1.59a36.69,36.69,0,0,1,6.14,2.48,23.68,23.68,0,0,1,5.43,3.75,32.22,32.22,0,0,0-11.75-5.64,78.14,78.14,0,0,0-12.91-2.22c-4.36-.41-8.74-.49-13.12-.48s-8.77.25-13.12.69l-1.09.12.74-.82a13.27,13.27,0,0,0,2.68-4.15,17.66,17.66,0,0,0,1.06-4.89,26.06,26.06,0,0,0-.2-5.07A29.34,29.34,0,0,0,281,44.86Z"/><path class="a" d="M316.41,33.39A21,21,0,0,1,318.52,37a14.39,14.39,0,0,1,1.27,4,8.79,8.79,0,0,1-.32,4.19,8.2,8.2,0,0,1-2.58,3.36l-.21-.51a65,65,0,0,1,12.55-.26,61.87,61.87,0,0,1,12.37,2.08,46.58,46.58,0,0,1,11.57,4.82,37.87,37.87,0,0,1,9.61,8A41.28,41.28,0,0,0,352.94,55a44.87,44.87,0,0,0-5.62-2.63,50.87,50.87,0,0,0-5.9-1.94,69.3,69.3,0,0,0-12.25-2,71.43,71.43,0,0,0-12.41.11l-1,.1.78-.61A7.65,7.65,0,0,0,319,45a8.47,8.47,0,0,0,.4-4A14.05,14.05,0,0,0,318.35,37,21.57,21.57,0,0,0,316.41,33.39Z"/><path class="h" d="M354.36,26.67s2.86,10.35-.76,13.95c0,0,35-3,44,5.15"/><path class="c" d="M191.48,128s6.91,1,8.1,1.27-12.66,11-12.66,11l-4-4.13Z"/><path class="i" d="M252.61,152.68S325.22,37,488.21,57.41"/><path class="a" d="M258.55,121.34a24.87,24.87,0,0,1,4,2.53,18,18,0,0,1,3.35,3.4,8.14,8.14,0,0,1,1.7,4.57,6.75,6.75,0,0,1-.47,2.48,8.69,8.69,0,0,1-1.3,2.12l-.59-.75a22.43,22.43,0,0,1,5.5-1.64,18.91,18.91,0,0,1,5.72-.07,13.57,13.57,0,0,1,5.34,2c.4.27.79.54,1.17.83l1,1a7.21,7.21,0,0,1,.93,1.06l.84,1.13a15.29,15.29,0,0,0-4.24-3.55,12.84,12.84,0,0,0-5.18-1.64,19.17,19.17,0,0,0-5.45.22,23.91,23.91,0,0,0-5.23,1.56l-1.92.84,1.33-1.59a6.4,6.4,0,0,0,1.61-4,7.78,7.78,0,0,0-1.39-4.17,18.16,18.16,0,0,0-3-3.47A30.46,30.46,0,0,0,258.55,121.34Z"/><path class="a" d="M282,102a22.92,22.92,0,0,1,3.31,2.2,15,15,0,0,1,2.83,2.85,6.26,6.26,0,0,1,1.43,3.82,4.55,4.55,0,0,1-.56,2,6.9,6.9,0,0,1-1.31,1.63l-.33-.6A30,30,0,0,1,293,113a28.48,28.48,0,0,1,5.69.09,18.89,18.89,0,0,1,5.46,1.57,12.84,12.84,0,0,1,4.35,3.59,13.81,13.81,0,0,0-4.52-3.22,18.67,18.67,0,0,0-5.37-1.3,27.82,27.82,0,0,0-5.55,0,38.78,38.78,0,0,0-5.49.89l-1.3.33,1-.93a6,6,0,0,0,1.19-1.43,3.77,3.77,0,0,0,.5-1.73,5.9,5.9,0,0,0-1.19-3.51,16.67,16.67,0,0,0-2.61-2.9A29.4,29.4,0,0,0,282,102Z"/><path class="a" d="M315.69,80a14.86,14.86,0,0,1,2.37,2.45,10.16,10.16,0,0,1,1.68,3A6.46,6.46,0,0,1,320,89a6.69,6.69,0,0,1-1.83,3l-.29-.58a39.84,39.84,0,0,1,6.06-.58,33.53,33.53,0,0,1,6.08.47,18.17,18.17,0,0,1,5.76,2A10.69,10.69,0,0,1,340,97.54a11.71,11.71,0,0,0-2-2.23,12.42,12.42,0,0,0-2.49-1.63A19.31,19.31,0,0,0,329.9,92a32.92,32.92,0,0,0-6-.37,44,44,0,0,0-5.95.5l-1,.17.71-.74a6.33,6.33,0,0,0,1.7-2.69,5.78,5.78,0,0,0-.1-3.19,10.72,10.72,0,0,0-1.46-3A17.86,17.86,0,0,0,315.69,80Z"/><path class="a" d="M343.81,66.64a24,24,0,0,1,2.77,1.4,16.79,16.79,0,0,1,2.56,1.79,6.18,6.18,0,0,1,1.95,2.56,2.49,2.49,0,0,1-.1,1.74,3.65,3.65,0,0,1-1.11,1.28l-.12-.61c1.64.41,3.27.84,4.86,1.39s3.18,1.13,4.73,1.81a24.66,24.66,0,0,1,4.43,2.47,10,10,0,0,1,1.88,1.73,3.71,3.71,0,0,1,.92,2.33,3.79,3.79,0,0,0-1.11-2.17,10.28,10.28,0,0,0-1.93-1.54,27.52,27.52,0,0,0-4.44-2.23c-1.54-.64-3.11-1.2-4.7-1.71s-3.19-1-4.8-1.41l-.7-.18.58-.43a3,3,0,0,0,.91-1,1.76,1.76,0,0,0,.09-1.28,5.61,5.61,0,0,0-1.66-2.38A27.12,27.12,0,0,0,343.81,66.64Z"/><path class="a" d="M376.6,55A25.42,25.42,0,0,1,378,57.42,18.45,18.45,0,0,1,379.13,60a8.86,8.86,0,0,1,.58,2.82,3,3,0,0,1-.34,1.5,2.17,2.17,0,0,1-1.27,1l-.05-.66a66.38,66.38,0,0,1,9.46,1.83,33.78,33.78,0,0,1,4.56,1.6,13.36,13.36,0,0,1,2.13,1.17A4.91,4.91,0,0,1,395.87,71a8.59,8.59,0,0,0-4-2.49,42.17,42.17,0,0,0-4.57-1.37c-1.54-.39-3.1-.71-4.67-1s-3.13-.58-4.71-.79l-1.8-.25,1.75-.41a1.77,1.77,0,0,0,1.19-1.86,8.52,8.52,0,0,0-.41-2.66A33,33,0,0,0,376.6,55Z"/><polygon class="a" points="411.71 89.4 420.08 97.26 417.53 84.7 411.71 89.4"/><polygon class="a" points="379.67 102.46 403.94 111.4 374.47 106.91 379.67 102.46"/><path class="f" d="M472.7,79.42S564,86.66,513.57,126c0,0-44.52,3.29-65.93.9"/><polygon class="a" points="452.84 129 375.4 0 477.29 131.72 452.84 129"/><polygon class="a" points="475.96 77.42 472.6 95.13 484.59 76.52 475.96 77.42"/><polygon class="a" points="527.63 93.81 506.32 104.21 533.71 99.73 527.63 93.81"/><path class="j" d="M106.14,342.86q31.5-10.55,63.43-18.92,11.49-3,23-5.74c7.27-1.72,14.1-3,22.08-6.28,1.63-.66,2.89-2.19,4.29-3.38a141.75,141.75,0,0,1-53.28-7.22c-7.53-2.54-15.89-7-17.33-15.91-1.74-10.67,7.51-19.85,16-25.42,30.89-20.32,67.15-30.38,93.52-58,7.48-7.84,14.45-19.21,11.56-29.9-2.68-9.89-12.42-14.24-21.19-16.85-29.89-8.89-61.12-11.55-91.85-16.56s-61.63-12.63-88-30.36c10.06,18,20.45,37.24,20.35,59.05-.08,16.7-6.35,32.76-12.12,48.41C56,271.56,38.72,330.27,1.59,374c18.57-6.65,37.69-12,56.26-18.66,4.52-1.62,9.21-3.34,12.77-7,7.15-7.38,7.49-19.32,11-28.79C86,308,89.29,296,93,284.17q11.44-36.89,22.9-73.76l7.79-25.08a5.3,5.3,0,0,1,1.62-2.9,3.83,3.83,0,0,1,2.8-.35l95.57,13.06L127,246.91c-3,1.6-6.09,3.29-8.27,6.16s-3.18,6.45-4.15,10l-9.36,80.71,7.42-2.95"/><path class="a" d="M85.06,195.07s1.89,1.22,11.45,5l-6.86,25.47L77,218.11Z"/><polygon class="k" points="61.06 262.24 55.56 276.94 75.94 293.3 61.06 262.24"/><polygon class="k" points="85.06 247.41 92.61 282.59 79.36 273.6 85.06 247.41"/><polygon class="k" points="76.67 218.95 85.06 247.41 70.01 237.04 76.67 218.95"/><polygon class="k" points="75.95 293.91 81.9 316.16 76.6 334.49 75.95 293.91"/><path class="k" d="M68.34,108.31l57,74.09s-.87.37-2.92,7-.21.68-.21.68L88.68,168.14S80.2,120.23,68.34,108.31Z"/><path class="k" d="M44.05,305.29l13.58,49.24a24.31,24.31,0,0,0,14.82-10.27Z"/><path class="k" d="M117.56,254.8,158,327.06s52.38-13.38,56.72-15.14l3.54-2.7s-25.35-.77-36-3.42c0,0-36.43-4.59-34-23.94,0,0-14.8-26.45-5.19-43.54C143,238.32,120.61,248.24,117.56,254.8Z"/><polygon class="k" points="117.56 254.8 151.24 328.94 145.51 330.58 116.72 256.44 117.56 254.8"/><polygon class="k" points="110.04 308.44 126.45 336.3 106.14 342.86 110.04 308.44"/><polygon class="k" points="96.52 200.03 106.88 235.35 88.83 225.02 96.52 200.03"/><polygon class="k" points="246.08 270.92 267.07 295.42 294.73 285.63 253.26 269.5 246.08 270.92"/><polygon class="k" points="259.78 268.05 300.29 283.54 306.85 281.01 262.27 267.45 259.78 268.05"/><path class="k" d="M236.27,294.92l7.85,7.62s-12.62,4.36-14.37,5.86c0,0-2.92,1.39.52-3.47Z"/><path class="k" d="M293.79,160.28s-5.67,33.91,13.72,34c0,0-6.46,13.61,12.34,19.05,0,0-.67,16.11,5.68,21.94,0,0-1.43-2.52-18.67-7.25s-23.34-9.83-30.25-16.86-7-20.64,4-36.79C280.6,174.41,289.77,162,293.79,160.28Z"/><path class="l" d="M520.29,121.42s-54,16-60.19,19.27l-14.87,28.43-18.69,3.64L397.6,252.43l157-43.59,24.88-29.34L443.89,217.84l28.95-71.13,31.35-13.33L478.82,200.5l109.47-28.72,13.3-12.17L496.75,186.46Z"/><polygon class="k" points="584.53 177.25 558.75 209.18 569.07 205.31 592.91 175.16 584.53 177.25"/><path class="f" d="M268.59,194.64S261.7,233,307.94,234.49C307.94,234.49,254.12,246.42,268.59,194.64Z"/><path class="f" d="M189.09,251.13S133.88,284.48,178,297.36c0,0,15.09,5,29.67,3.59C207.71,301,141,295.34,189.09,251.13Z"/><polygon class="f" points="401.57 215.82 390.39 252.93 379.72 255.64 403.51 207.42 401.57 215.82"/><polygon class="k" points="551.4 191.05 545.26 200.64 559.68 196.56 569.04 185.23 551.4 191.05"/><polygon class="k" points="534.37 196.58 529.63 205.83 542.06 201.57 547.71 192.08 534.37 196.58"/><polygon class="k" points="523.71 199.53 518.03 209.13 526.82 206.34 532.11 197.15 523.71 199.53"/><polygon class="k" points="426.54 172.75 437.61 241.32 397.6 252.43 426.54 172.75"/><polygon class="k" points="493.67 161.21 497.54 184.27 496.75 186.46 498.2 186.09 500.58 194.79 490.23 197.5 478.82 200.5 493.67 161.21"/><polygon class="k" points="430.93 171.81 445.47 239.14 439.05 240.93 429.27 172.22 430.93 171.81"/><path class="a" d="M341.8,226.87s34.47,15.15,2.8,30.38C344.6,257.25,393.16,241.48,341.8,226.87Z"/><path class="m" d="M420.76,124.24s13.3.54,16.19,1.14c0,0,7.32.86,8.17,1.07a31.64,31.64,0,0,0,4.61.64l2.07.17L440.25,108s-17.89,4.23-23.4,16.1"/><path class="m" d="M458.27,107.12s37.55,1.92,30.59,20.2l-14.67.39Z"/><path class="a" d="M438.68,105.41s-17.57,3.52-25.47,18.65l-7.13,0s7.84-15,32-19.76"/><path class="a" d="M455.43,103.46s19.6,0,31.45,7.93,5.91,15.77,5.91,15.77l4.58-.21s7.08-16.25-22.43-22.49c0,0-15.27-2.56-20.34-2.07"/><path class="n" d="M351.85,130.29s15.56-14.69,28.69-22.46l2.73.42s-25.79,17.64-23.8,20.52Z"/><path class="n" d="M385.64,104.66l.22-.13c2.41-1.34,23.4-13,27.39-13.68l1,.92-26.34,13.72"/><polygon class="n" points="418.38 88.88 426.81 86.06 428.21 87.96 418.6 89.99 418.38 88.88"/><path class="n" d="M440.54,84.21s26.83-5.27,34.9-4l.09-.47s-15.12-1.27-36.11,3.06Z"/><path class="n" d="M481.73,81s40.64,8.37,38.88,16.29l3.77-1.84a39.3,39.3,0,0,0-11.83-7.23C504.7,84.9,491.1,81.6,482,80.52Z"/><path class="a" d="M434.06,128.77a21.61,21.61,0,0,1,10.43-9.58,24.17,24.17,0,0,1,7-1.89c.6-.11,1.21-.09,1.81-.14s1.21-.09,1.81-.07c1.21,0,2.41.06,3.61.14a42.22,42.22,0,0,1,13.92,3.56,16.3,16.3,0,0,1,5.81,4.3,4.84,4.84,0,0,1,1.06,3.46,5.15,5.15,0,0,1-1.82,3,5.21,5.21,0,0,0,1.55-3.08,4.47,4.47,0,0,0-1.18-3.13,15.87,15.87,0,0,0-5.74-3.9,43.5,43.5,0,0,0-13.69-3.26c-1.17-.1-2.35-.18-3.52-.19-.6,0-1.18,0-1.76,0a16.77,16.77,0,0,0-1.75.11,26.4,26.4,0,0,0-6.79,1.69,22.38,22.38,0,0,0-6,3.6A21.94,21.94,0,0,0,434.06,128.77Z"/><path class="k" d="M187.38,137.86s23.07-38.55,81.29-28.07l-32.6,32.87S189.45,139.42,187.38,137.86Z"/><path class="k" d="M208.85,113.1l2.47-1.07S231.59,92.1,239.41,88.2c0,0,7.15-6.78,3.22-20.44l-24,14.45S219.34,102.56,208.85,113.1Z"/><path class="k" d="M244.66,85.11S307.51,69,327.59,70.56l-32,19S286.2,80.27,244.66,85.11Z"/><path class="k" d="M280.57,63.15s19.79-12.85,22.94-21l-21.29,7.23S284.93,55.65,280.57,63.15Z"/><path class="k" d="M326.27,47.44s40.34-9.21,47-8.12c0,0,19.24.87,25.92,8.84C399.21,48.16,346.16,45.44,326.27,47.44Z"/><path class="k" d="M370.43,30.73s23.78.6,27.18,6.27l-3.82-6.38A216.78,216.78,0,0,0,370.43,30.73Z"/><path class="k" d="M426.2,33.7S490.53,51.17,503.58,60c0,0-4.29-5.2-6.56-6.15A293.91,293.91,0,0,0,426.2,33.7Z"/><path class="k" d="M252.76,151l12.87-16.53s3.08-4.32-4.11-10.23l-11.2,10.62-11.5,12S250.25,149.59,252.76,151Z"/><path class="k" d="M268.07,134.65s26-17.84,36.3-19c0,0-3.69-3.3-16.4-.87C288,114.77,268.88,132.38,268.07,134.65Z"/><path class="k" d="M318.27,83.59s2.49,4.55-.14,7.12l-20.81,14.46s7.05-11.51,4.89-12.09Z"/><path class="k" d="M321,90.76s24.67-13.82,29.14-14.84c0,0,8.88,2.53,9.89,3.33L345.64,86.6A72.4,72.4,0,0,0,321,90.76Z"/><path class="k" d="M378.25,59.84s-.06,1.75-7.56,6.49L378.47,64S379.45,62.91,378.25,59.84Z"/><path class="k" d="M381.32,64.9s20.63-1.19,31.15-3.15l-21.6,5.56S384.08,65,381.32,64.9Z"/><path class="k" d="M420,57.59l35.41-1S428.71,58.29,421.81,60Z"/><path class="k" d="M309.52,142.18s12.82-14.8,18.88-19.41c0,0,13.16-4.5,15.36-4l-17.32,18Z"/><path class="k" d="M332.52,108.76s1,6.74-3.41,11.32c0,0,27.1-22.37,29-22.75,0,0,.84-1.78-1.26-5.16Z"/><path class="k" d="M384.93,83.08l-13.26,7.53s8.64-1.84,8.51.14-3.49,3.9-3.49,3.9,19.4-10.73,20.71-10.48A90,90,0,0,0,384.93,83.08Z"/><path class="k" d="M397.51,72l19.69-2.38-1.82-3S401.78,70.38,397.51,72Z"/><path class="k" d="M428.28,68.36l3.37,4.35s20.57-4.83,35.74-5.23a130.23,130.23,0,0,0-27-.9S430.77,67.58,428.28,68.36Z"/><path class="k" d="M382.55,110.08l19.6,2.7-33,7.28S380.53,109.8,382.55,110.08Z"/><path class="k" d="M398.64,103.22,412,94.79l6.56,4.73A53.46,53.46,0,0,0,398.64,103.22Z"/><path class="k" d="M444.37,85.59s14.32-3.7,27.36-3.83l-12.32,6.08S454.13,85.09,444.37,85.59Z"/><path class="k" d="M483.25,84.16s29.59,4.47,34.49,11.22l-4.2.26c-2,.13-4.82.86-6.7.09a7,7,0,0,1-1.49-.92c-4-3-7.94-5.83-12.64-7.56C489.6,86.11,486.43,85.1,483.25,84.16Z"/><path class="k" d="M511.52,105.22s11.56-.59,15-2.73c0,0-1.76,12.13-6.5,16.54h0S521.75,107.92,511.52,105.22Z"/><polyline class="k" points="96.52 200.03 114.78 210.43 106.88 235.44"/><polyline class="k" points="85.06 247.41 88.83 225.02 76.67 218.95"/><polyline class="k" points="92.61 282.59 100.8 254.8 85.06 247.75"/><polyline class="k" points="75.65 292.69 79.36 273.6 61.68 260.16 61.06 262.24"/><polygon class="k" points="75.94 293.3 87.31 298.63 81.9 316.16 75.65 293.07 75.94 293.3"/><polyline class="k" points="44.05 305.29 32.05 329.91 45.55 358.38 57.63 354.53"/><line class="j" x1="145.88" y1="136.84" x2="242.09" y2="152.89"/><path class="a" d="M364,39.23a46.4,46.4,0,0,1,8.5-.29A58.59,58.59,0,0,1,381,40a55.49,55.49,0,0,1,8.21,2.28c1.35.45,2.65,1,3.95,1.59s2.53,1.28,3.8,1.91A72.87,72.87,0,0,0,389,42.63a61.15,61.15,0,0,0-8.18-2.15,64.12,64.12,0,0,0-8.39-1.16A58.38,58.38,0,0,0,364,39.23Z"/></svg>