<svg xmlns="http://www.w3.org/2000/svg" viewBox="0 0 600 265.67"><defs><style>.a{fill:#fff;}.b{fill:#737373;}</style></defs><title>rsl-white</title><path class="a" d="M518.7,13.11s-54,16-60.19,19.28L443.64,60.81,425,64.45,396,144.13l157-43.6,24.88-29.34L442.29,109.53l29-71.13L502.6,25.07,477.22,92.19,586.69,63.47,600,51.3,495.15,78.15Z"/><polygon class="a" points="582.94 68.94 557.16 100.87 567.48 97.01 591.32 66.85 582.94 68.94"/><polygon class="a" points="399.98 107.52 388.8 144.62 378.13 147.34 401.92 99.12 399.98 107.52"/><polygon class="b" points="549.81 82.75 543.66 92.34 558.09 88.25 567.45 76.93 549.81 82.75"/><polygon class="b" points="532.78 88.28 528.04 97.53 540.47 93.27 546.12 83.78 532.78 88.28"/><polygon class="b" points="522.11 91.23 516.44 100.82 525.23 98.03 530.52 88.85 522.11 91.23"/><path class="a" d="M445,30.28c-5.14-.27-13.12-2.71-18.29-3l-.5,0c-12.17-.57-24.35-1.19-36.56-1.23-23.76-.09-47.94,2-71,10.75-10.39,4-20.56,9.33-29.12,17.25-9.26,8.57-19.56,23.51-18.77,37.47.32,5.65,3.55,10.43,7.29,14,11.35,10.87,27.3,13.25,41.54,18.74,2.75,1.06,5.93,3.07,5.63,6.39-.19,2.09-1.76,3.72-3.3,5-5.16,4.26-11.16,6.94-17.15,9.33a322.51,322.51,0,0,1-60.33,17.59,2.22,2.22,0,0,0-1.7.94,2.84,2.84,0,0,0-.23,1.23c-.24,6.54-3.11,12.4-5.95,18.11a131,131,0,0,1-7.41,13c-1.07,1.65-4.14,5.9-.07,3.82,10.49-5.35,22.1-7.82,33.05-11.44q17.4-5.78,34.64-12.28c13.09-4.94,26.73-8.93,39.64-14.5,9.64-4.17,26.82-7.38,32.65-17.91,2.88-5.19,1.74-13.94-1.21-18.73s-7.68-7.81-12.55-9.92c-10.56-4.56-22.12-5.38-33.05-8.6-5.25-1.54-14.19-3.89-16.77-10.2-8.3-20.22,41.13-35.72,52-38.34,22.51-5.43,44.05-8.55,65.36-.63"/><path class="a" d="M267,86.33s-6.89,38.38,39.35,39.85C306.35,126.18,252.53,138.11,267,86.33Z"/><path class="b" d="M340.21,118.56s34.47,15.16,2.8,30.38C343,148.94,391.57,133.18,340.21,118.56Z"/><path class="a" d="M104.55,234.55Q136.05,224,168,215.63q11.49-3,23-5.73c7.28-1.72,14.11-3,22.09-6.28,1.63-.67,2.89-2.2,4.29-3.39A141.75,141.75,0,0,1,164.1,193c-7.53-2.55-15.89-7-17.33-15.91-1.74-10.68,7.5-19.85,16-25.42,30.89-20.33,67.16-30.38,93.53-58,7.48-7.85,14.45-19.21,11.56-29.9-2.68-9.9-12.42-14.25-21.19-16.85C216.75,38,185.52,35.37,154.79,30.36S93.15,17.73,66.75,0C76.81,18,87.2,37.24,87.1,59.05,87,75.75,80.75,91.82,75,107.47,54.42,163.26,37.13,222,0,265.67c18.57-6.65,37.69-12,56.26-18.65,4.52-1.62,9.21-3.35,12.77-7,7.15-7.37,7.49-19.31,11-28.78,4.32-11.51,7.63-23.57,11.29-35.36q11.44-36.88,22.9-73.76L122.05,77a5.3,5.3,0,0,1,1.62-2.9,3.83,3.83,0,0,1,2.8-.34l95.57,13L125.35,138.6c-3,1.61-6.08,3.29-8.26,6.16s-3.18,6.46-4.15,10"/><path class="b" d="M67.69,79s17.67,9,27.23,12.76l-6.86,25.47L60,100.86Z"/><path class="b" d="M110,130.07,88.06,117.19l-4.59,21.92,26.15,17.34S111.1,133.91,110,130.07Z"/><polygon class="b" points="83.47 139.11 77.77 165.29 51.95 147.87 60.7 122.95 83.47 139.11"/><polygon class="b" points="77.77 165.29 103.18 182.54 101.89 211.67 74.35 185 77.77 165.29"/><polygon class="b" points="74.35 185 74.64 240.61 41.48 195.66 49.51 165.05 74.35 185"/><path class="a" d="M187.49,142.83s-55.2,33.34-11,46.23c0,0,15.09,4.95,29.67,3.59C206.12,192.65,139.37,187,187.49,142.83Z"/></svg>