<?xml version="1.0" encoding="utf-8"?>
<!-- Generator: Adobe Illustrator 24.0.0, SVG Export Plug-In . SVG Version: 6.00 Build 0)  -->
<svg version="1.1" id="圖層_1" xmlns="http://www.w3.org/2000/svg" xmlns:xlink="http://www.w3.org/1999/xlink" x="0px" y="0px"
	 viewBox="0 0 512 512" style="enable-background:new 0 0 512 512;" xml:space="preserve">
<style type="text/css">
	.st0{fill:#040000;}
	.st1{fill:#FFFFFF;}
	.st2{fill:#100F2A;}
	.st3{fill:#362F53;}
	.st4{fill:#0E0E29;}
	.st5{fill:#352E51;}
</style>
<g id="图层_1">
	<g>
		<path id="XMLID_545_" class="st0" d="M512,159.1c0,0-10.7,10.8-37.1,25.2c-20.3,11.1-38.7,14.8-47.4,16.5
			c-8.7,1.6-7.6-3.4-7.6-3.4l7.6-21c0,0,0.8-3.9-0.3-13.1c-1.3-11-12.6-36.2-51.8-36.6s-56,11.8-56,11.8s-3.1-5.3-9.5-6.1
			c-7.1-1-12.7,4.1-12.7,4.1S232.7,373,232.2,375.1c-0.3,1.2,2.8,8.9,11.8,10.1c9.1,1.3,12.1-5.3,12.1-5.3l2.7-7.4l3.1-27.1
			c0,0,4.7,2.4,6.8-13c1.8-12.7,24.4-33.7,40.9-42.1c27.6-14.1,51.2-5.1,51.2-5.1s-6,22.2-7.4,30.2c-1.4,8-9.1,26.9,34.9,15.2
			c43.9-11.7,78.5-45.9,95.8-78.5C501.1,215.2,512,159.1,512,159.1z"/>
		<path id="XMLID_2_" class="st0" d="M0,159.1c0,0,10.7,10.8,37.1,25.2c20.3,11.1,38.7,14.8,47.4,16.5c8.7,1.6,7.6-3.4,7.6-3.4
			l-7.6-21c0,0-0.8-3.9,0.3-13.1c1.3-11,12.6-36.2,51.8-36.6s56,11.8,56,11.8s3.1-5.3,9.5-6.1c7.1-1,12.7,4.1,12.7,4.1
			s64.6,236.6,65.2,238.7c0.3,1.2-2.8,8.9-11.8,10.1c-9.1,1.3-12.1-5.3-12.1-5.3l-2.7-7.4l-3.1-27.1c0,0-4.7,2.4-6.8-13
			c-1.8-12.7-24.4-33.7-40.9-42.1c-27.6-14.1-51.2-5.1-51.2-5.1s6,22.2,7.4,30.2c1.4,8,9.1,26.9-34.9,15.2
			c-43.9-11.7-78.4-45.9-95.7-78.4C10.9,215.2,0,159.1,0,159.1z"/>
		<g id="XMLID_495_">
			<g id="XMLID_533_">
				<path id="XMLID_543_" class="st1" d="M57.9,242c2.6,8.4,5.6,16.6,7.9,23.2c-7.9-3.7-13.5-5.9-22.5-11.5
					c-2.4-6.7-6.6-15.6-8.7-22.8C40.6,234.8,47.2,237.9,57.9,242z"/>
				<path id="XMLID_542_" class="st1" d="M27.3,205.5c1.9,7.6,4.9,17.2,7.4,25.7c-6.2-3.9-10.3-7.2-13-9c-2.3-6.2-4.3-12.1-6.2-17.8
					c-0.8-2.5-1.5-4.8-2.3-7.1C18.4,200.9,22.5,202.7,27.3,205.5z"/>
				<path id="XMLID_541_" class="st1" d="M57.2,241.8c-2.1-8.3-4-15-5.8-23.8c10,4.4,19.1,8.4,26.7,10.3c2,7,4.4,15.8,6.8,24
					C75.2,249.3,64.1,245,57.2,241.8z"/>
				<path id="XMLID_540_" class="st1" d="M102.7,231.3c-4.9-0.1-13.6-0.2-24.6-3c-4.3-15.1-6.6-25.6-6.6-25.6
					c7.2,1.7,12.5,2.8,17.6,2.8c1.9,0,4.6-0.6,5.3-0.9C97.2,214.5,99.9,222.8,102.7,231.3z"/>
				<path id="XMLID_539_" class="st1" d="M139.4,305.6c0.7,0.4-9.6-0.4-9.6-0.4c-3.8-8.4-6.6-14.7-10.1-23.6
					c3.6,0.3,6.5,0.2,6.5,0.2S129.8,296.6,139.4,305.6z"/>
				<path id="XMLID_538_" class="st1" d="M116.9,257.3c-2-0.3-4.1,0.1-6-0.2c-2.6-7.5-5.4-17-8.2-25.7c3.6,0.1,5.6,0.1,5.6,0.1
					L116.9,257.3z"/>
				<path id="XMLID_537_" class="st1" d="M31.2,245.1c3.1,2.2,9.1,6.9,12.1,8.8c3.8,10.6,4.7,13.7,8,20.5
					C51.4,274.4,35.2,257,31.2,245.1z"/>
				<path id="XMLID_536_" class="st1" d="M51.5,218c-7.4-3.3-15.5-7.3-24.1-12.4c-3-11.9-4.2-20.4-5.1-24.9
					c6.7,4.5,14.8,9,23.3,12.9c0.1,0.4,0.2,0.7,0.3,1C48,203.3,49.3,210.2,51.5,218z"/>
				<path id="XMLID_535_" class="st1" d="M65.7,265.3c9.6,4.5,19.8,8.6,27.4,11c3.2,9.5,5.4,14.8,8.5,23.2c-11-3.1-16.8-5.3-27-11.7
					C72.8,284.1,69.8,273.8,65.7,265.3z"/>
				<path id="XMLID_534_" class="st1" d="M110.9,257c3.3,9.3,5.8,17.1,8.8,24.7c-5.5-0.5-14.3-1.7-26.8-5.6
					c-2.5-8-5.5-15.8-7.9-23.9C94.3,255.5,103.3,256.5,110.9,257z"/>
			</g>
			<g id="XMLID_522_">
				<path id="XMLID_532_" class="st1" d="M189.5,222.6c-2-9.5-4.3-19.4-6.3-29c8.5,2.1,18.5,6.8,27.6,12.8c0.1,0.1,0.3,0.2,0.4,0.2
					l9.1,32c-0.5-0.5-0.8-0.8-0.8-0.8S206.5,228.5,189.5,222.6z"/>
				<path id="XMLID_531_" class="st1" d="M200.8,171.8c-1.5-0.9-13-8.3-26.6-13.2c-3.2-11.7-5.6-19-7.2-24.5
					c15.6,2.8,26.2,9.4,26.2,9.4L200.8,171.8z"/>
				<path id="XMLID_530_" class="st1" d="M201.8,284.9L201.8,284.9c-0.3-1.8-3.2-15.8-6.2-31.3c9.9,4,21.9,12.5,34.5,19.8l13.1,45.4
					C234.3,309.2,216.1,291.1,201.8,284.9z"/>
				<path id="XMLID_529_" class="st1" d="M143.2,189.6c2.7,9.7,5,19.4,7.6,29c-12.2,0.8-24.1,3.4-32,15.2l-8.6-26.6
					C114.2,194.9,129.2,190.3,143.2,189.6z"/>
				<path id="XMLID_528_" class="st1" d="M190.8,223c3.1,11.6,5.1,22.3,6.9,31.5c-15.8-6.3-28.9-6.4-38.8-6.4
					c-2.2-8.8-5.3-18.9-8.1-29.3C164.2,217.9,181.9,218,190.8,223z"/>
				<path id="XMLID_527_" class="st1" d="M143.2,189.6c-3.4-12.1-6.5-23.5-9.4-33.5c14.7-2.5,27.6-2.3,40.3,2.3
					c2.5,10.3,6.7,23.7,9.4,36.1C166.2,188.7,153.9,188.8,143.2,189.6z"/>
				<path id="XMLID_526_" class="st1" d="M100.6,177.6L93,153.5c3.3-6.3,9.4-12.8,18.5-16.9c5-2.3,9.7-3.5,14.8-4.1
					c1.5,5.1,4.6,13.8,7.5,23.7C121.3,158.2,109,164,100.6,177.6z"/>
				<path id="XMLID_525_" class="st1" d="M133.1,284.4l-6.5-23.1c4.9-7.9,15.7-12.9,32.5-13.3c3.1,12.5,7.2,26.9,7.5,29.3
					c-8.2,0.4-16.7,2.2-21,5.3c-0.6,0.1-9.8,9.7-9.6,9.3C135,290.6,133.9,287.5,133.1,284.4z"/>
				<path id="XMLID_524_" class="st1" d="M116.5,256c-1.5-9.6,0.6-20,2.3-22.1l7.6,27.4c-1.8,3.1-3.8,8.5-1.6,17.1
					C122.5,271.9,119.4,263.9,116.5,256z"/>
				<path id="XMLID_523_" class="st1" d="M95.9,191.4c0.1-7.2,2.6-10.3,4.7-13.8l9.7,29.8c-2.8,6.3-3.3,14.2-3.4,16.7
					C107.5,226,98.2,199,95.9,191.4z"/>
			</g>
			<path id="XMLID_521_" class="st1" d="M53.4,279.4c4.9,8.1,29.5,26.3,29.5,26.3L75.5,288c0,0-6.2-3-12-6.3c-6.4-3.7-12-7.2-12-7.2
				L53.4,279.4z"/>
			<path id="XMLID_520_" class="st1" d="M130.1,305.8l11.4,21.4c0.2,0.4,1,1.9,1,1.9s-0.4,0.3-2.5,0c-16.1-2-27.2-7.1-29-7.8
				c-0.3-0.1-0.6-1.2-0.7-1.3l-8.6-18.5c-0.2-0.5-1.1-1.9-0.8-2.2c0.3-0.3,1.6,0.4,2,0.5c14.7,4.4,23.9,5.4,26.2,5.5
				c0.2,0,0.6,0.1,0.6,0.1S130,305.7,130.1,305.8z"/>
			<g id="XMLID_501_">
				<path id="XMLID_519_" class="st2" d="M183.3,193.5c-1.8-6.8,5.1,18,7.5,29.4c-10.4-4.2-26.6-5.1-39.9-4.2
					c-2.6-9.7-7.7-29.3-7.6-29.2C153.9,188.8,166,187.6,183.3,193.5z"/>
				<path id="XMLID_518_" class="st0" d="M40,260.4c5.6,7.7,11.5,14,11.5,14l1.8,4.5C48.3,273,43.9,266.8,40,260.4z"/>
				<path id="XMLID_517_" class="st2" d="M84.9,252.3c2.4,8.1,5.4,15.8,7.9,23.9c-7.6-2.3-17.5-6.4-27.1-10.9
					c-2.6-6.2-5.6-15-8.2-23.4C64.5,245.1,75,249.9,84.9,252.3z"/>
				<path id="XMLID_516_" class="st2" d="M197.7,254.5c-1.8-9.2-4.6-19.8-6.9-31.5c16.7,6.1,29,14.9,29.6,15.5l10.2,36
					C220.3,266.8,207.6,258.4,197.7,254.5z"/>
				<path id="XMLID_515_" class="st2" d="M110.3,207.4l-9.6-29.5c8.4-13.6,20.7-19.6,33.1-21.7c-0.1-0.2,6,21.3,9.4,33.5
					C127.5,190.9,118.3,196.1,110.3,207.4z"/>
				<path id="XMLID_514_" class="st2" d="M34.7,231.2c2.4,7.3,5.7,15.6,8.1,22.4c-2.9-1.8-7.8-5.8-11.1-8.1
					c-3.9-7.8-7.2-15.7-10-23.3C24.4,224,28.5,227.3,34.7,231.2z"/>
				<path id="XMLID_513_" class="st2" d="M84.9,252.3c-2.4-8.2-4.8-17-6.8-24c11,2.8,19.7,3,24.6,3c2.8,8.7,5.6,18.2,8.2,25.7
					C103.3,256.5,94.3,255.5,84.9,252.3z"/>
				<path id="XMLID_512_" class="st2" d="M22.2,180.6c0.9,4.4,2.2,12.9,5.1,24.9c-4.8-2.8-8.9-4.7-14-8.2c-6-19-9.3-32.3-9.3-32.3
					C7.3,169.5,13.8,175.1,22.2,180.6L22.2,180.6L22.2,180.6z"/>
				<path id="XMLID_511_" class="st2" d="M78.1,228.3c-7.5-2-16.6-6-26.7-10.3c-2.2-7.7-3.5-14.6-5.8-23.4c-0.1-0.4-0.2-0.7-0.3-1
					c8.4,3.9,17.3,7.1,26,9.2C71.5,202.7,73.8,213.2,78.1,228.3z"/>
				<path id="XMLID_510_" class="st2" d="M183.3,193.5c-3.2-13.1-6.5-25.7-9.1-34.9c12.2,4.4,23.2,11.2,27.2,13.8l10.7,35.9
					c-0.7-0.7-0.9-0.8-1-0.9C202,201.5,191.8,195.6,183.3,193.5z"/>
				<path id="XMLID_509_" class="st2" d="M133.7,156.1c-2.9-10-7.2-22.3-7.6-23.9c-0.6,0.1,0.7,0.2,0.1,0.3
					c16.9-3.9,41.7,1.8,40.7,1.7c2.3,8,3.9,12.9,7.2,24.5C161.4,154.1,148.5,153.7,133.7,156.1z"/>
				<path id="XMLID_508_" class="st2" d="M57.6,241.9c-10.3-4.3-16.4-7-22.8-10.7c-2.5-8.4-5.6-18.1-7.4-25.7
					c8.6,5.1,16.7,9.1,24.1,12.4C53.6,227.3,57.7,242.6,57.6,241.9z"/>
				<path id="XMLID_507_" class="st2" d="M65.7,265.3c-0.5-1,7.8,18.9,9.7,22.7l-24-13.5c-3.3-6.7-4.5-10.1-8.3-20.7
					C52.5,259.5,65.3,265.1,65.7,265.3z"/>
				<path id="XMLID_506_" class="st2" d="M119.6,281.7c3.4,9,6.1,15.5,10.1,23.6c-10.1-0.4-32.7-7.2-28.1-5.8
					c-0.5-0.2-5.5-13.2-8.9-23.3C105.4,280,114.1,281.2,119.6,281.7z"/>
				<path id="XMLID_505_" class="st2" d="M150.8,218.8c2.8,10.4,5.9,20.6,8.1,29.3c-16.9,0.1-27.6,5.4-32.5,13.3l-7.6-27.4
					C126.7,222.1,138.6,219.6,150.8,218.8z"/>
				<path id="XMLID_504_" class="st2" d="M124.8,278.5c-2.1-8.6-0.1-14,1.7-17.1l0,0c0,0,8.5,29.2,9.3,30.5c0,0,3.7-5.4,9.6-9.3
					c0,0,8.1,31.9,9.4,40.5c0.3,4.6-4.5,6.5-12.4,6l0,0l-12.7-23.8l0,0c0.1,0,10.2,0.8,9.6,0.4c-10-9.5-13.2-23.7-13.2-23.7
					s-2.9,0.2-6.5-0.2l0,0c-2.9-7.6-5.5-15.3-8.8-24.7l0,0c1.9,0.3,4,0,6,0.2c0,0,0,0,0.1,0.2l-8.6-25.8c-0.1-0.2-0.1-0.2-0.1-0.2
					s-2,0-5.6-0.1l0,0c-2.8-8.5-5.5-16.9-8.4-26.7l0,0c2.6-0.9,4.8-3,4.8-3c-0.1-0.4-5-14-9.6-27l0,0c-0.7-6.9,0.1-14.4,3.6-21.1
					l0,0l7.6,24.2l-0.1-0.2c-2.2,3.6-4.6,6.8-4.7,14l0,0c2.4,7.5,11.7,34.5,11.1,32.7c0.2-2.6,0.6-10.5,3.4-16.7l0,0l8.5,26.4l0,0
					c-1.7,2.1-3.5,13.7-2,23.3l-0.4-1.2C119.3,263.9,122.5,271.9,124.8,278.5L124.8,278.5z"/>
				<path id="XMLID_503_" class="st2" d="M205.9,286.9c-12.5-7-28.6-10-39.3-9.6c-1.8-7.6-3.8-14.6-7.5-29.3
					c8.9-0.5,27.3,0.8,38.8,6.4C201.6,269.6,205.9,286.9,205.9,286.9z"/>
				<path id="XMLID_502_" class="st2" d="M75.5,288c15.1,8.8,27.6,11.9,26.2,11.5l9.5,22.3c-2.1-1.6-4.3-3.2-6.1-4.1
					c-7.4-3.4-14.8-7.3-22.1-12.1L75.5,288z"/>
			</g>
			<path id="XMLID_500_" class="st1" d="M148.7,295.8c0,0,4.1,16.6,5.6,23.6c1.4,7-0.9,7.7-0.9,7.7s1.3-0.7,0.8-5.8
				c-0.6-5.1-5-8.4-6.8-10.5c-1.8-2.1-10.3-8.2-12.4-12.7c-1.7-3.6,3.9-9.2,3.9-9.2C139.2,289.1,148.7,295.8,148.7,295.8z"/>
			<path id="XMLID_499_" class="st3" d="M210.1,139.2l65.8,235.2c-4.3,6-13.3,3.8-13.3,3.8l-66.7-235.7c3-5.4,8.5-5.4,11.7-4.6
				C209.2,138.3,210.1,139.2,210.1,139.2z"/>
			<g id="XMLID_496_">
				<path id="XMLID_498_" class="st4" d="M269.5,378.2c-3.6,0.7-6.9-0.1-6.9-0.1l-66.7-235.6c1.9-3.4,4.7-4.6,7.4-4.9L269.5,378.2z"
					/>
				<path id="XMLID_497_" class="st4" d="M275.9,374.3c-0.5,0.7-1.1,1.3-1.6,2L208,138c1.3,0.4,2.1,1.2,2.1,1.2L275.9,374.3z"/>
			</g>
		</g>
		<g id="XMLID_8_">
			<g id="XMLID_51_">
				<path id="XMLID_61_" class="st1" d="M478.3,230.8c-2.1,7.2-6.3,16.1-8.7,22.8c-9,5.6-14.7,7.8-22.5,11.5
					c2.3-6.6,5.3-14.8,7.9-23.2C465.6,237.6,472.3,234.6,478.3,230.8z"/>
				<path id="XMLID_60_" class="st1" d="M499.5,197.2c-0.7,2.3-1.5,4.7-2.3,7.1c-1.9,5.6-3.9,11.6-6.2,17.8c-2.6,1.8-6.7,5-13,9
					c2.5-8.4,5.6-18.1,7.4-25.7C490.2,202.5,494.3,200.6,499.5,197.2z"/>
				<path id="XMLID_59_" class="st1" d="M427.8,252.1c2.4-8.2,4.8-17,6.8-24c7.5-2,16.6-6,26.7-10.3c-1.9,8.9-3.7,15.5-5.8,23.8
					C448.6,244.7,437.6,249.1,427.8,252.1z"/>
				<path id="XMLID_58_" class="st1" d="M418.5,204.4c0.7,0.2,3.3,0.9,5.3,0.9c5,0,10.3-1.1,17.6-2.8c0,0.1-2.4,10.6-6.6,25.6
					c-11,2.8-19.7,3-24.6,3C412.9,222.6,415.6,214.2,418.5,204.4z"/>
				<path id="XMLID_57_" class="st1" d="M386.7,281.6c0,0,2.9,0.2,6.5-0.2c-3.5,8.9-6.4,15.1-10.1,23.6c0,0-10.2,0.8-9.6,0.4
					C383,296.4,386.7,281.6,386.7,281.6z"/>
				<path id="XMLID_56_" class="st1" d="M404.5,231.2c0,0,2,0,5.6-0.1c-2.8,8.7-5.6,18.2-8.2,25.7c-1.9,0.3-4,0-6,0.2L404.5,231.2z"
					/>
				<path id="XMLID_55_" class="st1" d="M461.3,274.2c3.4-6.8,4.3-9.9,8-20.5c3-1.9,9-6.6,12.1-8.8
					C477.6,256.7,461.3,274.2,461.3,274.2z"/>
				<path id="XMLID_54_" class="st1" d="M467.1,194.3c0.1-0.4,0.2-0.7,0.3-1c8.5-3.9,16.5-8.4,23.3-12.9c-0.9,4.4-2.2,12.9-5.1,24.9
					c-8.6,5.1-16.7,9.1-24.1,12.4C463.5,210,464.8,203.1,467.1,194.3z"/>
				<path id="XMLID_53_" class="st1" d="M438.1,287.5c-10.1,6.4-16,8.6-27,11.7c3.1-8.4,5.4-13.7,8.5-23.2c7.6-2.3,17.8-6.5,27.4-11
					C443.1,273.6,439.9,283.8,438.1,287.5z"/>
				<path id="XMLID_52_" class="st1" d="M427.8,252.1c-2.4,8.1-5.4,15.8-7.9,23.9c-12.5,3.8-21.3,5-26.8,5.6
					c2.9-7.6,5.5-15.3,8.8-24.7C409.6,256.3,418.5,255.3,427.8,252.1z"/>
			</g>
			<g id="XMLID_40_">
				<path id="XMLID_50_" class="st1" d="M293.3,237.6c0,0-0.4,0.3-0.8,0.8l9.1-32c0.2-0.1,0.3-0.1,0.4-0.2c9.1-6,19-10.7,27.6-12.8
					c-2.1,9.7-4.4,19.6-6.3,29C306.3,228.3,293.3,237.6,293.3,237.6z"/>
				<path id="XMLID_49_" class="st1" d="M319.7,143.3c0,0,10.6-6.6,26.2-9.4c-1.6,5.4-4.1,12.7-7.2,24.5
					c-13.6,4.9-25.1,12.3-26.6,13.2L319.7,143.3z"/>
				<path id="XMLID_48_" class="st1" d="M269.4,318.5l13.1-45.4c12.7-7.3,24.7-15.8,34.5-19.8c-3,15.4-5.9,29.5-6.2,31.3l0,0
					C296.7,290.9,278.5,309,269.4,318.5z"/>
				<path id="XMLID_47_" class="st1" d="M402.6,207l-8.6,26.6c-7.8-11.8-19.8-14.4-32-15.2c2.6-9.6,4.9-19.3,7.6-29
					C383.6,190,398.6,194.7,402.6,207z"/>
				<path id="XMLID_46_" class="st1" d="M361.9,218.5c-2.8,10.4-5.9,20.6-8.1,29.3c-9.8-0.1-23,0.1-38.8,6.4
					c1.8-9.2,3.8-19.9,6.9-31.5C330.9,217.8,348.6,217.6,361.9,218.5z"/>
				<path id="XMLID_45_" class="st1" d="M329.4,194.3c2.7-12.5,6.8-25.7,9.4-36.1c12.8-4.6,25.6-4.7,40.3-2.3
					c-2.9,9.9-6,21.3-9.4,33.5C358.9,188.6,346.5,188.5,329.4,194.3z"/>
				<path id="XMLID_44_" class="st1" d="M379,155.9c2.9-9.9,6-18.6,7.5-23.7c5.1,0.6,9.8,1.9,14.8,4.1c9.1,4.1,15.2,10.6,18.5,16.9
					l-7.6,24.2C403.8,163.7,391.4,158,379,155.9z"/>
				<path id="XMLID_43_" class="st1" d="M376.9,291.7c0.2,0.4-9.1-9.2-9.6-9.3c-4.3-3.1-12.8-4.9-21-5.3c0.4-2.4,4.4-16.8,7.5-29.3
					c16.8,0.4,27.6,5.4,32.5,13.3l-6.5,23.1C378.8,287.3,377.7,290.4,376.9,291.7z"/>
				<path id="XMLID_42_" class="st1" d="M387.9,278.3c2.1-8.6,0.1-14.1-1.6-17.1l7.6-27.4c1.7,2.1,3.9,12.5,2.3,22.1
					C393.4,263.7,390.3,271.6,387.9,278.3z"/>
				<path id="XMLID_41_" class="st1" d="M405.9,223.9c-0.2-2.6-0.6-10.5-3.4-16.7l9.7-29.8c2.2,3.6,4.7,6.7,4.7,13.8
					C414.6,198.8,405.3,225.7,405.9,223.9z"/>
			</g>
			<path id="XMLID_39_" class="st1" d="M461.3,274.2c0,0-5.6,3.4-12,7.2c-5.8,3.3-12,6.3-12,6.3l-7.5,17.7c0,0,24.7-18.2,29.5-26.3
				L461.3,274.2z"/>
			<path id="XMLID_38_" class="st1" d="M383,305.1c0,0,0.4,0,0.6-0.1c2.4-0.2,11.5-1.1,26.2-5.5c0.4-0.2,1.8-0.8,2-0.5
				c0.3,0.3-0.6,1.7-0.8,2.2l-8.6,18.5c-0.1,0.2-0.4,1.2-0.7,1.3c-1.8,0.7-12.9,5.8-29,7.8c-2.2,0.3-2.5,0-2.5,0s0.8-1.5,1-1.9
				l11.4-21.4C382.8,305.4,383,305.1,383,305.1z"/>
			<g id="XMLID_17_">
				<path id="XMLID_37_" class="st2" d="M369.6,189.3c0.1-0.1-5,19.5-7.6,29.2c-13.3-0.9-29.5,0-39.9,4.2
					c2.4-11.5,9.3-36.3,7.5-29.4C346.8,187.4,358.9,188.6,369.6,189.3z"/>
				<path id="XMLID_36_" class="st0" d="M459.5,278.7l1.8-4.5c0,0,5.9-6.4,11.5-14C468.9,266.6,464.5,272.8,459.5,278.7z"/>
				<path id="XMLID_35_" class="st2" d="M455.3,241.7c-2.6,8.4-5.6,17.2-8.2,23.4c-9.6,4.5-19.5,8.5-27.1,10.9
					c2.5-8,5.5-15.8,7.9-23.9C437.8,249.7,448.3,244.9,455.3,241.7z"/>
				<path id="XMLID_34_" class="st2" d="M282.3,274.4l10.2-36c0.8-0.9,13-9.3,29.6-15.5c-2.4,11.7-5.1,22.3-6.9,31.5
					C305.2,258.2,292.4,266.5,282.3,274.4z"/>
				<path id="XMLID_33_" class="st2" d="M369.6,189.4c3.4-12.2,9.5-33.6,9.4-33.5c12.4,2.1,24.7,8,33.1,21.7l-9.6,29.5
					C394.5,195.9,385.4,190.6,369.6,189.4z"/>
				<path id="XMLID_32_" class="st2" d="M491,222c-2.8,7.6-6.1,15.4-10,23.3c-3.2,2.3-8.2,6.3-11.1,8.1c2.4-6.7,5.7-15.1,8.1-22.4
					C484.3,227.1,488.4,223.8,491,222z"/>
				<path id="XMLID_31_" class="st2" d="M401.9,256.8c2.6-7.5,5.4-17,8.2-25.7c4.9-0.1,13.6-0.2,24.6-3c-2,7-4.4,15.8-6.8,24
					C418.5,255.3,409.6,256.3,401.9,256.8z"/>
				<path id="XMLID_30_" class="st2" d="M490.6,180.4c8.4-5.6,14.9-11.1,18.2-15.5c0,0-3.3,13.2-9.3,32.3c-5.1,3.4-9.2,5.4-14,8.2
					C488.4,193.3,489.7,184.9,490.6,180.4L490.6,180.4z"/>
				<path id="XMLID_29_" class="st2" d="M441.3,202.5c8.7-2.1,17.6-5.3,26-9.2c-0.1,0.4-0.2,0.7-0.3,1c-2.3,8.8-3.6,15.7-5.8,23.4
					c-10,4.4-19.1,8.4-26.7,10.3C439,213,441.3,202.5,441.3,202.5z"/>
				<path id="XMLID_28_" class="st2" d="M301.7,207.4c-0.1,0.1-0.3,0.2-1,0.9l10.7-35.9c4-2.7,15-9.5,27.2-13.8
					c-2.6,9.2-5.9,21.7-9.1,34.9C321,195.4,310.8,201.3,301.7,207.4z"/>
				<path id="XMLID_27_" class="st2" d="M338.6,158.4c3.3-11.5,4.9-16.4,7.2-24.5c-1.1,0.1,23.8-5.6,40.7-1.7
					c-0.6-0.2,0.7-0.2,0.1-0.3c-0.5,1.6-4.7,14-7.6,23.9C364.3,153.5,351.4,153.8,338.6,158.4z"/>
				<path id="XMLID_26_" class="st2" d="M461.3,217.7c7.4-3.3,15.5-7.3,24.1-12.4c-1.9,7.6-4.9,17.2-7.4,25.7
					c-6.4,3.7-12.4,6.5-22.8,10.7C455.1,242.4,459.2,227,461.3,217.7z"/>
				<path id="XMLID_25_" class="st2" d="M469.6,253.5c-3.8,10.6-4.9,14-8.3,20.7l-24,13.5c1.9-3.8,10.2-23.7,9.7-22.7
					C447.4,264.9,460.3,259.3,469.6,253.5z"/>
				<path id="XMLID_24_" class="st2" d="M419.9,275.9c-3.3,10.1-8.4,23.2-8.9,23.3c4.6-1.3-18,5.4-28.1,5.8
					c4.1-8.1,6.7-14.6,10.1-23.6C398.6,281,407.4,279.8,419.9,275.9z"/>
				<path id="XMLID_23_" class="st2" d="M393.9,233.8l-7.6,27.4c-4.9-7.9-15.5-13.2-32.5-13.3c2.2-8.8,5.3-18.9,8.1-29.3
					C374.1,219.3,386.1,221.9,393.9,233.8z"/>
				<path id="XMLID_22_" class="st2" d="M388,278.2c2.4-6.6,5.5-14.6,8.2-22.4l-0.4,1.2c1.5-9.6-0.3-21.3-2-23.3l0,0l8.5-26.4l0,0
					c2.8,6.3,3.2,14.1,3.4,16.7c-0.6,1.9,8.6-25.2,11.1-32.7l0,0c-0.1-7.2-2.5-10.5-4.7-14l-0.1,0.2l7.6-24.2l0,0
					c3.5,6.7,4.3,14.2,3.6,21.1l0,0c-4.5,13-9.5,26.6-9.6,27c0,0,2.2,2.1,4.8,3l0,0c-2.9,9.8-5.7,18.1-8.4,26.7l0,0
					c-3.6,0.1-5.6,0.1-5.6,0.1s0,0-0.1,0.2l-8.6,25.8c0.1-0.2,0.1-0.2,0.1-0.2c2-0.3,4.1,0.1,6-0.2l0,0c-3.3,9.3-5.8,17.1-8.8,24.7
					l0,0c-3.6,0.3-6.5,0.2-6.5,0.2s-3.2,14.3-13.2,23.7c-0.7,0.4,9.5-0.3,9.6-0.4l0,0l-12.7,24l0,0c-7.9,0.5-12.6-1.3-12.4-6
					c1.3-8.6,9.4-40.5,9.4-40.5c6,3.8,9.6,9.3,9.6,9.3c0.8-1.3,9.3-30.5,9.3-30.5l0,0C388,264.2,390,269.6,388,278.2L388,278.2z"/>
				<path id="XMLID_21_" class="st2" d="M315.1,254.2c11.4-5.5,29.9-6.9,38.8-6.4c-3.7,14.6-5.8,21.7-7.5,29.3
					c-10.7-0.5-26.9,2.6-39.3,9.6C307,286.7,311.2,269.4,315.1,254.2z"/>
				<path id="XMLID_20_" class="st2" d="M429.8,305.4c-7.3,4.8-14.7,8.6-22.1,12.1c-1.9,0.9-4,2.5-6.1,4.1l9.5-22.3
					c-1.4,0.4,11.1-2.7,26.2-11.5L429.8,305.4z"/>
			</g>
			<path id="XMLID_15_" class="st1" d="M374,288.7c0,0,5.6,5.6,3.9,9.2c-2.1,4.4-10.6,10.6-12.4,12.7c-1.8,2-6.3,5.4-6.8,10.5
				s0.8,5.8,0.8,5.8s-2.4-0.7-0.9-7.7c1.5-7,5.6-23.6,5.6-23.6S373.5,288.9,374,288.7z"/>
			<path id="XMLID_12_" class="st5" d="M305.2,137.6c3.2-0.8,8.8-0.7,11.7,4.6l-66.7,235.6c0,0-9,2.2-13.3-3.8l65.8-235.2
				C302.7,138.9,303.7,138,305.2,137.6z"/>
			<g id="XMLID_9_">
				<path id="XMLID_11_" class="st4" d="M309.5,137.3c2.7,0.3,5.5,1.5,7.4,4.9l-66.7,235.6c0,0-3.3,0.8-6.9,0.1L309.5,137.3z"/>
				<path id="XMLID_10_" class="st4" d="M302.7,138.9c0,0,0.8-0.8,2.1-1.2L238.5,376c-0.6-0.7-1.1-1.2-1.6-2L302.7,138.9z"/>
			</g>
		</g>
	</g>
</g>
<g id="图层_2">
</g>
</svg>
