<?xml version="1.0" encoding="utf-8"?>
<!-- Generator: Adobe Illustrator 24.0.0, SVG Export Plug-In . SVG Version: 6.00 Build 0)  -->
<svg version="1.1" id="圖層_1" xmlns="http://www.w3.org/2000/svg" xmlns:xlink="http://www.w3.org/1999/xlink" x="0px" y="0px"
	 viewBox="0 0 512 512" style="enable-background:new 0 0 512 512;" xml:space="preserve">
<title>ace</title>
<path style="fill:#040000;" d="M512,159c0,0-10.7,10.8-37.1,25.2c-14.8,8-30.8,13.5-47.4,16.5c-8.7,1.6-7.6-3.4-7.6-3.4l7.6-21
	c0,0,0.8-3.9-0.3-13.1c-1.3-11-12.6-36.2-51.8-36.6s-56,11.8-56,11.8c-2.1-3.3-5.6-5.5-9.5-6.1c-7.1-1-12.7,4.1-12.7,4.1
	s-64.5,236.5-65,238.6c-0.3,1.2,2.8,8.9,11.8,10.1s12.1-5.3,12.1-5.3l2.7-7.4l3.1-27.1c0,0,4.7,2.4,6.8-13
	c1.8-12.7,24.4-33.7,40.9-42.1c27.6-14.1,51.2-5.1,51.2-5.1s-6,22.2-7.4,30.2s-9.1,26.9,34.9,15.2c44-11.7,78.5-45.9,95.8-78.5
	C501.1,215.1,512,159,512,159z"/>
<path style="fill:#040000;" d="M0,159c0,0,10.7,10.8,37.1,25.2c14.8,8,30.8,13.5,47.4,16.5c8.7,1.6,7.6-3.4,7.6-3.4l-7.6-21
	c0,0-0.8-3.9,0.3-13.1c1.3-11,12.6-36.2,51.8-36.6s56,11.8,56,11.8c2.1-3.3,5.6-5.5,9.5-6.1c7.1-1,12.7,4.1,12.7,4.1
	S279.4,373,280,375.1c0.3,1.2-2.8,8.9-11.8,10.1s-12.1-5.3-12.1-5.3l-2.7-7.4l-3.1-27.1c0,0-4.7,2.4-6.8-13
	c-1.8-12.7-24.4-33.7-40.9-42.1c-27.6-14.1-51.2-5.1-51.2-5.1s6,22.2,7.4,30.2s9.1,26.9-34.9,15.2c-44-11.7-78.4-45.9-95.7-78.4
	C10.9,215.1,0,159,0,159z"/>
<path style="fill:#FFFFFF;" d="M57.9,241.9c2.6,8.4,5.6,16.6,7.9,23.2c-7.9-3.7-13.5-5.9-22.5-11.5c-2.4-6.7-6.6-15.6-8.7-22.8
	C40.6,234.7,47.2,237.8,57.9,241.9z"/>
<path style="fill:#FFFFFF;" d="M27.3,205.4c1.9,7.6,4.9,17.2,7.4,25.7c-6.2-3.9-10.3-7.2-13-9c-2.3-6.2-4.3-12.1-6.2-17.8
	c-0.8-2.5-1.5-4.8-2.3-7.1C18.4,200.8,22.5,202.6,27.3,205.4z"/>
<path style="fill:#FFFFFF;" d="M57.2,241.7c-2.1-8.3-4-15-5.8-23.8c10,4.4,19.1,8.4,26.7,10.3c2,7,4.4,15.8,6.8,24
	C75.5,249.3,66.2,245.8,57.2,241.7z"/>
<path style="fill:#FFFFFF;" d="M102.7,231.2c-8.3,0-16.6-1-24.6-3c-4.3-15.1-6.6-25.6-6.6-25.6c7.2,1.7,12.5,2.8,17.6,2.8
	c1.8,0,3.6-0.4,5.3-0.9C97.2,214.4,99.9,222.7,102.7,231.2z"/>
<path style="fill:#FFFFFF;" d="M139.4,305.5c0.7,0.4-9.6-0.4-9.6-0.4c-3.8-8.4-6.6-14.7-10.1-23.6c2.2,0.2,4.3,0.2,6.5,0.2
	C126.2,281.7,129.8,296.5,139.4,305.5z"/>
<path style="fill:#FFFFFF;" d="M116.9,257.2c-2-0.3-4.1,0.1-6-0.2c-2.6-7.5-5.4-17-8.2-25.7c3.6,0.1,5.6,0.1,5.6,0.1L116.9,257.2z"
	/>
<path style="fill:#FFFFFF;" d="M31.2,245c3.1,2.2,9.1,6.9,12.1,8.8c3.8,10.6,4.7,13.7,8,20.5C51.4,274.3,35.2,256.9,31.2,245z"/>
<path style="fill:#FFFFFF;" d="M51.5,217.9c-8.3-3.7-16.3-7.8-24.1-12.4c-3-11.9-4.2-20.4-5.1-24.9c7.4,4.9,15.2,9.2,23.3,12.9
	c0.1,0.4,0.2,0.7,0.3,1C48,203.2,49.3,210.1,51.5,217.9z"/>
<path style="fill:#FFFFFF;" d="M65.7,265.2c8.9,4.2,18.1,7.9,27.4,11c3.2,9.5,5.4,14.8,8.5,23.2c-11-3.1-16.8-5.3-27-11.7
	C72.8,284,69.8,273.7,65.7,265.2z"/>
<path style="fill:#FFFFFF;" d="M110.9,256.9c3.3,9.3,5.8,17.1,8.8,24.7c-9.1-0.9-18.1-2.8-26.8-5.6c-2.5-8-5.5-15.8-7.9-23.9
	C94.3,255.4,103.3,256.4,110.9,256.9z"/>
<path style="fill:#FFFFFF;" d="M189.5,222.5c-2-9.5-4.3-19.4-6.3-29c8.5,2.1,18.5,6.8,27.6,12.8c0.1,0.1,0.2,0.2,0.4,0.2l9.1,32
	l-0.8-0.8C210.2,231.4,200.1,226.3,189.5,222.5z"/>
<path style="fill:#FFFFFF;" d="M200.8,171.7c-8.4-5.3-17.3-9.7-26.6-13.2c-3.2-11.7-5.6-19-7.2-24.5c9.2,1.6,18.1,4.8,26.2,9.4
	L200.8,171.7z"/>
<path style="fill:#FFFFFF;" d="M201.8,284.8L201.8,284.8c-0.3-1.8-3.2-15.8-6.2-31.3c9.9,4,21.9,12.5,34.5,19.8l13.1,45.4
	C234.3,309.1,216.1,291,201.8,284.8z"/>
<path style="fill:#FFFFFF;" d="M143.2,189.5c2.7,9.7,5,19.4,7.6,29c-12.2,0.8-24.1,3.4-32,15.2l-8.6-26.6
	C114.2,194.8,129.2,190.2,143.2,189.5z"/>
<path style="fill:#FFFFFF;" d="M190.8,222.9c3.1,11.6,5.1,22.3,6.9,31.5c-15.8-6.3-28.9-6.4-38.8-6.4c-2.2-8.8-5.3-18.9-8.1-29.3
	C164.2,217.8,181.9,217.9,190.8,222.9z"/>
<path style="fill:#FFFFFF;" d="M143.2,189.5c-3.4-12.1-6.5-23.5-9.4-33.5c14.7-2.5,27.6-2.3,40.3,2.3c2.5,10.3,6.7,23.7,9.4,36.1
	C170.6,189.9,156.8,188.2,143.2,189.5z"/>
<path style="fill:#FFFFFF;" d="M100.6,177.5L93,153.4c4.1-7.5,10.6-13.5,18.5-16.9c4.7-2.2,9.7-3.5,14.8-4.1
	c1.5,5.1,4.6,13.8,7.5,23.7C121.3,158.1,109,163.9,100.6,177.5z"/>
<path style="fill:#FFFFFF;" d="M133.1,284.3l-6.5-23.1c4.9-7.9,15.7-12.9,32.5-13.3c3.1,12.5,7.2,26.9,7.5,29.3
	c-8.2,0.4-16.7,2.2-21,5.3c-0.6,0.1-9.8,9.7-9.6,9.3C135,290.5,133.9,287.4,133.1,284.3z"/>
<path style="fill:#FFFFFF;" d="M116.5,255.9c-1.5-9.6,0.6-20,2.3-22.1l7.6,27.4c-1.8,3.1-3.8,8.5-1.6,17.1
	C122.5,271.8,119.4,263.8,116.5,255.9z"/>
<path style="fill:#FFFFFF;" d="M95.9,191.3c0.1-7.2,2.6-10.3,4.7-13.8l9.7,29.8c-2.8,6.3-3.3,14.2-3.4,16.7
	C107.5,225.9,98.2,198.9,95.9,191.3z"/>
<path style="fill:#FFFFFF;" d="M53.4,279.3c4.9,8.1,29.5,26.3,29.5,26.3l-7.4-17.7c0,0-6.2-3-12-6.3c-6.4-3.7-12-7.2-12-7.2
	L53.4,279.3z"/>
<path style="fill:#FFFFFF;" d="M130.1,305.7l11.4,21.4c0.2,0.4,1,1.9,1,1.9s-0.4,0.3-2.5,0c-10-1.2-19.7-3.9-29-7.8
	c-0.3-0.1-0.6-1.2-0.7-1.3l-8.6-18.5c-0.2-0.5-1.1-1.9-0.8-2.2c0.3-0.3,1.6,0.4,2,0.5c14.7,4.4,23.9,5.4,26.2,5.5
	c0.2,0,0.4,0,0.6,0.1L130.1,305.7z"/>
<path style="fill:#100F2A;" d="M183.3,193.4c-1.8-6.8,5.1,18,7.5,29.4c-10.4-4.2-26.6-5.1-39.9-4.2c-2.6-9.7-7.7-29.3-7.6-29.2
	C153.9,188.7,166,187.5,183.3,193.4z"/>
<path style="fill:#040000;" d="M40,260.3c3.6,4.9,7.4,9.5,11.5,14l1.8,4.5C48.4,273,43.9,266.8,40,260.3z"/>
<path style="fill:#100F2A;" d="M84.9,252.2c2.4,8.1,5.4,15.8,7.9,23.9c-9.3-3-18.3-6.7-27.1-10.9c-2.6-6.2-5.6-15-8.2-23.4
	C64.5,245,75,249.8,84.9,252.2z"/>
<path style="fill:#100F2A;" d="M197.7,254.4c-1.8-9.2-4.6-19.8-6.9-31.5c16.7,6.1,29,14.9,29.6,15.5l10.2,36
	C220.3,266.7,207.6,258.3,197.7,254.4z"/>
<path style="fill:#100F2A;" d="M110.3,207.3l-9.6-29.5c8.4-13.6,20.7-19.6,33.1-21.7c-0.1-0.2,6,21.3,9.4,33.5
	C127.5,190.8,118.3,196,110.3,207.3z"/>
<path style="fill:#100F2A;" d="M34.7,231.1c2.4,7.3,5.7,15.6,8.1,22.4c-2.9-1.8-7.8-5.8-11.1-8.1c-3.8-7.6-7.1-15.4-10-23.3
	C24.4,223.9,28.5,227.2,34.7,231.1z"/>
<path style="fill:#100F2A;" d="M84.9,252.2c-2.4-8.2-4.8-17-6.8-24c8,2,16.3,3.1,24.6,3c2.8,8.7,5.6,18.2,8.2,25.7
	C102.1,256.5,93.3,254.9,84.9,252.2z"/>
<path style="fill:#100F2A;" d="M22.2,180.5c0.9,4.4,2.2,12.9,5.1,24.9c-4.8-2.8-8.9-4.7-14-8.2c-6-19-9.3-32.3-9.3-32.3
	C7.3,169.4,13.8,175,22.2,180.5z"/>
<path style="fill:#100F2A;" d="M78.1,228.2c-7.5-2-16.6-6-26.7-10.3c-2.2-7.7-3.5-14.6-5.8-23.4c-0.1-0.4-0.2-0.7-0.3-1
	c8.3,3.9,17.1,7,26,9.2C71.5,202.6,73.8,213.1,78.1,228.2z"/>
<path style="fill:#100F2A;" d="M183.3,193.4c-3.2-13.1-6.5-25.7-9.1-34.9c9.5,3.6,18.7,8.2,27.2,13.8l10.7,35.9
	c-0.3-0.3-0.6-0.6-1-0.9C202,201.4,191.8,195.5,183.3,193.4z"/>
<path style="fill:#100F2A;" d="M133.7,156c-2.9-10-7.2-22.3-7.6-23.9c-0.6,0.1,0.7,0.2,0.1,0.3c16.9-3.9,41.7,1.8,40.7,1.7
	c2.3,8,3.9,12.9,7.2,24.5C161.4,154,148.5,153.6,133.7,156z"/>
<path style="fill:#100F2A;" d="M57.6,241.8c-10.3-4.3-16.4-7-22.8-10.7c-2.5-8.4-5.6-18.1-7.4-25.7c7.8,4.6,15.8,8.7,24.1,12.4
	C53.6,227.2,57.7,242.5,57.6,241.8z"/>
<path style="fill:#100F2A;" d="M65.7,265.2c-0.5-1,7.8,18.9,9.7,22.7l-24-13.5c-3.3-6.7-4.5-10.1-8.3-20.7
	C50.4,258,58,261.8,65.7,265.2z"/>
<path style="fill:#100F2A;" d="M119.6,281.6c2.9,8,6.3,15.9,10.1,23.6c-10.1-0.4-32.7-7.2-28.1-5.8c-0.5-0.2-5.5-13.2-8.9-23.3
	C101.5,278.9,110.5,280.7,119.6,281.6z"/>
<path style="fill:#100F2A;" d="M150.8,218.7c2.8,10.4,5.9,20.6,8.1,29.3c-16.9,0.1-27.6,5.4-32.5,13.3l-7.6-27.4
	C126.7,222,138.6,219.5,150.8,218.7z"/>
<path style="fill:#100F2A;" d="M124.8,278.4c-2.1-8.6-0.1-14,1.7-17.1l0,0c0,0,8.5,29.2,9.3,30.5c2.6-3.6,5.9-6.8,9.6-9.3
	c0,0,8.1,31.9,9.4,40.5c0.3,4.6-4.5,6.5-12.4,6l0,0l-12.7-23.8l0,0c0.1,0,10.2,0.8,9.6,0.4c-10-9.5-13.2-23.7-13.2-23.7
	c-2.2,0.1-4.3,0-6.5-0.2l0,0c-2.9-7.6-5.5-15.3-8.8-24.7l0,0c1.9,0.3,4,0,6,0.2l0.1,0.2l-8.6-25.8l-0.1-0.2c0,0-2,0-5.6-0.1l0,0
	c-2.8-8.5-5.5-16.9-8.4-26.7l0,0c1.8-0.7,3.4-1.7,4.8-3c-0.1-0.4-5-14-9.6-27l0,0c-0.9-7.2,0.4-14.6,3.6-21.1l0,0l7.6,24.2l-0.1-0.2
	c-2.2,3.6-4.6,6.8-4.7,14l0,0c2.4,7.5,11.7,34.5,11.1,32.7c0.2-2.6,0.6-10.5,3.4-16.7l0,0l8.5,26.4l0,0c-1.7,2.1-3.5,13.7-2,23.3
	l-0.4-1.2C119.3,263.8,122.5,271.8,124.8,278.4z"/>
<path style="fill:#100F2A;" d="M205.9,286.8c-12.5-7-28.6-10-39.3-9.6c-1.8-7.6-3.8-14.6-7.5-29.3c8.9-0.5,27.3,0.8,38.8,6.4
	C201.6,269.5,205.9,286.8,205.9,286.8z"/>
<path style="fill:#100F2A;" d="M75.5,287.9c15.1,8.8,27.6,11.9,26.2,11.5l9.5,22.3c-1.9-1.5-4-2.9-6.1-4.1
	c-7.7-3.5-15.1-7.5-22.1-12.1L75.5,287.9z"/>
<path style="fill:#FFFFFF;" d="M148.7,295.7c0,0,4.1,16.6,5.6,23.6s-0.9,7.7-0.9,7.7s1.3-0.7,0.8-5.8s-5-8.4-6.8-10.5
	s-10.3-8.2-12.4-12.7c-1.7-3.6,3.9-9.2,3.9-9.2C139.2,289,148.7,295.7,148.7,295.7z"/>
<path style="fill:#362F53;" d="M210.1,139.1l65.8,235.2c-4.3,6-13.3,3.8-13.3,3.8l-66.7-235.7c3-5.4,8.5-5.4,11.7-4.6
	C208.5,138,209.4,138.5,210.1,139.1z"/>
<path style="fill:#0E0E29;" d="M269.5,378.1c-2.3,0.4-4.6,0.4-6.9-0.1l-66.7-235.6c1.5-2.8,4.3-4.6,7.4-4.9L269.5,378.1z"/>
<path style="fill:#0E0E29;" d="M275.9,374.2c-0.5,0.7-1.1,1.3-1.6,2L208,137.9c0.8,0.2,1.5,0.6,2.1,1.2L275.9,374.2z"/>
<path style="fill:#FFFFFF;" d="M478.3,230.7c-2.1,7.2-6.3,16.1-8.7,22.8c-9,5.6-14.7,7.8-22.5,11.5c2.3-6.6,5.3-14.8,7.9-23.2
	C465.6,237.5,472.3,234.5,478.3,230.7z"/>
<path style="fill:#FFFFFF;" d="M499.5,197.1c-0.7,2.3-1.5,4.7-2.3,7.1c-1.9,5.6-3.9,11.6-6.2,17.8c-2.6,1.8-6.7,5-13,9
	c2.5-8.4,5.6-18.1,7.4-25.7C490.2,202.4,494.3,200.5,499.5,197.1z"/>
<path style="fill:#FFFFFF;" d="M427.8,252c2.4-8.2,4.8-17,6.8-24c7.5-2,16.6-6,26.7-10.3c-1.9,8.9-3.7,15.5-5.8,23.8
	C446.5,245.5,437.2,249,427.8,252z"/>
<path style="fill:#FFFFFF;" d="M418.5,204.3c1.7,0.5,3.5,0.8,5.3,0.9c5,0,10.3-1.1,17.6-2.8c0,0.1-2.4,10.6-6.6,25.6
	c-8,2-16.3,3.1-24.6,3C412.9,222.5,415.6,214.1,418.5,204.3z"/>
<path style="fill:#FFFFFF;" d="M386.7,281.5c2.2,0.1,4.3,0,6.5-0.2c-3.5,8.9-6.4,15.1-10.1,23.6c0,0-10.2,0.8-9.6,0.4
	C383,296.3,386.7,281.5,386.7,281.5z"/>
<path style="fill:#FFFFFF;" d="M404.5,231.1c0,0,2,0,5.6-0.1c-2.8,8.7-5.6,18.2-8.2,25.7c-1.9,0.3-4,0-6,0.2L404.5,231.1z"/>
<path style="fill:#FFFFFF;" d="M461.3,274.1c3.4-6.8,4.3-9.9,8-20.5c3-1.9,9-6.6,12.1-8.8C477.6,256.6,461.3,274.1,461.3,274.1z"/>
<path style="fill:#FFFFFF;" d="M467.1,194.2c0.1-0.4,0.2-0.7,0.3-1c8.1-3.7,15.9-8,23.3-12.9c-0.9,4.4-2.2,12.9-5.1,24.9
	c-7.8,4.6-15.8,8.7-24.1,12.4C463.5,209.9,464.8,203,467.1,194.2z"/>
<path style="fill:#FFFFFF;" d="M438.1,287.4c-10.1,6.4-16,8.6-27,11.7c3.1-8.4,5.4-13.7,8.5-23.2c9.4-3.1,18.5-6.7,27.4-11
	C443.1,273.5,439.9,283.7,438.1,287.4z"/>
<path style="fill:#FFFFFF;" d="M427.8,252c-2.4,8.1-5.4,15.8-7.9,23.9c-8.7,2.7-17.7,4.6-26.8,5.6c2.9-7.6,5.5-15.3,8.8-24.7
	C409.6,256.2,418.5,255.2,427.8,252z"/>
<path style="fill:#FFFFFF;" d="M293.3,237.5c-0.3,0.2-0.6,0.5-0.8,0.8l9.1-32c0.2-0.1,0.3-0.1,0.4-0.2c9.1-6,19-10.7,27.6-12.8
	c-2.1,9.7-4.4,19.6-6.3,29C312.7,226.1,302.6,231.2,293.3,237.5z"/>
<path style="fill:#FFFFFF;" d="M319.7,143.2c8.1-4.6,17-7.8,26.2-9.4c-1.6,5.4-4.1,12.7-7.2,24.5c-9.3,3.5-18.2,7.9-26.6,13.2
	L319.7,143.2z"/>
<path style="fill:#FFFFFF;" d="M269.4,318.4l13.1-45.4c12.7-7.3,24.7-15.8,34.5-19.8c-3,15.4-5.9,29.5-6.2,31.3l0,0
	C296.7,290.8,278.5,308.9,269.4,318.4z"/>
<path style="fill:#FFFFFF;" d="M402.6,206.9l-8.6,26.6c-7.8-11.8-19.8-14.4-32-15.2c2.6-9.6,4.9-19.3,7.6-29
	C383.6,189.9,398.6,194.6,402.6,206.9z"/>
<path style="fill:#FFFFFF;" d="M361.9,218.4c-2.8,10.4-5.9,20.6-8.1,29.3c-9.8-0.1-23,0.1-38.8,6.4c1.8-9.2,3.8-19.9,6.9-31.5
	C330.9,217.7,348.6,217.5,361.9,218.4z"/>
<path style="fill:#FFFFFF;" d="M329.4,194.2c2.7-12.5,6.8-25.7,9.4-36.1c12.8-4.6,25.6-4.7,40.3-2.3c-2.9,9.9-6,21.3-9.4,33.5
	C356.1,188,342.3,189.7,329.4,194.2z"/>
<path style="fill:#FFFFFF;" d="M379,155.8c2.9-9.9,6-18.6,7.5-23.7c5.1,0.6,10.1,2,14.8,4.1c7.9,3.4,14.4,9.4,18.5,16.9l-7.6,24.2
	C403.8,163.6,391.4,157.9,379,155.8z"/>
<path style="fill:#FFFFFF;" d="M376.9,291.6c0.2,0.4-9.1-9.2-9.6-9.3c-4.3-3.1-12.8-4.9-21-5.3c0.4-2.4,4.4-16.8,7.5-29.3
	c16.8,0.4,27.6,5.4,32.5,13.3l-6.5,23.1C379.1,286.7,378.1,289.2,376.9,291.6z"/>
<path style="fill:#FFFFFF;" d="M387.9,278.2c2.1-8.6,0.1-14.1-1.6-17.1l7.6-27.4c1.7,2.1,3.9,12.5,2.3,22.1
	C393.4,263.6,390.3,271.5,387.9,278.2z"/>
<path style="fill:#FFFFFF;" d="M405.9,223.8c-0.2-2.6-0.6-10.5-3.4-16.7l9.7-29.8c2.2,3.6,4.7,6.7,4.7,13.8
	C414.6,198.7,405.3,225.6,405.9,223.8z"/>
<path style="fill:#FFFFFF;" d="M461.3,274.1c0,0-5.6,3.4-12,7.2c-5.8,3.3-12,6.3-12,6.3l-7.5,17.7c0,0,24.7-18.2,29.5-26.3
	L461.3,274.1z"/>
<path style="fill:#FFFFFF;" d="M383,305c0.2,0,0.4,0,0.6-0.1c2.4-0.2,11.5-1.1,26.2-5.5c0.4-0.2,1.8-0.8,2-0.5
	c0.2,0.3-0.6,1.7-0.8,2.2l-8.6,18.5c-0.1,0.2-0.4,1.2-0.7,1.3c-9.3,3.9-19,6.6-29,7.8c-2.2,0.3-2.5,0-2.5,0s0.8-1.5,1-1.9l11.4-21.4
	C382.8,305.3,382.9,305.2,383,305z"/>
<path style="fill:#100F2A;" d="M369.6,189.2c0.1-0.1-5,19.5-7.6,29.2c-13.3-0.9-29.5,0-39.9,4.2c2.4-11.5,9.3-36.3,7.5-29.4
	C346.8,187.3,358.9,188.5,369.6,189.2z"/>
<path style="fill:#040000;" d="M459.5,278.6l1.8-4.5c0,0,5.9-6.4,11.5-14C468.9,266.6,464.4,272.8,459.5,278.6z"/>
<path style="fill:#100F2A;" d="M455.3,241.6c-2.6,8.4-5.6,17.2-8.2,23.4c-8.8,4.2-17.9,7.8-27.1,10.9c2.5-8,5.5-15.8,7.9-23.9
	C437.8,249.6,448.3,244.8,455.3,241.6z"/>
<path style="fill:#100F2A;" d="M282.3,274.3l10.2-36c0.8-0.9,13-9.3,29.6-15.5c-2.4,11.7-5.1,22.3-6.9,31.5
	C305.2,258.1,292.4,266.4,282.3,274.3z"/>
<path style="fill:#100F2A;" d="M369.6,189.3c3.4-12.2,9.5-33.6,9.4-33.5c12.4,2.1,24.7,8,33.1,21.7l-9.6,29.5
	C394.5,195.8,385.4,190.5,369.6,189.3z"/>
<path style="fill:#100F2A;" d="M491,221.9c-2.9,7.9-6.3,15.7-10,23.3c-3.2,2.3-8.2,6.3-11.1,8.1c2.4-6.7,5.7-15.1,8.1-22.4
	C484.3,227,488.4,223.7,491,221.9z"/>
<path style="fill:#100F2A;" d="M401.9,256.7c2.6-7.5,5.4-17,8.2-25.7c8.3,0,16.6-1,24.6-3c-2,7-4.4,15.8-6.8,24
	C419.5,254.7,410.7,256.3,401.9,256.7z"/>
<path style="fill:#100F2A;" d="M490.6,180.3c8.4-5.6,14.9-11.1,18.2-15.5c0,0-3.3,13.2-9.3,32.3c-5.1,3.4-9.2,5.4-14,8.2
	C488.4,193.2,489.7,184.8,490.6,180.3L490.6,180.3z"/>
<path style="fill:#100F2A;" d="M441.3,202.4c8.9-2.2,17.7-5.3,26-9.2c-0.1,0.4-0.2,0.7-0.3,1c-2.3,8.8-3.6,15.7-5.8,23.4
	c-10,4.4-19.1,8.4-26.7,10.3C439,212.9,441.3,202.4,441.3,202.4z"/>
<path style="fill:#100F2A;" d="M301.7,207.3c-0.4,0.3-0.7,0.6-1,0.9l10.7-35.9c8.5-5.6,17.6-10.3,27.2-13.8
	c-2.6,9.2-5.9,21.7-9.1,34.9C321,195.3,310.8,201.2,301.7,207.3z"/>
<path style="fill:#100F2A;" d="M338.6,158.3c3.3-11.5,4.9-16.4,7.2-24.5c-1.1,0.1,23.8-5.6,40.7-1.7c-0.6-0.2,0.7-0.2,0.1-0.3
	c-0.5,1.6-4.7,14-7.6,23.9C364.3,153.4,351.4,153.7,338.6,158.3z"/>
<path style="fill:#100F2A;" d="M461.3,217.6c8.3-3.7,16.3-7.8,24.1-12.4c-1.9,7.6-4.9,17.2-7.4,25.7c-6.4,3.7-12.4,6.5-22.8,10.7
	C455.1,242.3,459.2,226.9,461.3,217.6z"/>
<path style="fill:#100F2A;" d="M469.6,253.4c-3.8,10.6-4.9,14-8.3,20.7l-24,13.5c1.9-3.8,10.2-23.7,9.7-22.7
	C454.8,261.6,462.3,257.8,469.6,253.4z"/>
<path style="fill:#100F2A;" d="M419.9,275.8c-3.3,10.1-8.4,23.2-8.9,23.3c4.6-1.3-18,5.4-28.1,5.8c3.8-7.7,7.2-15.5,10.1-23.6
	C398.6,280.9,407.4,279.7,419.9,275.8z"/>
<path style="fill:#100F2A;" d="M393.9,233.7l-7.6,27.4c-4.9-7.9-15.5-13.2-32.5-13.3c2.2-8.8,5.3-18.9,8.1-29.3
	C374.1,219.2,386.1,221.8,393.9,233.7z"/>
<path style="fill:#100F2A;" d="M388,278.1c2.4-6.6,5.5-14.6,8.2-22.4l-0.4,1.2c1.5-9.6-0.3-21.3-2-23.3l0,0l8.5-26.4l0,0
	c2.8,6.3,3.2,14.1,3.4,16.7c-0.6,1.9,8.6-25.2,11.1-32.7l0,0c-0.1-7.2-2.5-10.5-4.7-14l-0.1,0.2l7.6-24.2l0,0
	c3.2,6.5,4.5,13.9,3.6,21.1l0,0c-4.5,13-9.5,26.6-9.6,27c1.4,1.3,3,2.3,4.8,3l0,0c-2.9,9.8-5.7,18.1-8.4,26.7l0,0
	c-3.6,0.1-5.6,0.1-5.6,0.1l-0.1,0.2l-8.6,25.8l0.1-0.2c2-0.3,4.1,0.1,6-0.2l0,0c-3.3,9.3-5.8,17.1-8.8,24.7l0,0
	c-2.2,0.2-4.3,0.2-6.5,0.2c0,0-3.2,14.3-13.2,23.7c-0.7,0.4,9.5-0.3,9.6-0.4l0,0l-12.7,24l0,0c-7.9,0.5-12.6-1.3-12.4-6
	c1.3-8.6,9.4-40.5,9.4-40.5c3.8,2.5,7,5.6,9.6,9.3c0.8-1.3,9.3-30.5,9.3-30.5l0,0C388,264.1,390,269.5,388,278.1L388,278.1z"/>
<path style="fill:#100F2A;" d="M315.1,254.1c11.4-5.5,29.9-6.9,38.8-6.4c-3.7,14.6-5.8,21.7-7.5,29.3c-10.7-0.5-26.9,2.6-39.3,9.6
	C307,286.6,311.2,269.3,315.1,254.1z"/>
<path style="fill:#100F2A;" d="M429.8,305.3c-7.1,4.5-14.5,8.6-22.1,12.1c-2.2,1.2-4.2,2.5-6.1,4.1l9.5-22.3
	c-1.4,0.4,11.1-2.7,26.2-11.5L429.8,305.3z"/>
<path style="fill:#FFFFFF;" d="M374,288.6c0,0,5.6,5.6,3.9,9.2c-2.1,4.4-10.6,10.6-12.4,12.7c-1.8,2.1-6.3,5.4-6.8,10.5
	c-0.5,5.1,0.8,5.8,0.8,5.8s-2.4-0.7-0.9-7.7s5.6-23.6,5.6-23.6S373.5,288.8,374,288.6z"/>
<path style="fill:#352E51;" d="M305.2,137.5c3.2-0.8,8.8-0.7,11.7,4.6l-66.7,235.6c0,0-9,2.2-13.3-3.8l65.8-235.2
	C303.5,138.2,304.3,137.8,305.2,137.5z"/>
<path style="fill:#0E0E29;" d="M309.5,137.2c3.1,0.3,5.9,2.1,7.4,4.9l-66.7,235.6c-2.3,0.5-4.6,0.5-6.9,0.1L309.5,137.2z"/>
<path style="fill:#0E0E29;" d="M302.7,138.8c0.6-0.6,1.3-1,2.1-1.2l-66.3,238.3c-0.6-0.6-1.1-1.3-1.6-2L302.7,138.8z"/>
</svg>
