<?xml version="1.0" encoding="utf-8"?>
<!-- Generator: Adobe Illustrator 24.0.0, SVG Export Plug-In . SVG Version: 6.00 Build 0)  -->
<svg version="1.1" id="圖層_1" xmlns="http://www.w3.org/2000/svg" xmlns:xlink="http://www.w3.org/1999/xlink" x="0px" y="0px"
	 viewBox="0 0 512.1 512" style="enable-background:new 0 0 512.1 512;" xml:space="preserve">
<title>item</title>
<path d="M433.8,505.9c-0.5-0.1-74-18.5-104.4-23.9c-25.7-4.5-52.9-8.2-76.8-10.4c-31.7-2.9-59.1-5.3-78.9-14.4
	c-10.8-4.8-18.2-15.2-19.2-27c-0.9-10.5,3.4-22.1,12.9-35.1c-8,0.9-16.1,1.4-24.2,1.4c-11.9,0-23.8-0.9-35.5-2.8
	c-38.2-5.9-71.7-28.9-90.8-62.5c-19.6-34.4-22.2-76.1-7.3-114.8c-5-17.8-15-52.6,27.1-111.4c22-30.4,41.5-53.6,59.8-70.5
	c11.4-10.6,23.8-20.1,37-28.4c0,0,25.4,40.3,32.7,77.5h0.6c6.7,0.1,13.4,0.8,20,2.2c29,5.8,55.1,21.6,73.8,44.5
	c6.4-4.3,13.1-8.5,20.1-12.5c58.7-34,146.4-47.4,165.1-47.4c5.3,0,2.3,46.3-19.5,97.1c-2.4,5.6-4.9,11.3-5.7,13.5
	c-0.2,0.8-0.8,4.3-1.2,6.4c-1.4,8.5-3.6,21.5-9.8,35.9c84,35.6,98.7,58.5,101.8,74.6c8.3,42.7-58.2,90.6-126.5,119.1
	c0.3,5.3-0.6,10.7-2.6,15.6C412.1,453.2,433.8,505.9,433.8,505.9z"/>
<path style="fill:#FFFFFF;" d="M498.8,300.4c-3.8-19.6-39.7-43.2-106.9-70.5c10.2-17.3,13-33.8,14.8-44.6c0.4-2.9,1-5.8,1.8-8.7
	c0.9-2.5,3.2-7.9,5.9-14.2c22.4-52.1,24.3-79,22.3-79c-15.2,0-91.7,12-149.5,45.5c-10.2,5.9-20.1,12.3-29.7,19.2
	c-12.9-21.4-39.2-42.8-73.2-49.7c-5.8-1.2-11.6-1.8-17.5-1.9c-3.9-0.1-7.8,0.4-11.6,1.3C151.3,58.2,127.7,19,127.7,19
	s-16.2,10.2-37.6,34.1c-19.6,22-44,56.7-58,82.3c-22.8,41.5-10.7,75.5-9,81c0.1,0.2,0.1,0.5,0.2,0.7c-0.4,0.9-0.8,1.8-1.1,2.7
	c-14.1,35.4-12,73.7,5.9,105.1c17.2,30.2,47.2,50.8,81.5,56.1c11.1,1.8,22.3,2.6,33.5,2.6c21.7,0.1,43.2-3.5,63.6-10.7
	c-19.8,16.9-40.9,39.3-39.5,56.3c0.6,7.2,5.1,13.5,11.8,16.4c17.8,8.2,44.2,10.5,74.7,13.3c24.3,2.2,51.6,5.9,77.8,10.5
	c31.2,5.5,81.6,18.8,81.6,18.8c-8.7-15.9-33.9-44.3-49.6-52.9c9.5-5,9.4-16.3,7.4-26.4C449.5,378.2,504.9,331.6,498.8,300.4z"/>
<path style="fill:#A9D1EF;" d="M365.5,233.5c0,0,115.5,42.6,120.6,69.4s-75.7,92.6-199.8,117.2c0,0,74,15.2,110.9,56.9
	c0,0-33.6-13.7-62.7-20.2c-58.2-13.1-120.8-9.5-150-22.9c-21.2-9.7,41.7-66.5,85.8-89.4s3.8-70.7,3.8-70.7s41.6-7.6,54-13.3
	C340.4,254.8,365.5,233.5,365.5,233.5z"/>
<path style="fill:#F0F8FD;" d="M475.4,307.6c3.5-23.4-115.9-67.9-115.9-67.9s-16.4,13.4-33.4,21.4s-52.4,13-52.4,13
	s26,8.7,42.2,17.9c5.2,3.1,9.5,7.7,12.2,13.1c-14.6,10.7-85.6,62.8-102.9,77.3c-14.2,11.8-38.8,36.2-39.5,43.7
	c-0.6,5.9,50,12.6,74.2,13.1c0,0-43.8-9.5-35.9-10.9c30.3-5.5,94.1-20.1,146.5-42.1C443.2,355.5,474.2,314.9,475.4,307.6z"/>
<path style="fill:#A9D1EF;" d="M334.9,321.9l-2.7,4.4c68,17.1,60.7,38.5,57.5,45.2c-3.6,7.6-21.6,17.3-32.4,22.6
	c0,0,37.4-9,42.3-22.7C402,364.4,409,338.9,334.9,321.9z"/>
<linearGradient id="SVGID_1_" gradientUnits="userSpaceOnUse" x1="138.1859" y1="-598.0999" x2="138.1859" y2="-972.2299" gradientTransform="matrix(1 0 0 -1 0 -471.8)">
	<stop  offset="0" style="stop-color:#49C8F3"/>
	<stop  offset="1" style="stop-color:#3B66B0"/>
</linearGradient>
<path style="fill:url(#SVGID_1_);" d="M235.4,204.5l-1.6-12.9l11.8-4.7l3.9-19.4l-18-25.5c0,0-60.1-46.4-78.4-20.2
	c0,0-2.6,15-1.8,26s-9.2,11.3-9.2,11.3s-93.7,7.1-112.8,90.2s74.7,123,124.1,117.5c58.8-6.6,92.6-38.3,92.6-38.3L235.4,204.5z"/>
<path d="M101.7,258.5l19.9-19.7c0,0-2.6,53.8-2.6,61.9s-18.9,12.6-18.9-2.9S101.7,258.5,101.7,258.5z"/>
<path d="M71,261.1l-16.3-26.2v64.9c0,8.4,16.1,9,16.1-2.2C70.8,286.2,71,261.1,71,261.1z"/>
<path style="fill:#FFFFFF;" d="M109.6,186.9c3.4,4.5,0.9,12.1-5.6,16.9s-14.4,5.1-17.8,0.6s-0.9-12.1,5.6-16.9
	S106.2,182.4,109.6,186.9z"/>
<path style="fill:#F3D6E7;" d="M183.2,266.1c0,0,43.6-112,170-144.6c0,0,57.5-23.3,62.8-19.4s-27.6,75.3-27.6,75.3
	s-1.7,88.4-120.9,95.8c0,0,69.2,20.2,64.8,43.5s-8.7,22-8.7,22s41.9,78.2,27.6,83.2S199.4,341.9,183.2,266.1z"/>
<path d="M422.1,95.1c-4.4-2.3-67,9.3-128.5,45c-14.4,8.3-28.2,17.7-41.2,28.1c-6-22.4-33.7-49.7-70.7-57.2
	c-33.1-6.6-37.4,7.6-35.4,19.6c1,6,5,13.3,5,13.3l-8.6,12.1c-2.5,0-5.1,0.1-7.6,0.3c19-41.9-1.2-117.1-11.1-125.5
	c-2-1.7-19.8,12.7-59.1,69.6L52,119.3c-35.1,50.6-15.3,97.5-14.4,97.8c-1.1,2.3-2.2,4.7-3.2,7.2C7.6,291.5,48.2,358.1,111.9,368
	c55.8,8.7,99.1-7,120.9-23.2c0,0,21.8,23.4,38.7,36.6c46.3,36.3,76,46.6,85.9,42.3c10.8-4.7-26.2-86.8-26.2-86.8s11-25.3-1.5-37.2
	c-17.5-16.7-38.9-23.2-53-25.7c17,0.6,51.8-0.3,82.5-25.7c35.7-29.5,32.8-64.1,37.3-76.4C400.8,159.8,429.8,99,422.1,95.1z
	 M163.9,119c17.1-4.7,68.5,14.6,79,51.7c0.5,1.7,0.7,3.4,0.8,5.1c-2.9,2.6-5.8,5.3-8.6,8.1c-3.1-11.2-11.4-25.9-35.7-37.3
	c-30.5-14.2-42-6.6-42-6.6S146.9,123.7,163.9,119z M386.2,177.8c-4.5,20.9-9.9,82.4-119.4,95.1c-3.3-0.3-5.2-0.3-5.2-0.3
	c42,10.7,58.3,24.7,64.1,32.6c7.8,10.7-3.7,34-3.7,34s37.2,79.3,24.4,77.1c-13.8-2.5-39.2-16.8-62.9-34.8
	c-39-29.6-75.9-67.2-75.9-67.2s6,9.6,19.3,24.4C210,351,173.6,370.1,117,361.8C30.8,349.2,26.3,261,40.4,227.5
	c17-40.5,60.9-66.1,107.8-63.8l10.5-15.5c0,0,40.1-12.1,70.8,40.1l-0.6,1.5c-18.3,19.3-33.7,42.4-43.5,70.6
	c0,0,37.3-72.3,113.4-113.5c71.4-38.5,114.4-41.7,114.4-41.7S390.6,156.8,386.2,177.8L386.2,177.8z"/>
<path style="fill:#F3D6E7;" d="M42.5,209.9c0,0-15.3-38.1,17.2-85s58.1-85.7,63-81.5s25.1,74.7,4.5,114.2
	C127.2,157.6,68.8,162.7,42.5,209.9z"/>
</svg>
