<?xml version="1.0" encoding="utf-8"?>
<!-- Generator: Adobe Illustrator 24.0.0, SVG Export Plug-In . SVG Version: 6.00 Build 0)  -->
<svg version="1.1" id="Layer_1" xmlns="http://www.w3.org/2000/svg" xmlns:xlink="http://www.w3.org/1999/xlink" x="0px" y="0px"
	 viewBox="0 0 512 512" style="enable-background:new 0 0 512 512;" xml:space="preserve">
<style type="text/css">
	.st0{fill:#FFFFFF;}
	.st1{fill:url(#SVGID_1_);}
	.st2{fill:#FFF200;}
</style>
<g>
	<g>
		<path d="M256,482.8c-16.6,0-32.1-6.4-43.8-18.2l-89.5-89.5c-17.8-17.8-23.1-44.3-13.4-67.6c0,0,0-0.1,0-0.1H81.6
			c-45,0-81.6-36.6-81.6-81.6V110.8c0-45,36.6-81.6,81.6-81.6h348.8c45,0,81.6,36.6,81.6,81.6v115.1c0,45-36.6,81.6-81.6,81.6h-27.7
			c0,0,0,0.1,0,0.1c9.6,23.2,4.4,49.8-13.4,67.6l-89.5,89.5C288.1,476.3,272.6,482.8,256,482.8z"/>
		<path class="st0" d="M256,471.5c-13.6,0-26.3-5.3-35.9-14.9l-89.5-89.5c-14.6-14.6-18.9-36.3-11-55.3c2.4-5.9,5.9-11.2,10.1-15.6
			H81.6c-38.8,0-70.4-31.6-70.4-70.4V110.8c0-38.8,31.6-70.4,70.4-70.4h348.8c38.8,0,70.4,31.6,70.4,70.4v115.1
			c0,38.8-31.6,70.4-70.4,70.4h-48.1c4.2,4.4,7.7,9.7,10.1,15.6c7.9,19,3.6,40.7-11,55.3l-89.5,89.5
			C282.3,466.3,269.6,471.5,256,471.5z"/>
	</g>
	<path d="M256,451.6c-8.2,0-15.9-3.2-21.8-9L144.7,353c-8.8-8.8-11.5-22-6.7-33.5c4.8-11.5,15.9-19,28.4-19h27.7v-24.3H81.6
		c-27.8,0-50.4-22.6-50.4-50.4V110.8c0-27.8,22.6-50.4,50.4-50.4h348.8c27.8,0,50.4,22.6,50.4,50.4v115.1
		c0,27.8-22.6,50.4-50.4,50.4H317.8v24.3l27.7,0c12.5,0,23.7,7.5,28.4,19c4.8,11.5,2.2,24.7-6.7,33.5l-89.5,89.5
		C272,448.4,264.2,451.6,256,451.6z"/>
	
		<linearGradient id="SVGID_1_" gradientUnits="userSpaceOnUse" x1="255.998" y1="128.8632" x2="255.998" y2="375.8033" gradientTransform="matrix(1 0 0 -1 0 514)">
		<stop  offset="5.400000e-03" style="stop-color:#FFDE17"/>
		<stop  offset="1" style="stop-color:#ED1C24"/>
	</linearGradient>
	<path class="st1" d="M430.4,69.4H81.6c-22.9,0-41.4,18.5-41.4,41.4v115.1c0,22.9,18.5,41.4,41.4,41.4h121.9
		c-0.2,1.6-0.3,3.2-0.3,4.8v37.4h-36.7c-8.8,0-16.8,5.3-20.1,13.5c-3.4,8.2-1.5,17.5,4.7,23.8l89.5,89.5c4.1,4.1,9.6,6.4,15.4,6.4
		c5.8,0,11.3-2.3,15.4-6.4l89.5-89.5c6.3-6.3,8.1-15.6,4.7-23.8c-3.4-8.2-11.3-13.5-20.1-13.5l-36.7,0v-37.4c0-1.6-0.1-3.2-0.3-4.8
		h121.9c22.9,0,41.4-18.5,41.4-41.4V110.8C471.8,88,453.3,69.4,430.4,69.4z"/>
	<g>
		<path class="st0" d="M273.3,205.1c9.7-5.9,15.9-10.2,19-13.1c5.4-5,8.2-10.6,8.2-16.7c0-5.3-2.2-12.8-12.9-18.1
			c-7.8-3.9-18.1-5.8-31.5-5.8c-14.1,0-24.2,2.4-31,7.3c-6.4,4.7-9.6,11.8-9.6,20.9v2.8c0,2.8,2.2,5.1,4.9,5.1h20.8
			c2.7,0,4.9-2.3,4.9-5.1v-6.9c0-2.4,0.9-2.9,1.2-3.2c1-0.7,3.7-1.8,10.2-1.8c7.3,0,10.1,1.1,11.3,1.7c0.7,0.4,1.5,1.1,1.5,3.4
			c0,0.2-0.1,2-4.3,5.5c-1.6,1.4-5.4,4.2-14.6,9.9c-7,4.4-12.4,7.9-16.1,10.6c-6.6,4.6-12.6,9.3-17.9,14.1c-1.1,1-1.7,2.3-1.7,3.8
			V230c0,2.8,2.2,5.1,4.9,5.1h72.5c2.7,0,4.9-2.3,4.9-5.1v-9.3c0-2.8-2.2-5-4.9-5h-35.9c1-0.7,2-1.3,3-2
			C263,211.6,267.6,208.7,273.3,205.1z"/>
		<path class="st0" d="M417.6,104.4c-9.4-6.1-25-9.1-47.6-9.1c-16.4,0-28.8,1.7-38,4.9H169.5c-3.1,0-5.6,2.6-5.6,5.8v70.2
			l-29.8-72.5c-0.9-2.1-2.9-3.5-5.1-3.5H85.6c-3.1,0-5.6,2.6-5.6,5.8v129.4c0,3.2,2.5,5.8,5.6,5.8h32.2c3.1,0,5.6-2.6,5.6-5.8v-68.7
			l27.7,70.9c0.9,2.2,2.9,3.6,5.2,3.6h46c3.1,0,5.6-2.6,5.6-5.8V129.1H310v68.6c0,15,5.3,26.2,15.6,33.2
			c10.1,6.8,25.3,10.2,46.5,10.2c21.8,0,36.9-2.9,46-8.9c9.2-6.1,13.8-16.3,13.8-30.3v-67.7C432,120.5,427.1,110.4,417.6,104.4z
			 M388.9,134.4v67.5c0,2.9-0.4,6.7-2.4,8.6c-1.3,1.2-4.9,3.4-14.4,3.4c-9.8,0-14.3-2-16.2-3.6c-1.3-1.1-3-3.2-3-8.3v-67.5
			c0-6,2.2-7.8,2.9-8.3c2.1-1.6,6.6-3.6,16.4-3.6c9.5,0,13.1,2,14.5,3.3C388.5,127.5,388.9,131.4,388.9,134.4z"/>
	</g>
	<g>
		<path class="st2" d="M315.7,363.6c3.3,31.4-40,36.7-40,36.7c7.4-8.5,10-18.1,10.9-25.8c4-33.5-25.4-40.2-43.3-53.8
			c-22-16.8,2.1-31.2,2.1-31.2c-20.9,5.8-26.9,19.1-25.2,34.1c2.1,17.5,28.3,29.7,13,42.3c-13.6,11.2-16.9,25.6-16.9,25.6
			c-7-19.9-30.1-24.8-30.1-24.8c0.4,0.2,17.6,11.1,11.1,26.4l43.2,43.2c4.1,4.1,9.6,6.4,15.4,6.4c5.8,0,11.3-2.3,15.4-6.4l57.1-57.1
			C325.5,368.3,315.7,363.6,315.7,363.6z"/>
	</g>
</g>
</svg>
