<?xml version="1.0" encoding="UTF-8"?><svg id="uuid-0d66b917-4b08-4d9b-a181-87494d8c4783" xmlns="http://www.w3.org/2000/svg" viewBox="0 0 97.63 51.06"><defs><style>.uuid-2c14bc3e-e585-4a30-b675-9870569459b6{fill:#444;}.uuid-e0fd6872-800e-4349-9033-0774796a2c9c{fill:#8119eb;}</style></defs><g id="uuid-dd2f1dd7-79d0-4f41-85c0-1bfaf394ec0f"><g><g><polyline class="uuid-2c14bc3e-e585-4a30-b675-9870569459b6" points="97.63 34.04 81.36 34.04 81.36 17.02 97.63 17.02"/><rect class="uuid-2c14bc3e-e585-4a30-b675-9870569459b6" x="65.09" y="0" width="16.27" height="17.02"/><rect class="uuid-2c14bc3e-e585-4a30-b675-9870569459b6" x="65.09" y="34.04" width="16.27" height="17.02"/><rect class="uuid-2c14bc3e-e585-4a30-b675-9870569459b6" x="48.81" y="17.02" width="16.27" height="17.02"/><rect class="uuid-2c14bc3e-e585-4a30-b675-9870569459b6" x="16.27" y="17.02" width="16.27" height="17.02"/><rect class="uuid-2c14bc3e-e585-4a30-b675-9870569459b6" x="32.54" y="0" width="16.27" height="17.02"/><rect class="uuid-2c14bc3e-e585-4a30-b675-9870569459b6" x="32.54" y="34.04" width="16.27" height="17.02"/><rect class="uuid-2c14bc3e-e585-4a30-b675-9870569459b6" y="0" width="16.27" height="17.02"/><rect class="uuid-2c14bc3e-e585-4a30-b675-9870569459b6" y="34.04" width="16.27" height="17.02"/></g><g><polyline class="uuid-e0fd6872-800e-4349-9033-0774796a2c9c" points="97.63 34.04 81.36 34.04 81.36 17.02 97.63 17.02"/><rect class="uuid-e0fd6872-800e-4349-9033-0774796a2c9c" x="65.09" y="0" width="16.27" height="17.02"/><rect class="uuid-e0fd6872-800e-4349-9033-0774796a2c9c" x="65.09" y="34.04" width="16.27" height="17.02"/><rect class="uuid-e0fd6872-800e-4349-9033-0774796a2c9c" x="48.81" y="17.02" width="16.27" height="17.02"/><rect class="uuid-e0fd6872-800e-4349-9033-0774796a2c9c" x="16.27" y="17.02" width="16.27" height="17.02"/><rect class="uuid-e0fd6872-800e-4349-9033-0774796a2c9c" x="32.54" y="0" width="16.27" height="17.02"/><rect class="uuid-e0fd6872-800e-4349-9033-0774796a2c9c" x="32.54" y="34.04" width="16.27" height="17.02"/><rect class="uuid-e0fd6872-800e-4349-9033-0774796a2c9c" y="0" width="16.27" height="17.02"/><rect class="uuid-e0fd6872-800e-4349-9033-0774796a2c9c" y="34.04" width="16.27" height="17.02"/></g></g></g></svg>